PlaypenSansDEVA.glyphspackage
{
glyphname = numbersign;
kernLeft = numbersign;
kernRight = numbersign;
layers = (
{
layerId = m01;
shapes = (
{
closed = 1;
nodes = (
(196,451,o),
(159,230,o),
(126,34,cs),
(124,22,o),
(131,16,o),
(139,16,cs),
(145,16,o),
(151,18,o),
(153,27,cs),
(185,219,o),
(223,439,o),
(256,641,cs),
(258,651,o),
(251,657,o),
(241,657,cs),
(233,657,o),
(229,653,o),
(228,646,cs)
);
},
{
closed = 1;
nodes = (
(418,484,o),
(382,289,o),
(328,73,cs),
(325,62,o),
(333,57,o),
(343,57,cs),
(348,57,o),
(351,59,o),
(353,65,cs),
(409,278,o),
(445,476,o),
(490,672,cs),
(493,683,o),
(486,688,o),
(474,688,cs),
(468,688,o),
(463,684,o),
(461,677,cs)
);
},
{
closed = 1;
nodes = (
(553,437,ls),
(561,437,o),
(565,442,o),
(565,449,cs),
(565,457,o),
(560,462,o),
(551,462,cs),
(76,481,ls),
(68,481,o),
(64,476,o),
(64,468,cs),
(64,460,o),
(69,455,o),
(78,455,cs)
);
},
{
closed = 1;
nodes = (
(219,198,o),
(387,201,o),
(519,205,cs),
(528,206,o),
(533,211,o),
(533,218,cs),
(533,225,o),
(528,230,o),
(519,230,cs),
(67,218,ls),
(59,218,o),
(55,213,o),
(55,205,cs),
(55,197,o),
(60,192,o),
(69,192,cs)
);
}
);
userData = {
com.hugojourdan.ColorFlow = {
"0" = 0;
"1" = 0;
"10" = 0;
"11" = 0;
"2" = 0;
"3" = 0;
"4" = 0;
"5" = 0;
"6" = 0;
"7" = 0;
"8" = 0;
"9" = 0;
};
};
width = 626;
},
{
layerId = m003;
shapes = (
{
closed = 1;
nodes = (
(132,441,o),
(103,264,o),
(68,69,cs),
(61,29,o),
(92,3,o),
(146,3,cs),
(179,3,o),
(204,17,o),
(208,39,cs),
(240,233,o),
(270,410,o),
(304,605,cs),
(311,645,o),
(280,671,o),
(226,671,cs),
(193,671,o),
(168,657,o),
(164,635,cs)
);
},
{
closed = 1;
nodes = (
(368,477,o),
(333,303,o),
(288,110,cs),
(278,70,o),
(308,43,o),
(364,43,cs),
(396,43,o),
(420,56,o),
(425,77,cs),
(470,268,o),
(505,444,o),
(549,635,cs),
(559,676,o),
(528,703,o),
(473,703,cs),
(441,703,o),
(416,689,o),
(410,667,cs)
);
},
{
closed = 1;
nodes = (
(561,396,ls),
(593,395,o),
(614,421,o),
(614,464,cs),
(614,504,o),
(594,532,o),
(563,533,cs),
(68,554,ls),
(36,555,o),
(15,529,o),
(15,486,cs),
(15,445,o),
(35,417,o),
(66,416,cs)
);
},
{
closed = 1;
nodes = (
(221,137,o),
(378,140,o),
(535,145,cs),
(572,147,o),
(581,188,o),
(581,214,cs),
(581,257,o),
(559,283,o),
(521,282,cs),
(49,267,ls),
(16,266,o),
(3,231,o),
(3,198,cs),
(3,157,o),
(26,131,o),
(64,132,cs)
);
}
);
userData = {
com.hugojourdan.ColorFlow = {
"0" = 0;
"1" = 0;
"10" = 0;
"11" = 0;
"2" = 0;
"3" = 0;
"4" = 0;
"5" = 0;
"6" = 0;
"7" = 0;
"8" = 0;
"9" = 0;
};
};
width = 616;
},
{
layerId = "5FC9277C-B92C-4C3C-88AB-70E16AEC7C11";
shapes = (
{
closed = 1;
nodes = (
(167,441,o),
(135,253,o),
(103,64,cs),
(97,34,o),
(124,15,o),
(148,15,cs),
(165,15,o),
(180,23,o),
(183,44,cs),
(215,233,o),
(247,421,o),
(278,610,cs),
(284,640,o),
(258,659,o),
(233,659,cs),
(216,659,o),
(201,651,o),
(198,631,cs)
);
},
{
closed = 1;
nodes = (
(372,476,o),
(330,291,o),
(287,103,cs),
(280,74,o),
(304,55,o),
(330,55,cs),
(347,55,o),
(362,64,o),
(366,82,cs),
(410,269,o),
(451,456,o),
(494,642,cs),
(501,672,o),
(476,691,o),
(451,691,cs),
(433,691,o),
(418,683,o),
(414,663,cs)
);
},
{
closed = 1;
nodes = (
(535,413,ls),
(559,412,o),
(573,430,o),
(573,451,cs),
(573,473,o),
(559,490,o),
(535,491,cs),
(76,510,ls),
(52,511,o),
(38,493,o),
(38,473,cs),
(38,450,o),
(52,432,o),
(76,431,cs)
);
},
{
closed = 1;
nodes = (
(213,180,o),
(370,183,o),
(509,187,cs),
(531,188,o),
(540,201,o),
(541,216,cs),
(543,241,o),
(526,266,o),
(497,265,cs),
(61,253,ls),
(41,252,o),
(30,240,o),
(29,222,cs),
(26,199,o),
(44,174,o),
(74,174,cs)
);
}
);
userData = {
com.hugojourdan.ColorFlow = {
"0" = 0;
"1" = 0;
"10" = 0;
"11" = 0;
"2" = 0;
"3" = 0;
"4" = 0;
"5" = 0;
"6" = 0;
"7" = 0;
"8" = 0;
"9" = 0;
};
};
width = 607;
}
);
unicode = 35;
}
{
glyphname = percent;
kernLeft = percent;
kernRight = percent;
layers = (
{
layerId = m01;
shapes = (
{
closed = 1;
nodes = (
(735,-14,o),
(791,93,o),
(791,185,cs),
(791,268,o),
(739,397,o),
(619,397,cs),
(602,397,o),
(585,394,o),
(569,388,cs),
(562,386,o),
(559,381,o),
(559,374,cs),
(559,363,o),
(566,359,o),
(581,363,cs),
(595,366,o),
(608,370,o),
(619,370,cs),
(724,370,o),
(764,250,o),
(764,186,cs),
(764,97,o),
(711,12,o),
(630,12,cs),
(540,12,o),
(508,113,o),
(508,184,cs),
(508,237,o),
(512,309,o),
(577,357,cs),
(583,361,o),
(593,372,o),
(593,376,cs),
(593,384,o),
(590,388,o),
(586,388,cs),
(581,388,o),
(576,387,o),
(567,380,cs),
(498,328,o),
(481,264,o),
(481,181,cs),
(481,110,o),
(515,-14,o),
(629,-14,cs)
);
},
{
closed = 1;
nodes = (
(299,377,o),
(359,485,o),
(359,604,cs),
(359,706,o),
(294,792,o),
(198,792,cs),
(87,792,o),
(46,672,o),
(46,579,cs),
(46,461,o),
(97,377,o),
(200,377,cs)
);
},
{
closed = 1;
nodes = (
(73,691,o),
(124,766,o),
(199,766,cs),
(273,766,o),
(332,695,o),
(332,604,cs),
(332,489,o),
(276,403,o),
(192,403,cs),
(118,403,o),
(73,473,o),
(73,577,cs)
);
},
{
closed = 1;
nodes = (
(530,622,o),
(283,191,o),
(167,-20,cs),
(157,-39,o),
(155,-47,o),
(163,-51,cs),
(172,-56,o),
(182,-54,o),
(192,-36,cs),
(307,174,o),
(553,606,o),
(689,808,cs),
(700,825,o),
(698,832,o),
(691,836,cs),
(681,843,o),
(675,841,o),
(665,825,cs)
);
}
);
userData = {
com.hugojourdan.ColorFlow = {
"0" = 0;
"1" = 0;
"10" = 0;
"11" = 0;
"2" = 0;
"3" = 0;
"4" = 0;
"5" = 0;
"6" = 0;
"7" = 0;
"8" = 0;
"9" = 0;
};
};
width = 829;
},
{
layerId = m003;
shapes = (
{
closed = 1;
nodes = (
(807,-14,o),
(871,88,o),
(868,187,cs),
(865,299,o),
(812,399,o),
(675,399,cs),
(664,399,o),
(648,397,o),
(635,392,cs),
(618,386,o),
(608,373,o),
(608,358,cs),
(608,323,o),
(623,285,o),
(646,290,cs),
(656,293,o),
(667,294,o),
(675,294,cs),
(741,294,o),
(753,242,o),
(753,188,cs),
(753,136,o),
(731,92,o),
(684,92,cs),
(636,92,o),
(623,138,o),
(623,187,cs),
(623,225,o),
(630,256,o),
(653,280,cs),
(660,287,o),
(669,306,o),
(669,337,cs),
(669,366,o),
(647,376,o),
(632,376,cs),
(616,376,o),
(611,372,o),
(599,364,cs),
(537,325,o),
(508,261,o),
(508,184,cs),
(508,81,o),
(566,-14,o),
(683,-14,cs)
);
},
{
closed = 1;
nodes = (
(322,377,o),
(388,487,o),
(385,602,cs),
(381,706,o),
(318,792,o),
(197,792,cs),
(64,792,o),
(16,673,o),
(16,576,cs),
(16,459,o),
(72,377,o),
(198,377,cs)
);
},
{
closed = 1;
nodes = (
(128,646,o),
(151,687,o),
(198,687,cs),
(244,687,o),
(272,649,o),
(272,596,cs),
(272,541,o),
(251,482,o),
(192,482,cs),
(142,482,o),
(128,526,o),
(128,575,cs)
);
},
{
closed = 1;
nodes = (
(562,711,o),
(414,451,o),
(183,33,cs),
(160,-7,o),
(164,-35,o),
(196,-51,cs),
(235,-72,o),
(266,-63,o),
(287,-23,cs),
(473,326,o),
(618,584,o),
(727,754,cs),
(752,791,o),
(749,820,o),
(719,839,cs),
(683,865,o),
(652,857,o),
(627,817,cs)
);
}
);
userData = {
com.hugojourdan.ColorFlow = {
"0" = 0;
"1" = 0;
"10" = 0;
"11" = 0;
"2" = 0;
"3" = 0;
"4" = 0;
"5" = 0;
"6" = 0;
"7" = 0;
"8" = 0;
"9" = 0;
};
};
width = 876;
},
{
layerId = "5FC9277C-B92C-4C3C-88AB-70E16AEC7C11";
shapes = (
{
closed = 1;
nodes = (
(777,-14,o),
(842,96,o),
(842,186,cs),
(842,297,o),
(774,397,o),
(661,397,cs),
(646,397,o),
(635,395,o),
(620,390,cs),
(604,385,o),
(594,371,o),
(594,356,cs),
(594,334,o),
(608,317,o),
(631,322,cs),
(641,325,o),
(651,326,o),
(661,326,cs),
(720,326,o),
(767,275,o),
(767,187,cs),
(767,105,o),
(720,57,o),
(669,57,cs),
(616,57,o),
(579,107,o),
(579,186,cs),
(579,239,o),
(587,262,o),
(628,307,cs),
(636,315,o),
(641,329,o),
(641,343,cs),
(641,362,o),
(625,371,o),
(610,371,cs),
(605,371,o),
(597,368,o),
(588,362,cs),
(527,314,o),
(504,259,o),
(504,182,cs),
(504,89,o),
(564,-14,o),
(668,-14,cs)
);
},
{
closed = 1;
nodes = (
(312,378,o),
(369,497,o),
(369,602,cs),
(368,706,o),
(302,792,o),
(198,792,cs),
(84,792,o),
(34,674,o),
(34,577,cs),
(34,469,o),
(85,378,o),
(200,378,cs)
);
},
{
closed = 1;
nodes = (
(108,662,o),
(147,721,o),
(199,721,cs),
(252,721,o),
(295,672,o),
(295,596,cs),
(295,538,o),
(266,449,o),
(194,449,cs),
(142,449,o),
(108,495,o),
(108,575,cs)
);
},
{
closed = 1;
nodes = (
(535,628,o),
(294,231,o),
(170,1,cs),
(157,-24,o),
(162,-39,o),
(183,-51,cs),
(203,-61,o),
(223,-58,o),
(236,-32,cs),
(354,190,o),
(596,589,o),
(723,784,cs),
(737,809,o),
(732,825,o),
(711,836,cs),
(694,847,o),
(672,842,o),
(658,816,cs)
);
}
);
userData = {
com.hugojourdan.ColorFlow = {
"0" = 0;
"1" = 0;
"10" = 0;
"11" = 0;
"2" = 0;
"3" = 0;
"4" = 0;
"5" = 0;
"6" = 0;
"7" = 0;
"8" = 0;
"9" = 0;
};
};
width = 867.9;
}
);
unicode = 37;
}
{
glyphname = ampersand;
kernLeft = ampersand;
kernRight = ampersand;
layers = (
{
layerId = m01;
shapes = (
{
closed = 1;
nodes = (
(611,50,o),
(539,114,o),
(474,177,cs),
(418,231,o),
(367,285,o),
(346,311,cs),
(252,425,o),
(186,518,o),
(186,585,cs),
(186,658,o),
(243,726,o),
(315,726,cs),
(371,726,o),
(418,667,o),
(418,599,cs),
(418,540,o),
(363,488,o),
(264,408,cs),
(155,320,o),
(65,247,o),
(66,145,cs),
(67,47,o),
(147,-3,o),
(248,-3,cs),
(361,-3,o),
(425,46,o),
(498,143,cs),
(528,182,o),
(556,222,o),
(585,259,cs),
(607,287,o),
(613,294,o),
(622,306,cs),
(629,315,o),
(631,318,o),
(631,322,cs),
(631,331,o),
(621,338,o),
(616,338,cs),
(611,338,o),
(609,336,o),
(601,326,cs),
(560,276,o),
(515,216,o),
(475,162,cs),
(399,59,o),
(337,27,o),
(248,27,cs),
(154,27,o),
(98,73,o),
(98,143,cs),
(98,220,o),
(145,271,o),
(283,384,cs),
(376,460,o),
(449,520,o),
(449,597,cs),
(449,673,o),
(398,755,o),
(316,755,cs),
(231,755,o),
(154,677,o),
(154,586,cs),
(154,499,o),
(255,367,o),
(324,289,cs),
(376,230,o),
(530,67,o),
(630,3,cs),
(637,-1,o),
(651,6,o),
(651,18,cs),
(651,23,o),
(650,26,o),
(644,30,cs)
);
}
);
userData = {
com.hugojourdan.ColorFlow = {
"0" = 0;
"1" = 0;
"10" = 0;
"11" = 0;
"2" = 0;
"3" = 0;
"4" = 0;
"5" = 0;
"6" = 0;
"7" = 0;
"8" = 0;
"9" = 0;
};
};
width = 730;
},
{
layerId = m003;
shapes = (
{
closed = 1;
nodes = (
(687,188,o),
(625,223,o),
(557,270,cs),
(468,332,o),
(401,390,o),
(375,416,cs),
(307,482,o),
(274,531,o),
(274,568,cs),
(274,611,o),
(310,646,o),
(343,646,cs),
(384,646,o),
(406,623,o),
(406,598,cs),
(406,558,o),
(394,546,o),
(287,467,cs),
(174,384,o),
(36,262,o),
(36,143,cs),
(36,23,o),
(161,-18,o),
(274,-18,cs),
(450,-18,o),
(519,52,o),
(595,132,cs),
(623,161,o),
(648,191,o),
(670,220,cs),
(692,248,o),
(709,270,o),
(722,290,cs),
(731,304,o),
(734,316,o),
(734,325,cs),
(734,365,o),
(678,412,o),
(635,412,cs),
(626,412,o),
(611,410,o),
(603,400,cs),
(552,339,o),
(515,281,o),
(465,224,cs),
(395,145,o),
(353,125,o),
(295,125,cs),
(254,125,o),
(226,143,o),
(226,172,cs),
(226,217,o),
(305,281,o),
(386,344,cs),
(499,431,o),
(577,510,o),
(577,605,cs),
(577,686,o),
(486,780,o),
(369,780,cs),
(209,780,o),
(102,675,o),
(102,577,cs),
(102,483,o),
(146,411,o),
(255,298,cs),
(305,246,o),
(457,102,o),
(704,-7,cs),
(756,-30,o),
(813,28,o),
(813,90,cs),
(813,112,o),
(807,136,o),
(772,151,cs)
);
}
);
userData = {
com.hugojourdan.ColorFlow = {
"0" = 0;
"1" = 0;
"10" = 0;
"11" = 0;
"2" = 0;
"3" = 0;
"4" = 0;
"5" = 0;
"6" = 0;
"7" = 0;
"8" = 0;
"9" = 0;
};
};
width = 834;
},
{
layerId = "5FC9277C-B92C-4C3C-88AB-70E16AEC7C11";
shapes = (
{
closed = 1;
nodes = (
(656,98,o),
(579,156,o),
(508,214,cs),
(439,270,o),
(378,326,o),
(358,353,cs),
(276,467,o),
(241,539,o),
(241,583,cs),
(241,629,o),
(279,674,o),
(327,674,cs),
(363,674,o),
(390,639,o),
(390,599,cs),
(390,559,o),
(354,513,o),
(273,450,cs),
(165,367,o),
(62,249,o),
(63,145,cs),
(63,45,o),
(157,-4,o),
(260,-4,cs),
(379,-4,o),
(443,48,o),
(518,141,cs),
(547,179,o),
(574,219,o),
(603,255,cs),
(625,283,o),
(624,284,o),
(641,304,cs),
(649,313,o),
(653,323,o),
(653,332,cs),
(653,356,o),
(629,379,o),
(605,379,cs),
(596,379,o),
(586,377,o),
(578,367,cs),
(527,308,o),
(490,252,o),
(449,198,cs),
(375,104,o),
(335,80,o),
(262,80,cs),
(192,80,o),
(156,103,o),
(156,151,cs),
(156,220,o),
(235,305,o),
(315,370,cs),
(398,437,o),
(480,510,o),
(480,598,cs),
(480,674,o),
(416,758,o),
(330,758,cs),
(238,758,o),
(149,677,o),
(149,585,cs),
(149,497,o),
(234,366,o),
(304,281,cs),
(351,223,o),
(527,66,o),
(646,2,cs),
(680,-16,o),
(715,4,o),
(715,41,cs),
(715,55,o),
(707,69,o),
(693,77,cs)
);
}
);
userData = {
com.hugojourdan.ColorFlow = {
"0" = 0;
"1" = 0;
"10" = 0;
"11" = 0;
"2" = 0;
"3" = 0;
"4" = 0;
"5" = 0;
"6" = 0;
"7" = 0;
"8" = 0;
"9" = 0;
};
};
width = 760.2;
}
);
unicode = 38;
}
{
glyphname = asterisk;
kernLeft = superior;
kernRight = superior;
layers = (
{
layerId = m01;
shapes = (
{
closed = 1;
nodes = (
(254,477,ls),
(254,469,o),
(258,464,o),
(266,464,cs),
(274,464,o),
(282,469,o),
(282,478,cs),
(290,798,ls),
(290,806,o),
(286,810,o),
(278,810,cs),
(268,810,o),
(261,806,o),
(261,796,cs)
);
},
{
closed = 1;
nodes = (
(105,566,ls),
(100,562,o),
(98,558,o),
(98,554,cs),
(98,548,o),
(105,540,o),
(110,540,cs),
(113,540,o),
(114,540,o),
(118,542,c),
(221,612,o),
(325,681,o),
(428,751,cs),
(434,755,o),
(437,757,o),
(437,763,cs),
(437,769,o),
(432,776,o),
(425,776,cs),
(423,776,o),
(419,774,o),
(416,772,cs)
);
},
{
closed = 1;
nodes = (
(374,565,ls),
(383,559,o),
(384,558,o),
(388,558,cs),
(395,558,o),
(402,564,o),
(402,572,cs),
(402,576,o),
(398,580,o),
(393,584,cs),
(157,757,ls),
(154,759,o),
(152,761,o),
(148,761,cs),
(143,761,o),
(135,753,o),
(135,745,cs),
(135,741,o),
(138,738,o),
(144,734,cs)
);
}
);
userData = {
com.hugojourdan.ColorFlow = {
"0" = 0;
"1" = 0;
"10" = 0;
"11" = 0;
"2" = 0;
"3" = 0;
"4" = 0;
"5" = 0;
"6" = 0;
"7" = 0;
"8" = 0;
"9" = 0;
};
};
width = 507;
},
{
layerId = m003;
shapes = (
{
closed = 1;
nodes = (
(199,459,ls),
(198,427,o),
(231,407,o),
(267,407,cs),
(303,407,o),
(336,426,o),
(337,458,cs),
(345,790,ls),
(346,824,o),
(313,843,o),
(277,843,cs),
(240,843,o),
(207,825,o),
(206,792,cs)
);
},
{
closed = 1;
nodes = (
(67,584,ls),
(46,571,o),
(37,558,o),
(37,537,cs),
(37,505,o),
(66,465,o),
(99,465,cs),
(111,465,o),
(122,467,o),
(133,475,cs),
(239,543,o),
(383,626,o),
(465,684,cs),
(485,698,o),
(496,709,o),
(496,733,cs),
(496,766,o),
(469,803,o),
(434,803,cs),
(422,803,o),
(411,796,o),
(400,789,cs)
);
},
{
closed = 1;
nodes = (
(370,507,ls),
(383,499,o),
(399,492,o),
(412,492,cs),
(447,492,o),
(471,531,o),
(471,567,cs),
(471,588,o),
(462,600,o),
(442,613,cs),
(163,787,ls),
(152,794,o),
(141,800,o),
(128,800,cs),
(94,800,o),
(63,761,o),
(63,725,cs),
(63,703,o),
(73,692,o),
(93,680,cs)
);
}
);
userData = {
com.hugojourdan.ColorFlow = {
"0" = 0;
"1" = 0;
"10" = 0;
"11" = 0;
"2" = 0;
"3" = 0;
"4" = 0;
"5" = 0;
"6" = 0;
"7" = 0;
"8" = 0;
"9" = 0;
};
};
width = 507;
},
{
layerId = "5FC9277C-B92C-4C3C-88AB-70E16AEC7C11";
shapes = (
{
closed = 1;
nodes = (
(231,475,ls),
(230,453,o),
(248,440,o),
(267,440,cs),
(286,440,o),
(305,453,o),
(306,475,cs),
(314,796,ls),
(315,820,o),
(295,831,o),
(277,831,cs),
(257,831,o),
(239,821,o),
(238,797,cs)
);
},
{
closed = 1;
nodes = (
(91,582,ls),
(79,574,o),
(74,563,o),
(74,552,cs),
(74,535,o),
(90,515,o),
(109,515,cs),
(116,515,o),
(122,517,o),
(129,520,cs),
(232,590,o),
(340,660,o),
(442,729,cs),
(454,737,o),
(460,747,o),
(460,760,cs),
(460,778,o),
(446,796,o),
(425,796,cs),
(419,796,o),
(412,793,o),
(405,789,cs)
);
},
{
closed = 1;
nodes = (
(369,541,ls),
(377,536,o),
(384,534,o),
(390,534,cs),
(410,534,o),
(425,551,o),
(425,572,cs),
(425,583,o),
(420,593,o),
(409,601,cs),
(166,775,ls),
(160,780,o),
(153,782,o),
(146,782,cs),
(127,782,o),
(112,763,o),
(112,743,cs),
(112,731,o),
(117,722,o),
(128,714,cs)
);
}
);
userData = {
com.hugojourdan.ColorFlow = {
"0" = 0;
"1" = 0;
"10" = 0;
"11" = 0;
"2" = 0;
"3" = 0;
"4" = 0;
"5" = 0;
"6" = 0;
"7" = 0;
"8" = 0;
"9" = 0;
};
};
width = 507;
}
);
unicode = 42;
}
{
glyphname = plus;
kernLeft = hyphen;
kernRight = hyphen;
layers = (
{
layerId = m01;
shapes = (
{
closed = 1;
nodes = (
(341,224,o),
(345,438,o),
(340,537,cs),
(340,550,o),
(336,556,o),
(327,556,cs),
(316,556,o),
(311,550,o),
(311,537,cs),
(315,430,o),
(311,216,o),
(310,110,cs),
(310,96,o),
(314,91,o),
(326,91,cs),
(335,91,o),
(339,96,o),
(339,110,cs)
);
},
{
closed = 1;
nodes = (
(228,309,o),
(502,307,o),
(521,307,cs),
(531,307,o),
(536,311,o),
(536,320,cs),
(536,328,o),
(531,332,o),
(521,332,cs),
(494,333,o),
(220,337,o),
(134,336,cs),
(124,336,o),
(119,331,o),
(119,321,cs),
(119,313,o),
(124,309,o),
(134,309,cs)
);
}
);
userData = {
com.hugojourdan.ColorFlow = {
"0" = 0;
"1" = 0;
"10" = 0;
"11" = 0;
"2" = 0;
"3" = 0;
"4" = 0;
"5" = 0;
"6" = 0;
"7" = 0;
"8" = 0;
"9" = 0;
};
};
width = 650;
},
{
layerId = m003;
shapes = (
{
closed = 1;
nodes = (
(404,209,o),
(407,456,o),
(405,518,cs),
(404,558,o),
(379,577,o),
(327,577,cs),
(274,577,o),
(249,558,o),
(250,518,cs),
(251,447,o),
(248,201,o),
(247,131,cs),
(247,92,o),
(274,72,o),
(326,72,cs),
(375,72,o),
(402,92,o),
(403,131,cs)
);
},
{
closed = 1;
nodes = (
(228,249,o),
(512,247,o),
(531,247,cs),
(563,247,o),
(580,272,o),
(580,320,cs),
(580,367,o),
(563,392,o),
(531,392,cs),
(494,393,o),
(220,397,o),
(129,396,cs),
(94,396,o),
(75,370,o),
(75,321,cs),
(75,274,o),
(94,249,o),
(129,249,cs)
);
}
);
userData = {
com.hugojourdan.ColorFlow = {
"0" = 0;
"1" = 0;
"10" = 0;
"11" = 0;
"2" = 0;
"3" = 0;
"4" = 0;
"5" = 0;
"6" = 0;
"7" = 0;
"8" = 0;
"9" = 0;
};
};
width = 650;
},
{
layerId = "5FC9277C-B92C-4C3C-88AB-70E16AEC7C11";
shapes = (
{
closed = 1;
nodes = (
(369,223,o),
(373,440,o),
(369,517,cs),
(368,545,o),
(348,558,o),
(325,558,cs),
(302,558,o),
(280,545,o),
(281,517,cs),
(283,432,o),
(280,215,o),
(279,130,cs),
(279,103,o),
(301,89,o),
(324,89,cs),
(347,89,o),
(367,103,o),
(367,130,cs)
);
},
{
closed = 1;
nodes = (
(226,281,o),
(501,279,o),
(520,279,cs),
(547,279,o),
(560,297,o),
(560,320,cs),
(560,343,o),
(547,361,o),
(520,361,cs),
(492,362,o),
(218,366,o),
(132,365,cs),
(105,365,o),
(91,344,o),
(91,321,cs),
(91,298,o),
(105,281,o),
(132,281,cs)
);
}
);
userData = {
com.hugojourdan.ColorFlow = {
"0" = 0;
"1" = 0;
"10" = 0;
"11" = 0;
"2" = 0;
"3" = 0;
"4" = 0;
"5" = 0;
"6" = 0;
"7" = 0;
"8" = 0;
"9" = 0;
};
};
width = 650;
}
);
unicode = 43;
}
{
glyphname = comma;
kernLeft = comma;
kernRight = comma;
layers = (
{
background = {
shapes = (
{
closed = 1;
nodes = (
(51,-19,o),
(39,-62,o),
(11,-98,cs),
(1,-110,o),
(-7,-127,o),
(-7,-139,cs),
(-7,-160,o),
(9,-176,o),
(31,-176,cs),
(40,-176,o),
(53,-174,o),
(62,-164,cs),
(119,-104,o),
(137,-19,o),
(138,61,cs),
(138,81,o),
(125,101,o),
(98,101,cs),
(78,101,o),
(59,85,o),
(57,61,cs)
);
}
);
};
layerId = m01;
shapes = (
{
closed = 1;
nodes = (
(95,-25,o),
(76,-75,o),
(47,-117,cs),
(40,-127,o),
(36,-134,o),
(36,-141,cs),
(36,-149,o),
(42,-155,o),
(53,-155,cs),
(60,-155,o),
(66,-152,o),
(76,-136,cs),
(121,-66,o),
(133,-23,o),
(131,50,cs),
(130,72,o),
(121,82,o),
(106,82,cs),
(94,82,o),
(87,74,o),
(89,50,cs)
);
}
);
userData = {
com.hugojourdan.ColorFlow = {
"0" = 0;
"1" = 0;
"10" = 0;
"11" = 0;
"2" = 0;
"3" = 0;
"4" = 0;
"5" = 0;
"6" = 0;
"7" = 0;
"8" = 0;
"9" = 0;
};
};
width = 234;
},
{
background = {
shapes = (
{
closed = 1;
nodes = (
(106,55,o),
(104,40,o),
(102,25,c),
(103,28,o),
(103,32,o),
(104,36,c),
(99,3,o),
(93,-28,o),
(80,-58,c),
(82,-55,o),
(83,-52,o),
(84,-49,c),
(78,-64,o),
(70,-77,o),
(61,-90,c),
(19,-124,o),
(60,-194,o),
(112,-154,c),
(169,-94,o),
(182,-9,o),
(188,71,c),
(189,80,o),
(183,93,o),
(176,99,c),
(152,125,o),
(107,106,o),
(107,71,c)
);
}
);
};
layerId = m003;
shapes = (
{
closed = 1;
nodes = (
(43,9,o),
(30,-28,o),
(5,-78,cs),
(-1,-89,o),
(-10,-107,o),
(-10,-124,cs),
(-10,-148,o),
(30,-179,o),
(58,-179,cs),
(80,-179,o),
(98,-167,o),
(106,-158,cs),
(158,-103,o),
(201,-8,o),
(201,83,cs),
(201,151,o),
(168,169,o),
(116,169,cs),
(71,169,o),
(39,155,o),
(41,83,cs)
);
}
);
userData = {
com.hugojourdan.ColorFlow = {
"0" = 0;
"1" = 0;
"10" = 0;
"11" = 0;
"2" = 0;
"3" = 0;
"4" = 0;
"5" = 0;
"6" = 0;
"7" = 0;
"8" = 0;
"9" = 0;
};
};
width = 248;
},
{
layerId = "5FC9277C-B92C-4C3C-88AB-70E16AEC7C11";
shapes = (
{
closed = 1;
nodes = (
(86,-16,o),
(78,-62,o),
(50,-100,cs),
(40,-111,o),
(32,-126,o),
(32,-138,cs),
(32,-160,o),
(53,-176,o),
(71,-176,cs),
(81,-176,o),
(94,-173,o),
(103,-163,cs),
(160,-104,o),
(182,-18,o),
(183,63,cs),
(183,88,o),
(166,108,o),
(137,108,cs),
(105,108,o),
(88,92,o),
(88,63,cs)
);
}
);
userData = {
com.hugojourdan.ColorFlow = {
"0" = 0;
"1" = 0;
"10" = 0;
"11" = 0;
"2" = 0;
"3" = 0;
"4" = 0;
"5" = 0;
"6" = 0;
"7" = 0;
"8" = 0;
"9" = 0;
};
};
width = 267.8;
}
);
unicode = 44;
}
{
color = 4;
glyphname = zero;
kernLeft = zero;
kernRight = zero;
layers = (
{
layerId = m01;
shapes = (
{
closed = 1;
nodes = (
(552,-16,o),
(654,152,o),
(654,346,cs),
(654,498,o),
(593,663,o),
(460,755,c),
(414,771,o),
(388,775,o),
(357,775,cs),
(166,775,o),
(62,571,o),
(62,372,cs),
(62,169,o),
(164,-16,o),
(366,-16,cs)
);
},
{
closed = 1;
nodes = (
(95,510,o),
(162,745,o),
(358,745,cs),
(381,745,o),
(405,741,o),
(426,735,c),
(543,677,o),
(621,521,o),
(621,342,cs),
(621,150,o),
(519,14,o),
(366,14,cs),
(176,14,o),
(95,197,o),
(95,380,cs)
);
}
);
userData = {
com.hugojourdan.ColorFlow = {
"0" = 0;
"1" = 0;
"10" = 0;
"11" = 0;
"2" = 0;
"3" = 0;
"4" = 0;
"5" = 0;
"6" = 0;
"7" = 0;
"8" = 0;
"9" = 0;
};
};
width = 709;
},
{
background = {
shapes = (
{
closed = 1;
nodes = (
(438,-13,o),
(489,0,o),
(533,27,c),
(632,97,o),
(677,226,o),
(677,359,cs),
(677,527,o),
(605,702,o),
(480,778,c),
(471,782,o),
(464,784,o),
(457,784,cs),
(434,784,o),
(420,764,o),
(420,743,cs),
(420,726,o),
(430,707,o),
(454,699,c),
(458,697,o),
(462,694,o),
(465,691,cs),
(468,689,o),
(459,695,o),
(460,695,c),
(508,656,o),
(526,624,o),
(555,562,c),
(553,565,o),
(552,569,o),
(550,572,c),
(570,525,o),
(583,475,o),
(590,424,c),
(590,428,o),
(589,431,o),
(589,435,c),
(592,408,o),
(594,382,o),
(594,355,cs),
(594,331,o),
(588,261,o),
(590,284,cs),
(591,294,ls),
(595,330,o),
(577,222,o),
(563,188,cs),
(564,191,o),
(565,194,o),
(567,198,cs),
(558,177,o),
(548,158,o),
(535,140,cs),
(534,138,o),
(529,132,o),
(529,132,c),
(534,138,ls),
(545,152,o),
(511,111,o),
(498,101,cs),
(499,102,o),
(501,104,o),
(503,105,c),
(490,95,o),
(475,87,o),
(460,80,c),
(463,82,o),
(467,83,o),
(470,85,c),
(451,77,o),
(431,72,o),
(411,69,c),
(422,70,l),
(410,69,o),
(399,68,o),
(387,68,cs),
(375,68,o),
(363,69,o),
(350,70,cs),
(354,70,o),
(357,70,o),
(361,69,c),
(336,72,o),
(312,79,o),
(290,89,c),
(293,87,o),
(296,86,o),
(299,85,cs),
(280,93,o),
(261,104,o),
(244,116,cs),
(229,127,o),
(197,162,o),
(180,208,cs),
(181,205,o),
(183,202,o),
(184,199,cs),
(167,240,o),
(156,283,o),
(149,327,c),
(150,324,o),
(150,320,o),
(151,317,c),
(148,342,o),
(146,367,o),
(146,393,cs),
(146,417,o),
(156,490,o),
(151,466,cs),
(149,456,ls),
(141,415,o),
(165,538,o),
(181,577,cs),
(180,574,o),
(179,570,o),
(177,567,c),
(212,641,o),
(235,673,o),
(303,705,cs),
(299,703,o),
(296,702,o),
(293,701,cs),
(311,708,o),
(330,713,o),
(349,716,c),
(346,715,o),
(342,715,o),
(338,714,cs),
(349,716,o),
(360,717,o),
(371,717,cs),
(384,717,o),
(396,716,o),
(408,714,c),
(405,715,o),
(401,715,o),
(397,715,c),
(415,713,o),
(432,709,o),
(448,704,cs),
(453,703,o),
(457,703,o),
(460,703,cs),
(484,703,o),
(499,724,o),
(499,745,cs),
(499,761,o),
(490,777,o),
(470,783,cs),
(434,793,o),
(401,798,o),
(370,798,cs),
(169,798,o),
(65,589,o),
(65,385,cs),
(65,299,o),
(83,215,o),
(120,147,c),
(167,46,o),
(278,-13,o),
(387,-13,cs)
);
}
);
};
layerId = m003;
shapes = (
{
closed = 1;
nodes = (
(614,-16,o),
(716,152,o),
(716,346,cs),
(716,498,o),
(655,669,o),
(522,755,c),
(476,770,o),
(400,775,o),
(369,775,cs),
(138,775,o),
(34,571,o),
(34,372,cs),
(34,169,o),
(136,-16,o),
(378,-16,cs)
);
},
{
closed = 1;
nodes = (
(211,453,o),
(232,617,o),
(370,617,cs),
(388,617,o),
(407,614,o),
(424,609,c),
(500,568,o),
(527,458,o),
(527,350,cs),
(527,216,o),
(466,141,o),
(376,141,cs),
(258,141,o),
(211,261,o),
(211,380,cs)
);
}
);
userData = {
com.hugojourdan.ColorFlow = {
"0" = 0;
"1" = 0;
"10" = 0;
"11" = 0;
"2" = 0;
"3" = 0;
"4" = 0;
"5" = 0;
"6" = 0;
"7" = 0;
"8" = 0;
"9" = 0;
};
};
width = 744;
},
{
layerId = "5FC9277C-B92C-4C3C-88AB-70E16AEC7C11";
shapes = (
{
closed = 1;
nodes = (
(576,-16,o),
(678,152,o),
(678,346,cs),
(678,498,o),
(617,669,o),
(484,755,c),
(438,770,o),
(398,775,o),
(367,775,cs),
(163,775,o),
(59,571,o),
(59,372,cs),
(59,169,o),
(161,-16,o),
(376,-16,cs)
);
},
{
closed = 1;
nodes = (
(150,470,o),
(188,689,o),
(368,689,cs),
(391,689,o),
(414,685,o),
(435,679,c),
(529,628,o),
(585,476,o),
(585,343,cs),
(585,178,o),
(507,70,o),
(376,70,cs),
(208,70,o),
(150,234,o),
(150,380,cs)
);
}
);
userData = {
com.hugojourdan.ColorFlow = {
"0" = 0;
"1" = 0;
"10" = 0;
"11" = 0;
"2" = 0;
"3" = 0;
"4" = 0;
"5" = 0;
"6" = 0;
"7" = 0;
"8" = 0;
"9" = 0;
};
};
width = 731.4;
}
);
unicode = 48;
}
{
color = 4;
glyphname = two;
kernLeft = two;
kernRight = two;
layers = (
{
layerId = m01;
shapes = (
{
closed = 1;
nodes = (
(69,543,o),
(71,536,o),
(83,536,cs),
(92,536,o),
(98,539,o),
(99,550,cs),
(114,661,o),
(212,739,o),
(315,739,cs),
(454,739,o),
(540,649,o),
(540,513,cs),
(540,356,o),
(319,159,o),
(106,29,cs),
(91,20,o),
(88,14,o),
(88,6,cs),
(88,-3,o),
(94,-12,o),
(104,-12,cs),
(114,-12,o),
(122,-9,o),
(138,5,c),
(157,10,o),
(250,19,o),
(303,19,cs),
(410,19,o),
(512,2,o),
(582,-10,cs),
(594,-12,o),
(603,-8,o),
(603,3,cs),
(603,13,o),
(598,18,o),
(587,20,cs),
(502,36,o),
(323,59,o),
(184,43,c),
(422,207,o),
(573,364,o),
(573,519,cs),
(573,666,o),
(470,769,o),
(313,769,cs),
(202,769,o),
(80,675,o),
(69,556,c)
);
}
);
userData = {
com.hugojourdan.ColorFlow = {
"0" = 0;
"1" = 0;
"10" = 0;
"11" = 0;
"2" = 0;
"3" = 0;
"4" = 0;
"5" = 0;
"6" = 0;
"7" = 0;
"8" = 0;
"9" = 0;
};
};
width = 669;
},
{
layerId = m003;
shapes = (
{
closed = 1;
nodes = (
(45,510,o),
(70,488,o),
(125,488,cs),
(186,488,o),
(201,508,o),
(207,530,cs),
(223,584,o),
(262,621,o),
(320,621,cs),
(391,621,o),
(426,584,o),
(426,499,cs),
(426,371,o),
(256,244,o),
(99,142,cs),
(61,118,o),
(50,84,o),
(65,38,cs),
(77,2,o),
(104,-15,o),
(133,-15,cs),
(173,-15,o),
(203,3,o),
(222,19,c),
(248,24,o),
(302,24,o),
(341,23,cs),
(434,20,o),
(511,4,o),
(572,-9,cs),
(622,-19,o),
(660,-2,o),
(674,61,cs),
(687,120,o),
(661,145,o),
(608,159,cs),
(555,173,o),
(502,182,o),
(391,181,c),
(486,261,o),
(614,364,o),
(614,524,cs),
(614,676,o),
(482,769,o),
(332,769,cs),
(166,769,o),
(56,655,o),
(45,545,c)
);
}
);
userData = {
com.hugojourdan.ColorFlow = {
"0" = 0;
"1" = 0;
"10" = 0;
"11" = 0;
"2" = 0;
"3" = 0;
"4" = 0;
"5" = 0;
"6" = 0;
"7" = 0;
"8" = 0;
"9" = 0;
};
};
width = 699;
},
{
layerId = "5FC9277C-B92C-4C3C-88AB-70E16AEC7C11";
shapes = (
{
closed = 1;
nodes = (
(67,528,o),
(87,513,o),
(111,513,cs),
(134,513,o),
(151,526,o),
(155,548,cs),
(173,632,o),
(257,684,o),
(333,684,cs),
(443,684,o),
(513,607,o),
(513,512,cs),
(513,368,o),
(304,181,o),
(111,66,cs),
(93,56,o),
(86,39,o),
(88,25,cs),
(89,2,o),
(109,-15,o),
(133,-15,cs),
(148,-15,o),
(163,-10,o),
(182,6,c),
(201,11,o),
(264,20,o),
(316,19,cs),
(421,19,o),
(521,1,o),
(590,-10,cs),
(617,-14,o),
(645,3,o),
(646,32,cs),
(647,58,o),
(629,74,o),
(598,79,cs),
(513,93,o),
(418,107,o),
(307,105,c),
(462,213,o),
(604,364,o),
(604,524,cs),
(604,676,o),
(472,769,o),
(332,769,cs),
(202,769,o),
(78,673,o),
(67,555,c)
);
}
);
userData = {
com.hugojourdan.ColorFlow = {
"0" = 0;
"1" = 0;
"10" = 0;
"11" = 0;
"2" = 0;
"3" = 0;
"4" = 0;
"5" = 0;
"6" = 0;
"7" = 0;
"8" = 0;
"9" = 0;
};
};
width = 708;
}
);
unicode = 50;
}
{
color = 4;
glyphname = three;
kernLeft = three;
kernRight = three;
layers = (
{
layerId = m01;
shapes = (
{
closed = 1;
nodes = (
(108,625,o),
(111,628,o),
(116,635,cs),
(172,712,o),
(235,747,o),
(290,747,cs),
(424,747,o),
(473,634,o),
(473,536,cs),
(473,466,o),
(436,422,o),
(378,399,c),
(299,409,o),
(232,392,o),
(201,378,cs),
(197,376,o),
(190,371,o),
(190,361,cs),
(190,352,o),
(197,347,o),
(208,345,cs),
(246,338,o),
(330,351,o),
(383,370,c),
(488,357,o),
(543,295,o),
(543,208,cs),
(543,108,o),
(493,16,o),
(346,16,cs),
(265,16,o),
(180,45,o),
(114,114,cs),
(108,120,o),
(105,123,o),
(99,123,cs),
(92,123,o),
(85,117,o),
(85,109,cs),
(85,104,o),
(87,99,o),
(97,89,cs),
(171,16,o),
(258,-14,o),
(344,-14,cs),
(502,-14,o),
(576,88,o),
(576,195,cs),
(576,281,o),
(542,357,o),
(427,392,c),
(488,431,o),
(505,485,o),
(505,534,cs),
(505,646,o),
(444,777,o),
(296,777,cs),
(235,777,o),
(186,759,o),
(119,687,cs),
(100,667,o),
(88,649,o),
(88,638,cs),
(88,630,o),
(94,625,o),
(102,625,cs)
);
}
);
userData = {
com.hugojourdan.ColorFlow = {
"0" = 0;
"1" = 0;
"10" = 0;
"11" = 0;
"2" = 0;
"3" = 0;
"4" = 0;
"5" = 0;
"6" = 0;
"7" = 0;
"8" = 0;
"9" = 0;
};
};
width = 641;
},
{
background = {
shapes = (
{
closed = 1;
nodes = (
(125,593,o),
(143,606,o),
(153,619,cs),
(188,664,o),
(230,699,o),
(285,699,cs),
(384,699,o),
(430,601,o),
(430,536,cs),
(430,488,o),
(412,447,o),
(373,424,c),
(319,431,o),
(265,426,o),
(222,411,cs),
(191,400,o),
(175,381,o),
(175,360,cs),
(175,343,o),
(188,327,o),
(216,322,cs),
(248,316,o),
(325,320,o),
(378,345,c),
(462,332,o),
(501,272,o),
(501,208,cs),
(501,141,o),
(469,64,o),
(351,64,cs),
(274,64,o),
(190,108,o),
(173,125,cs),
(151,148,o),
(134,158,o),
(117,158,cs),
(95,158,o),
(80,142,o),
(80,121,cs),
(80,111,o),
(82,99,o),
(92,89,cs),
(166,16,o),
(263,-14,o),
(349,-14,cs),
(507,-14,o),
(581,88,o),
(581,195,cs),
(581,281,o),
(541,360,o),
(454,398,c),
(493,436,o),
(510,485,o),
(510,534,cs),
(510,646,o),
(433,777,o),
(291,777,cs),
(230,777,o),
(170,757,o),
(102,687,cs),
(83,667,o),
(73,649,o),
(73,633,cs),
(73,610,o),
(90,593,o),
(110,593,cs)
);
}
);
};
layerId = m003;
shapes = (
{
closed = 1;
nodes = (
(143,531,o),
(161,544,o),
(171,557,cs),
(206,602,o),
(245,629,o),
(294,629,cs),
(343,629,o),
(384,593,o),
(384,536,cs),
(384,503,o),
(367,467,o),
(333,444,c),
(294,446,o),
(265,445,o),
(222,431,cs),
(191,421,o),
(159,401,o),
(159,360,cs),
(159,323,o),
(188,307,o),
(216,302,cs),
(248,296,o),
(301,299,o),
(343,319,c),
(377,307,o),
(420,280,o),
(420,226,cs),
(420,177,o),
(377,135,o),
(314,135,cs),
(255,135,o),
(223,157,o),
(204,179,cs),
(180,207,o),
(153,222,o),
(130,222,cs),
(89,222,o),
(42,166,o),
(42,126,cs),
(42,102,o),
(52,89,o),
(65,76,cs),
(136,6,o),
(239,-14,o),
(325,-14,cs),
(523,-14,o),
(621,88,o),
(621,207,cs),
(621,290,o),
(581,360,o),
(467,398,c),
(519,429,o),
(561,485,o),
(561,557,cs),
(561,667,o),
(468,777,o),
(305,777,cs),
(230,777,o),
(161,760,o),
(87,693,cs),
(66,674,o),
(42,650,o),
(42,624,cs),
(42,550,o),
(108,531,o),
(128,531,cs)
);
}
);
userData = {
com.hugojourdan.ColorFlow = {
"0" = 0;
"1" = 0;
"10" = 0;
"11" = 0;
"2" = 0;
"3" = 0;
"4" = 0;
"5" = 0;
"6" = 0;
"7" = 0;
"8" = 0;
"9" = 0;
};
};
width = 653;
},
{
layerId = "5FC9277C-B92C-4C3C-88AB-70E16AEC7C11";
shapes = (
{
closed = 1;
nodes = (
(140,587,o),
(158,600,o),
(168,613,cs),
(203,658,o),
(245,692,o),
(299,692,cs),
(393,692,o),
(439,600,o),
(439,536,cs),
(439,490,o),
(421,449,o),
(383,426,c),
(330,433,o),
(279,428,o),
(236,413,cs),
(205,402,o),
(187,383,o),
(187,360,cs),
(187,341,o),
(202,325,o),
(230,320,cs),
(262,314,o),
(336,318,o),
(388,342,c),
(467,330,o),
(506,273,o),
(506,210,cs),
(506,145,o),
(473,71,o),
(352,71,cs),
(277,71,o),
(198,113,o),
(181,130,cs),
(158,154,o),
(140,164,o),
(123,164,cs),
(99,164,o),
(81,144,o),
(81,122,cs),
(81,110,o),
(84,98,o),
(94,88,cs),
(168,15,o),
(265,-14,o),
(351,-14,cs),
(522,-14,o),
(599,88,o),
(599,196,cs),
(599,282,o),
(559,360,o),
(469,398,c),
(509,435,o),
(529,485,o),
(529,536,cs),
(529,648,o),
(450,777,o),
(306,777,cs),
(244,777,o),
(183,757,o),
(114,688,cs),
(95,668,o),
(83,649,o),
(83,632,cs),
(83,604,o),
(105,587,o),
(125,587,cs)
);
}
);
userData = {
com.hugojourdan.ColorFlow = {
"0" = 0;
"1" = 0;
"10" = 0;
"11" = 0;
"2" = 0;
"3" = 0;
"4" = 0;
"5" = 0;
"6" = 0;
"7" = 0;
"8" = 0;
"9" = 0;
};
};
width = 660.2;
}
);
unicode = 51;
}
{
color = 4;
glyphname = four;
kernLeft = four;
kernRight = four;
layers = (
{
layerId = m01;
shapes = (
{
closed = 1;
nodes = (
(557,189,o),
(566,193,o),
(566,204,cs),
(566,216,o),
(561,220,o),
(549,220,cs),
(368,226,o),
(203,231,o),
(70,236,c),
(74,233,l),
(146,401,o),
(201,539,o),
(280,746,cs),
(282,751,o),
(286,762,o),
(286,768,cs),
(286,775,o),
(281,778,o),
(274,778,cs),
(261,778,o),
(256,769,o),
(249,749,cs),
(196,609,o),
(73,307,o),
(59,275,cs),
(52,259,o),
(42,236,o),
(42,223,cs),
(42,212,o),
(47,208,o),
(61,208,cs),
(206,206,o),
(479,191,o),
(532,189,cs)
);
},
{
closed = 1;
nodes = (
(460,-18,o),
(464,-12,o),
(464,3,cs),
(466,241,o),
(470,299,o),
(494,582,cs),
(496,596,o),
(492,602,o),
(481,602,cs),
(470,602,o),
(465,598,o),
(464,586,cs),
(446,391,o),
(434,202,o),
(433,3,cs),
(433,-12,o),
(437,-18,o),
(449,-18,cs)
);
}
);
userData = {
com.hugojourdan.ColorFlow = {
"0" = 0;
"1" = 0;
"10" = 0;
"11" = 0;
"2" = 0;
"3" = 0;
"4" = 0;
"5" = 0;
"6" = 0;
"7" = 0;
"8" = 0;
"9" = 0;
};
};
width = 630;
},
{
layerId = m003;
shapes = (
{
closed = 1;
nodes = (
(633,169,o),
(677,177,o),
(677,260,cs),
(677,313,o),
(664,327,o),
(614,329,cs),
(433,334,o),
(256,339,o),
(123,344,c),
(225,303,l),
(297,471,o),
(318,509,o),
(384,681,cs),
(389,694,o),
(391,705,o),
(391,718,cs),
(391,754,o),
(349,785,o),
(292,785,cs),
(242,785,o),
(227,769,o),
(214,735,cs),
(167,609,o),
(78,413,o),
(50,352,cs),
(43,336,o),
(14,288,o),
(14,246,cs),
(14,213,o),
(29,189,o),
(83,187,cs),
(181,182,o),
(574,171,o),
(604,170,cs)
);
},
{
closed = 1;
nodes = (
(539,-18,o),
(559,3,o),
(559,41,cs),
(561,249,o),
(571,365,o),
(587,528,cs),
(593,586,o),
(558,602,o),
(498,602,cs),
(459,602,o),
(408,585,o),
(403,536,cs),
(389,382,o),
(379,192,o),
(378,41,cs),
(378,-5,o),
(408,-18,o),
(469,-18,cs)
);
}
);
userData = {
com.hugojourdan.ColorFlow = {
"0" = 0;
"1" = 0;
"10" = 0;
"11" = 0;
"2" = 0;
"3" = 0;
"4" = 0;
"5" = 0;
"6" = 0;
"7" = 0;
"8" = 0;
"9" = 0;
};
};
width = 687;
},
{
layerId = "5FC9277C-B92C-4C3C-88AB-70E16AEC7C11";
shapes = (
{
closed = 1;
nodes = (
(573,178,o),
(602,186,o),
(602,224,cs),
(602,250,o),
(586,264,o),
(560,265,cs),
(400,271,o),
(241,276,o),
(108,281,c),
(133,240,l),
(205,408,o),
(257,537,o),
(323,709,cs),
(328,722,o),
(330,733,o),
(330,737,cs),
(330,762,o),
(307,779,o),
(282,779,cs),
(263,779,o),
(248,769,o),
(240,748,cs),
(188,609,o),
(65,319,o),
(53,283,cs),
(47,267,o),
(39,248,o),
(39,234,cs),
(39,215,o),
(50,198,o),
(81,197,cs),
(202,191,o),
(514,180,o),
(544,179,cs)
);
},
{
closed = 1;
nodes = (
(479,-18,o),
(499,-4,o),
(499,23,cs),
(501,242,o),
(505,306,o),
(527,545,cs),
(529,576,o),
(513,602,o),
(483,602,cs),
(460,602,o),
(438,585,o),
(435,559,cs),
(419,382,o),
(409,201,o),
(408,23,cs),
(408,-5,o),
(429,-18,o),
(454,-18,cs)
);
}
);
userData = {
com.hugojourdan.ColorFlow = {
"0" = 0;
"1" = 0;
"10" = 0;
"11" = 0;
"2" = 0;
"3" = 0;
"4" = 0;
"5" = 0;
"6" = 0;
"7" = 0;
"8" = 0;
"9" = 0;
};
};
width = 660.9;
}
);
unicode = 52;
}
{
color = 4;
glyphname = five;
kernLeft = five;
kernRight = five;
layers = (
{
layerId = m01;
shapes = (
{
closed = 1;
nodes = (
(169,608,o),
(152,484,o),
(126,361,cs),
(121,338,o),
(128,329,o),
(138,329,cs),
(144,329,o),
(151,332,o),
(158,338,cs),
(217,390,o),
(291,420,o),
(350,420,cs),
(466,420,o),
(542,348,o),
(542,239,cs),
(542,120,o),
(479,12,o),
(344,12,cs),
(242,12,o),
(188,45,o),
(162,56,cs),
(156,59,o),
(151,60,o),
(148,60,cs),
(138,60,o),
(134,52,o),
(134,46,cs),
(134,40,o),
(135,37,o),
(142,33,cs),
(189,6,o),
(261,-18,o),
(342,-18,cs),
(496,-18,o),
(574,100,o),
(574,237,cs),
(574,366,o),
(486,450,o),
(352,450,cs),
(287,450,o),
(207,418,o),
(146,365,c),
(157,357,l),
(183,485,o),
(215,682,o),
(222,734,cs),
(224,745,o),
(217,751,o),
(210,751,cs),
(202,751,o),
(194,746,o),
(192,733,cs)
);
},
{
closed = 1;
nodes = (
(177,738,o),
(182,731,o),
(194,731,cs),
(319,726,o),
(434,733,o),
(526,742,cs),
(538,743,o),
(543,747,o),
(543,759,cs),
(543,768,o),
(538,773,o),
(526,772,cs),
(415,761,o),
(272,757,o),
(193,762,cs),
(184,763,o),
(177,754,o),
(177,745,cs)
);
}
);
userData = {
com.hugojourdan.ColorFlow = {
"0" = 0;
"1" = 0;
"10" = 0;
"11" = 0;
"2" = 0;
"3" = 0;
"4" = 0;
"5" = 0;
"6" = 0;
"7" = 0;
"8" = 0;
"9" = 0;
};
};
width = 654;
},
{
layerId = m003;
shapes = (
{
closed = 1;
nodes = (
(116,588,o),
(100,486,o),
(66,330,cs),
(53,271,o),
(89,260,o),
(114,260,cs),
(120,260,o),
(129,263,o),
(136,268,cs),
(197,318,o),
(236,337,o),
(297,337,cs),
(362,337,o),
(397,293,o),
(397,242,cs),
(397,190,o),
(372,131,o),
(295,131,cs),
(233,131,o),
(192,149,o),
(144,173,cs),
(133,178,o),
(121,183,o),
(110,183,cs),
(85,183,o),
(49,120,o),
(49,85,cs),
(49,71,o),
(57,54,o),
(69,46,cs),
(127,5,o),
(224,-18,o),
(305,-18,cs),
(466,-18,o),
(584,100,o),
(584,246,cs),
(584,381,o),
(489,485,o),
(350,485,cs),
(278,485,o),
(207,460,o),
(132,387,c),
(232,405,l),
(255,511,o),
(286,690,o),
(289,714,cs),
(291,728,o),
(252,758,o),
(176,752,cs),
(159,751,o),
(140,742,o),
(137,723,cs)
);
},
{
closed = 1;
nodes = (
(91,604,o),
(138,595,o),
(161,594,cs),
(276,591,o),
(417,598,o),
(493,606,cs),
(535,610,o),
(562,624,o),
(562,695,cs),
(562,756,o),
(535,775,o),
(509,772,cs),
(398,761,o),
(229,759,o),
(150,762,cs),
(130,763,o),
(91,748,o),
(91,690,cs)
);
}
);
userData = {
com.hugojourdan.ColorFlow = {
"0" = 0;
"1" = 0;
"10" = 0;
"11" = 0;
"2" = 0;
"3" = 0;
"4" = 0;
"5" = 0;
"6" = 0;
"7" = 0;
"8" = 0;
"9" = 0;
};
};
width = 638;
},
{
layerId = "5FC9277C-B92C-4C3C-88AB-70E16AEC7C11";
shapes = (
{
closed = 1;
nodes = (
(150,606,o),
(133,484,o),
(108,367,cs),
(101,332,o),
(123,314,o),
(148,314,cs),
(154,314,o),
(163,317,o),
(170,322,cs),
(231,372,o),
(277,391,o),
(340,391,cs),
(450,391,o),
(487,307,o),
(487,239,cs),
(487,150,o),
(440,67,o),
(335,67,cs),
(273,67,o),
(222,85,o),
(174,109,cs),
(163,114,o),
(151,119,o),
(140,119,cs),
(115,119,o),
(100,89,o),
(100,73,cs),
(100,59,o),
(107,45,o),
(120,38,cs),
(178,3,o),
(253,-18,o),
(334,-18,cs),
(495,-18,o),
(580,100,o),
(580,238,cs),
(580,374,o),
(484,476,o),
(347,476,cs),
(301,476,o),
(232,458,o),
(166,407,c),
(201,400,l),
(224,506,o),
(255,685,o),
(258,709,cs),
(260,723,o),
(248,753,o),
(210,752,cs),
(193,752,o),
(175,742,o),
(171,723,cs)
);
},
{
closed = 1;
nodes = (
(141,685,o),
(172,676,o),
(195,675,cs),
(310,672,o),
(428,679,o),
(518,688,cs),
(546,691,o),
(560,705,o),
(560,731,cs),
(560,756,o),
(546,775,o),
(520,772,cs),
(409,761,o),
(263,759,o),
(184,762,cs),
(164,763,o),
(141,748,o),
(141,720,cs)
);
}
);
userData = {
com.hugojourdan.ColorFlow = {
"0" = 0;
"1" = 0;
"10" = 0;
"11" = 0;
"2" = 0;
"3" = 0;
"4" = 0;
"5" = 0;
"6" = 0;
"7" = 0;
"8" = 0;
"9" = 0;
};
};
width = 643.4;
}
);
unicode = 53;
}
{
color = 4;
glyphname = six;
kernLeft = six;
kernRight = six;
layers = (
{
layerId = m01;
shapes = (
{
closed = 1;
nodes = (
(267,707,o),
(110,496,o),
(110,283,cs),
(110,113,o),
(220,-10,o),
(371,-10,cs),
(508,-10,o),
(625,100,o),
(625,251,cs),
(625,377,o),
(524,468,o),
(384,468,cs),
(294,468,o),
(176,417,o),
(104,346,cs),
(96,339,o),
(93,334,o),
(92,328,cs),
(92,320,o),
(98,314,o),
(105,314,cs),
(109,314,o),
(113,315,o),
(117,319,cs),
(181,388,o),
(293,438,o),
(384,438,cs),
(511,438,o),
(593,357,o),
(593,246,cs),
(593,115,o),
(489,20,o),
(370,20,cs),
(238,20,o),
(142,134,o),
(142,292,cs),
(142,485,o),
(289,680,o),
(492,756,cs),
(509,762,o),
(510,767,o),
(510,773,cs),
(510,780,o),
(506,787,o),
(495,787,cs),
(492,787,o),
(488,787,o),
(483,785,cs)
);
}
);
userData = {
com.hugojourdan.ColorFlow = {
"0" = 0;
"1" = 0;
"10" = 0;
"11" = 0;
"2" = 0;
"3" = 0;
"4" = 0;
"5" = 0;
"6" = 0;
"7" = 0;
"8" = 0;
"9" = 0;
};
};
width = 698;
},
{
background = {
shapes = (
{
closed = 1;
nodes = (
(295,720,o),
(110,512,o),
(110,283,cs),
(110,134,o),
(232,-10,o),
(381,-10,cs),
(400,-10,o),
(420,-8,o),
(440,-3,cs),
(560,22,o),
(645,135,o),
(645,251,cs),
(645,290,o),
(635,328,o),
(615,364,cs),
(569,457,o),
(484,494,o),
(394,494,cs),
(285,494,o),
(168,439,o),
(99,359,c),
(72,335,o),
(62,312,o),
(62,294,cs),
(62,271,o),
(78,256,o),
(98,256,cs),
(111,256,o),
(124,262,o),
(136,276,c),
(167,320,o),
(215,362,o),
(285,392,cs),
(282,391,o),
(279,389,o),
(276,388,cs),
(305,400,o),
(397,416,o),
(366,413,cs),
(356,412,l),
(368,413,o),
(381,414,o),
(394,414,cs),
(405,414,o),
(416,414,o),
(427,412,c),
(424,413,o),
(420,413,o),
(417,414,c),
(435,411,o),
(453,406,o),
(471,399,c),
(467,401,o),
(464,402,o),
(461,403,cs),
(498,386,o),
(502,383,o),
(528,352,cs),
(524,357,o),
(523,359,o),
(523,359,c),
(526,354,ls),
(534,340,o),
(545,325,o),
(551,310,cs),
(550,313,o),
(549,316,o),
(547,319,c),
(555,301,o),
(560,283,o),
(563,264,c),
(562,274,l),
(563,265,o),
(564,255,o),
(564,246,cs),
(564,237,o),
(563,228,o),
(562,219,c),
(563,229,ls),
(565,246,o),
(556,195,o),
(549,178,cs),
(551,182,o),
(552,185,o),
(553,188,cs),
(546,172,o),
(537,156,o),
(526,142,c),
(536,154,o),
(528,143,o),
(525,140,cs),
(516,130,o),
(505,120,o),
(494,111,cs),
(492,109,o),
(486,105,o),
(498,113,c),
(482,101,o),
(464,91,o),
(446,83,c),
(449,85,o),
(452,86,o),
(456,87,c),
(437,80,o),
(418,74,o),
(398,72,cs),
(402,72,o),
(405,72,o),
(409,73,c),
(399,72,o),
(390,71,o),
(380,71,cs),
(370,71,o),
(361,72,o),
(351,73,c),
(355,72,o),
(359,72,o),
(362,72,cs),
(344,74,o),
(327,79,o),
(310,86,cs),
(313,85,o),
(316,83,o),
(319,82,cs),
(260,110,o),
(236,141,o),
(206,204,cs),
(207,201,o),
(208,198,o),
(210,194,cs),
(201,216,o),
(194,239,o),
(191,263,c),
(193,252,l),
(191,265,o),
(190,278,o),
(190,292,cs),
(190,306,o),
(191,321,o),
(193,336,c),
(193,332,o),
(192,329,o),
(192,325,c),
(197,361,o),
(207,395,o),
(221,428,c),
(219,425,o),
(218,422,o),
(217,419,cs),
(234,459,o),
(257,498,o),
(284,533,cs),
(286,536,o),
(290,541,o),
(282,531,cs),
(311,568,o),
(344,602,o),
(380,631,cs),
(382,633,o),
(388,637,o),
(388,637,c),
(383,633,l),
(376,627,l),
(379,627,o),
(460,685,o),
(494,699,cs),
(491,698,o),
(488,696,o),
(484,695,c),
(512,707,o),
(558,714,o),
(558,748,cs),
(558,752,o),
(558,756,o),
(556,760,c),
(551,778,o),
(535,790,o),
(517,790,cs),
(514,790,o),
(510,790,o),
(507,789,cs)
);
}
);
};
layerId = m003;
shapes = (
{
closed = 1;
nodes = (
(264,699,o),
(100,512,o),
(100,283,cs),
(100,134,o),
(222,-10,o),
(381,-10,cs),
(556,-10,o),
(674,117,o),
(674,251,cs),
(674,364,o),
(597,495,o),
(421,495,cs),
(310,495,o),
(182,427,o),
(100,369,cs),
(71,349,o),
(20,313,o),
(20,270,cs),
(20,217,o),
(49,179,o),
(83,179,cs),
(110,179,o),
(136,215,o),
(147,229,cs),
(216,312,o),
(301,356,o),
(390,356,cs),
(454,356,o),
(494,317,o),
(494,261,cs),
(494,195,o),
(452,146,o),
(381,146,cs),
(308,146,o),
(277,230,o),
(277,292,cs),
(277,497,o),
(433,593,o),
(577,650,cs),
(597,658,o),
(621,670,o),
(621,707,cs),
(621,778,o),
(586,800,o),
(546,800,cs),
(522,800,o),
(498,792,o),
(487,788,cs)
);
}
);
userData = {
com.hugojourdan.ColorFlow = {
"0" = 0;
"1" = 0;
"10" = 0;
"11" = 0;
"2" = 0;
"3" = 0;
"4" = 0;
"5" = 0;
"6" = 0;
"7" = 0;
"8" = 0;
"9" = 0;
};
};
width = 705;
},
{
layerId = "5FC9277C-B92C-4C3C-88AB-70E16AEC7C11";
shapes = (
{
closed = 1;
nodes = (
(289,712,o),
(106,512,o),
(106,283,cs),
(106,134,o),
(228,-10,o),
(378,-10,cs),
(533,-10,o),
(645,117,o),
(645,251,cs),
(645,364,o),
(558,492,o),
(394,492,cs),
(285,492,o),
(169,425,o),
(96,357,cs),
(69,333,o),
(55,312,o),
(55,292,cs),
(55,266,o),
(72,248,o),
(94,248,cs),
(108,248,o),
(121,256,o),
(131,271,cs),
(186,354,o),
(293,408,o),
(391,408,cs),
(498,408,o),
(554,323,o),
(554,248,cs),
(554,166,o),
(481,76,o),
(377,76,cs),
(264,76,o),
(196,191,o),
(196,292,cs),
(196,497,o),
(379,647,o),
(523,704,cs),
(543,712,o),
(562,723,o),
(562,744,cs),
(562,771,o),
(542,791,o),
(517,791,cs),
(509,791,o),
(501,789,o),
(490,785,cs)
);
}
);
userData = {
com.hugojourdan.ColorFlow = {
"0" = 0;
"1" = 0;
"10" = 0;
"11" = 0;
"2" = 0;
"3" = 0;
"4" = 0;
"5" = 0;
"6" = 0;
"7" = 0;
"8" = 0;
"9" = 0;
};
};
width = 700.5;
}
);
unicode = 54;
}
{
color = 4;
glyphname = seven;
kernLeft = seven;
kernRight = seven;
layers = (
{
background = {
shapes = (
{
closed = 1;
nodes = (
(232,715,o),
(371,723,o),
(508,745,c),
(499,755,l),
(355,498,o),
(243,265,o),
(140,17,cs),
(138,13,o),
(137,8,o),
(137,5,cs),
(137,-4,o),
(145,-9,o),
(152,-9,cs),
(159,-9,o),
(166,-3,o),
(172,10,cs),
(268,240,o),
(370,457,o),
(529,745,cs),
(532,750,o),
(534,754,o),
(534,758,cs),
(534,769,o),
(527,777,o),
(517,776,cs),
(371,753,o),
(262,745,o),
(81,745,cs),
(72,745,o),
(67,738,o),
(66,730,cs),
(66,723,o),
(71,715,o),
(83,715,cs)
);
}
);
};
layerId = m01;
shapes = (
{
closed = 1;
nodes = (
(240,715,o),
(379,723,o),
(516,745,c),
(508,755,l),
(361,492,o),
(246,253,o),
(141,-1,cs),
(139,-6,o),
(137,-10,o),
(137,-13,cs),
(137,-22,o),
(146,-27,o),
(153,-27,cs),
(160,-27,o),
(166,-21,o),
(172,-8,cs),
(270,228,o),
(374,450,o),
(537,745,cs),
(540,750,o),
(542,754,o),
(542,758,cs),
(542,769,o),
(535,777,o),
(525,776,cs),
(379,753,o),
(270,745,o),
(89,745,cs),
(80,745,o),
(75,738,o),
(74,730,cs),
(74,723,o),
(79,715,o),
(91,715,cs)
);
}
);
userData = {
com.hugojourdan.ColorFlow = {
"0" = 0;
"1" = 0;
"10" = 0;
"11" = 0;
"2" = 0;
"3" = 0;
"4" = 0;
"5" = 0;
"6" = 0;
"7" = 0;
"8" = 0;
"9" = 0;
};
};
width = 578;
},
{
background = {
shapes = (
{
closed = 1;
nodes = (
(237,634,o),
(376,645,o),
(513,667,c),
(473,723,l),
(358,552,o),
(254,374,o),
(164,191,cs),
(139,139,o),
(114,86,o),
(91,34,cs),
(88,27,o),
(85,20,o),
(85,12,cs),
(85,-9,o),
(103,-27,o),
(127,-27,cs),
(141,-27,o),
(154,-21,o),
(160,-7,cs),
(271,240,o),
(417,502,o),
(537,682,cs),
(541,688,o),
(542,695,o),
(542,702,cs),
(542,727,o),
(527,747,o),
(497,742,cs),
(372,722,o),
(213,713,o),
(96,713,cs),
(71,713,o),
(59,693,o),
(59,673,cs),
(59,653,o),
(72,635,o),
(98,635,cs)
);
}
);
};
layerId = m003;
shapes = (
{
closed = 1;
nodes = (
(219,565,o),
(316,571,o),
(453,593,c),
(409,720,l),
(265,478,o),
(171,296,o),
(86,65,cs),
(83,58,o),
(80,41,o),
(80,33,cs),
(80,12,o),
(93,-27,o),
(167,-27,cs),
(211,-27,o),
(252,-17,o),
(266,22,cs),
(343,234,o),
(435,426,o),
(568,667,cs),
(580,689,o),
(582,706,o),
(582,722,cs),
(582,747,o),
(567,783,o),
(507,775,cs),
(374,757,o),
(213,748,o),
(86,748,cs),
(51,748,o),
(24,725,o),
(24,662,cs),
(24,588,o),
(44,567,o),
(89,566,cs)
);
}
);
userData = {
com.hugojourdan.ColorFlow = {
"0" = 0;
"1" = 0;
"10" = 0;
"11" = 0;
"2" = 0;
"3" = 0;
"4" = 0;
"5" = 0;
"6" = 0;
"7" = 0;
"8" = 0;
"9" = 0;
};
};
width = 576;
},
{
layerId = "5FC9277C-B92C-4C3C-88AB-70E16AEC7C11";
shapes = (
{
closed = 1;
nodes = (
(233,655,o),
(368,665,o),
(505,687,c),
(465,750,l),
(321,494,o),
(211,268,o),
(116,37,cs),
(113,30,o),
(110,22,o),
(110,14,cs),
(110,-7,o),
(127,-27,o),
(156,-27,cs),
(173,-27,o),
(189,-21,o),
(196,-4,cs),
(298,239,o),
(397,452,o),
(538,708,cs),
(542,715,o),
(544,723,o),
(544,731,cs),
(544,756,o),
(529,778,o),
(496,772,cs),
(370,753,o),
(211,744,o),
(84,745,cs),
(58,745,o),
(45,725,o),
(45,701,cs),
(45,675,o),
(58,657,o),
(86,657,cs)
);
}
);
userData = {
com.hugojourdan.ColorFlow = {
"0" = 0;
"1" = 0;
"10" = 0;
"11" = 0;
"2" = 0;
"3" = 0;
"4" = 0;
"5" = 0;
"6" = 0;
"7" = 0;
"8" = 0;
"9" = 0;
};
};
width = 568.8;
}
);
unicode = 55;
}
{
color = 4;
glyphname = eight;
kernLeft = eight;
kernRight = eight;
layers = (
{
background = {
shapes = (
{
closed = 1;
nodes = (
(67,69,o),
(147,-9,o),
(301,-15,cs),
(422,-18,o),
(546,61,o),
(546,181,cs),
(546,277,o),
(469,352,o),
(354,409,c),
(444,469,o),
(511,530,o),
(511,609,cs),
(511,709,o),
(415,779,o),
(298,779,cs),
(188,779,o),
(83,706,o),
(83,598,cs),
(83,513,o),
(131,458,o),
(225,405,c),
(137,350,o),
(67,275,o),
(67,175,cs)
);
},
{
closed = 1;
nodes = (
(148,230,o),
(183,292,o),
(289,364,c),
(390,315,o),
(465,245,o),
(465,183,cs),
(465,120,o),
(402,63,o),
(303,63,cs),
(236,63,o),
(148,86,o),
(148,170,cs)
);
},
{
closed = 1;
nodes = (
(212,484,o),
(165,539,o),
(165,597,cs),
(165,662,o),
(225,701,o),
(292,701,cs),
(376,701,o),
(430,661,o),
(430,610,cs),
(430,557,o),
(368,499,o),
(286,450,c)
);
}
);
};
layerId = m01;
shapes = (
{
closed = 1;
nodes = (
(85,60,o),
(174,-15,o),
(309,-15,cs),
(445,-15,o),
(544,67,o),
(544,181,cs),
(544,277,o),
(459,352,o),
(332,409,c),
(433,465,o),
(507,530,o),
(507,609,cs),
(507,708,o),
(423,779,o),
(306,779,cs),
(187,779,o),
(101,703,o),
(101,598,cs),
(101,513,o),
(156,458,o),
(263,405,c),
(164,350,o),
(85,275,o),
(85,175,cs)
);
},
{
closed = 1;
nodes = (
(118,241,o),
(151,311,o),
(297,389,c),
(440,332,o),
(512,254,o),
(512,183,cs),
(512,86,o),
(428,15,o),
(311,15,cs),
(194,15,o),
(118,78,o),
(118,173,cs)
);
},
{
closed = 1;
nodes = (
(200,463,o),
(133,519,o),
(133,597,cs),
(133,685,o),
(204,749,o),
(303,749,cs),
(403,749,o),
(476,691,o),
(476,610,cs),
(476,541,o),
(402,476,o),
(298,423,c)
);
}
);
userData = {
com.hugojourdan.ColorFlow = {
"0" = 0;
"1" = 0;
"10" = 0;
"11" = 0;
"2" = 0;
"3" = 0;
"4" = 0;
"5" = 0;
"6" = 0;
"7" = 0;
"8" = 0;
"9" = 0;
};
};
width = 635;
},
{
background = {
shapes = (
{
closed = 1;
nodes = (
(74,69,o),
(154,-14,o),
(308,-20,cs),
(429,-23,o),
(553,61,o),
(553,181,cs),
(553,277,o),
(470,352,o),
(361,409,c),
(451,469,o),
(518,537,o),
(518,616,cs),
(518,716,o),
(412,789,o),
(305,789,cs),
(195,789,o),
(90,718,o),
(90,613,cs),
(90,530,o),
(147,463,o),
(232,405,c),
(144,350,o),
(74,275,o),
(74,175,cs)
);
},
{
closed = 1;
nodes = (
(155,230,o),
(190,292,o),
(296,364,c),
(391,315,o),
(472,245,o),
(472,183,cs),
(472,120,o),
(409,58,o),
(310,58,cs),
(243,58,o),
(155,86,o),
(155,170,cs)
);
},
{
closed = 1;
nodes = (
(228,489,o),
(172,558,o),
(172,612,cs),
(172,674,o),
(232,711,o),
(299,711,cs),
(373,711,o),
(437,668,o),
(437,617,cs),
(437,573,o),
(375,499,o),
(293,450,c)
);
}
);
};
layerId = m003;
shapes = (
{
closed = 1;
nodes = (
(37,69,o),
(117,-15,o),
(308,-15,cs),
(467,-15,o),
(588,78,o),
(588,198,cs),
(588,294,o),
(521,348,o),
(425,409,c),
(515,469,o),
(563,530,o),
(563,609,cs),
(563,709,o),
(475,779,o),
(305,779,cs),
(158,779,o),
(53,706,o),
(53,576,cs),
(53,513,o),
(91,451,o),
(174,402,c),
(100,351,o),
(37,275,o),
(37,175,cs)
);
},
{
closed = 1;
nodes = (
(227,225,o),
(244,260,o),
(305,312,c),
(355,277,o),
(398,236,o),
(398,191,cs),
(398,158,o),
(367,127,o),
(312,127,cs),
(271,127,o),
(227,146,o),
(227,191,cs)
);
},
{
closed = 1;
nodes = (
(258,515,o),
(227,545,o),
(227,589,cs),
(227,624,o),
(258,646,o),
(301,646,cs),
(352,646,o),
(379,619,o),
(379,594,cs),
(379,555,o),
(350,526,o),
(305,490,c)
);
}
);
userData = {
com.hugojourdan.ColorFlow = {
"0" = 0;
"1" = 0;
"10" = 0;
"11" = 0;
"2" = 0;
"3" = 0;
"4" = 0;
"5" = 0;
"6" = 0;
"7" = 0;
"8" = 0;
"9" = 0;
};
};
width = 626;
},
{
layerId = "5FC9277C-B92C-4C3C-88AB-70E16AEC7C11";
shapes = (
{
closed = 1;
nodes = (
(67,69,o),
(147,-10,o),
(304,-15,cs),
(429,-18,o),
(553,63,o),
(553,183,cs),
(553,279,o),
(477,352,o),
(364,409,c),
(454,469,o),
(519,530,o),
(519,609,cs),
(519,709,o),
(424,779,o),
(301,779,cs),
(188,779,o),
(83,706,o),
(83,596,cs),
(83,513,o),
(130,457,o),
(223,405,c),
(136,350,o),
(67,275,o),
(67,175,cs)
);
},
{
closed = 1;
nodes = (
(159,230,o),
(192,289,o),
(293,359,c),
(389,311,o),
(461,244,o),
(461,184,cs),
(461,124,o),
(401,69,o),
(307,69,cs),
(242,69,o),
(159,92,o),
(159,172,cs)
);
},
{
closed = 1;
nodes = (
(219,487,o),
(174,540,o),
(174,596,cs),
(174,658,o),
(231,696,o),
(296,696,cs),
(376,696,o),
(428,657,o),
(428,608,cs),
(428,557,o),
(369,502,o),
(291,454,c)
);
}
);
userData = {
com.hugojourdan.ColorFlow = {
"0" = 0;
"1" = 0;
"10" = 0;
"11" = 0;
"2" = 0;
"3" = 0;
"4" = 0;
"5" = 0;
"6" = 0;
"7" = 0;
"8" = 0;
"9" = 0;
};
};
width = 625.1;
}
);
unicode = 56;
}
{
glyphname = colon;
kernLeft = colon;
kernRight = colon;
layers = (
{
layerId = m01;
shapes = (
{
closed = 1;
nodes = (
(145,444,o),
(159,462,o),
(159,482,cs),
(159,500,o),
(147,514,o),
(126,514,cs),
(105,514,o),
(96,496,o),
(96,477,cs),
(96,454,o),
(110,444,o),
(125,444,cs)
);
},
{
closed = 1;
nodes = (
(127,-11,o),
(142,5,o),
(142,25,cs),
(142,43,o),
(130,60,o),
(107,60,cs),
(88,60,o),
(79,42,o),
(79,26,cs),
(79,3,o),
(94,-11,o),
(109,-11,cs)
);
}
);
userData = {
com.hugojourdan.ColorFlow = {
"0" = 0;
"1" = 0;
"10" = 0;
"11" = 0;
"2" = 0;
"3" = 0;
"4" = 0;
"5" = 0;
"6" = 0;
"7" = 0;
"8" = 0;
"9" = 0;
};
};
width = 264;
},
{
layerId = m003;
shapes = (
{
closed = 1;
nodes = (
(208,356,o),
(255,406,o),
(255,450,cs),
(255,510,o),
(220,555,o),
(154,555,cs),
(77,555,o),
(45,509,o),
(45,462,cs),
(45,394,o),
(99,356,o),
(162,356,cs)
);
},
{
closed = 1;
nodes = (
(205,-20,o),
(255,29,o),
(255,89,cs),
(255,134,o),
(210,179,o),
(141,179,cs),
(64,179,o),
(35,134,o),
(35,70,cs),
(35,19,o),
(82,-20,o),
(142,-20,cs)
);
}
);
userData = {
com.hugojourdan.ColorFlow = {
"0" = 0;
"1" = 0;
"10" = 0;
"11" = 0;
"2" = 0;
"3" = 0;
"4" = 0;
"5" = 0;
"6" = 0;
"7" = 0;
"8" = 0;
"9" = 0;
};
};
width = 296;
},
{
layerId = "5FC9277C-B92C-4C3C-88AB-70E16AEC7C11";
shapes = (
{
closed = 1;
nodes = (
(189,427,o),
(208,448,o),
(208,476,cs),
(208,510,o),
(180,540,o),
(144,540,cs),
(113,540,o),
(91,519,o),
(91,494,cs),
(91,453,o),
(121,427,o),
(164,427,cs)
);
},
{
closed = 1;
nodes = (
(165,-10,o),
(189,16,o),
(189,45,cs),
(189,76,o),
(165,102,o),
(133,102,cs),
(100,102,o),
(76,76,o),
(76,42,cs),
(76,13,o),
(104,-10,o),
(139,-10,cs)
);
}
);
userData = {
com.hugojourdan.ColorFlow = {
"0" = 0;
"1" = 0;
"10" = 0;
"11" = 0;
"2" = 0;
"3" = 0;
"4" = 0;
"5" = 0;
"6" = 0;
"7" = 0;
"8" = 0;
"9" = 0;
};
};
width = 285.2;
}
);
unicode = 58;
}
{
glyphname = semicolon;
kernLeft = colon;
kernRight = colon;
layers = (
{
background = {
shapes = (
{
closed = 1;
nodes = (
(60,-19,o),
(43,-68,o),
(21,-104,cs),
(14,-116,o),
(6,-133,o),
(6,-145,cs),
(6,-166,o),
(22,-182,o),
(44,-182,cs),
(53,-182,o),
(66,-180,o),
(74,-170,cs),
(123,-110,o),
(146,-19,o),
(140,61,cs),
(139,81,o),
(123,101,o),
(96,101,cs),
(76,101,o),
(60,85,o),
(60,61,cs)
);
},
{
closed = 1;
nodes = (
(62,439,o),
(91,420,o),
(118,419,cs),
(148,419,o),
(172,447,o),
(172,479,cs),
(172,500,o),
(162,533,o),
(127,533,cs),
(83,533,o),
(66,493,o),
(66,472,cs)
);
}
);
};
layerId = m01;
shapes = (
{
closed = 1;
nodes = (
(72,-159,o),
(78,-156,o),
(88,-140,cs),
(130,-70,o),
(138,-23,o),
(136,50,cs),
(135,72,o),
(129,82,o),
(114,82,cs),
(102,82,o),
(93,74,o),
(95,50,cs),
(101,-25,o),
(85,-79,o),
(59,-121,cs),
(52,-131,o),
(48,-138,o),
(48,-145,cs),
(48,-153,o),
(54,-159,o),
(65,-159,cs)
);
},
{
closed = 1;
nodes = (
(148,442,o),
(161,460,o),
(161,480,cs),
(161,498,o),
(150,514,o),
(129,514,cs),
(108,514,o),
(99,494,o),
(99,475,cs),
(99,452,o),
(113,442,o),
(128,442,cs)
);
}
);
userData = {
com.hugojourdan.ColorFlow = {
"0" = 0;
"1" = 0;
"10" = 0;
"11" = 0;
"2" = 0;
"3" = 0;
"4" = 0;
"5" = 0;
"6" = 0;
"7" = 0;
"8" = 0;
"9" = 0;
};
};
width = 266;
},
{
background = {
shapes = (
{
closed = 1;
nodes = (
(88,-19,o),
(71,-68,o),
(49,-104,cs),
(42,-116,o),
(34,-133,o),
(34,-145,cs),
(34,-166,o),
(50,-182,o),
(72,-182,cs),
(81,-182,o),
(94,-180,o),
(102,-170,cs),
(151,-110,o),
(174,-19,o),
(168,61,cs),
(167,81,o),
(151,101,o),
(124,101,cs),
(104,101,o),
(88,85,o),
(88,61,cs)
);
},
{
closed = 1;
nodes = (
(90,439,o),
(119,420,o),
(146,419,cs),
(176,419,o),
(200,447,o),
(200,479,cs),
(200,500,o),
(190,533,o),
(155,533,cs),
(111,533,o),
(94,493,o),
(94,472,cs)
);
}
);
};
layerId = m003;
shapes = (
{
closed = 1;
nodes = (
(106,-179,o),
(124,-167,o),
(132,-158,cs),
(184,-103,o),
(227,-8,o),
(227,83,cs),
(227,151,o),
(194,169,o),
(142,169,cs),
(97,169,o),
(65,155,o),
(67,83,cs),
(69,9,o),
(56,-28,o),
(31,-78,cs),
(25,-89,o),
(16,-107,o),
(16,-124,cs),
(16,-148,o),
(56,-179,o),
(84,-179,cs)
);
},
{
closed = 1;
nodes = (
(209,356,o),
(256,406,o),
(256,466,cs),
(256,520,o),
(221,555,o),
(155,555,cs),
(78,555,o),
(46,509,o),
(46,445,cs),
(46,394,o),
(100,356,o),
(146,356,cs)
);
}
);
userData = {
com.hugojourdan.ColorFlow = {
"0" = 0;
"1" = 0;
"10" = 0;
"11" = 0;
"2" = 0;
"3" = 0;
"4" = 0;
"5" = 0;
"6" = 0;
"7" = 0;
"8" = 0;
"9" = 0;
};
};
width = 296;
},
{
layerId = "5FC9277C-B92C-4C3C-88AB-70E16AEC7C11";
shapes = (
{
closed = 1;
nodes = (
(86,-182,o),
(100,-179,o),
(108,-169,cs),
(157,-109,o),
(183,-18,o),
(178,63,cs),
(177,88,o),
(158,108,o),
(129,108,cs),
(103,108,o),
(86,92,o),
(86,63,cs),
(86,-16,o),
(74,-65,o),
(52,-102,cs),
(45,-114,o),
(37,-131,o),
(37,-144,cs),
(37,-165,o),
(53,-182,o),
(76,-182,cs)
);
},
{
closed = 1;
nodes = (
(182,413,o),
(208,443,o),
(208,478,cs),
(208,502,o),
(196,535,o),
(158,535,cs),
(110,535,o),
(92,495,o),
(92,469,cs),
(88,435,o),
(120,414,o),
(149,413,cs)
);
}
);
userData = {
com.hugojourdan.ColorFlow = {
"0" = 0;
"1" = 0;
"10" = 0;
"11" = 0;
"2" = 0;
"3" = 0;
"4" = 0;
"5" = 0;
"6" = 0;
"7" = 0;
"8" = 0;
"9" = 0;
};
};
width = 285.2;
}
);
unicode = 59;
}
{
glyphname = less;
kernLeft = less;
kernRight = less;
layers = (
{
layerId = m01;
shapes = (
{
closed = 1;
nodes = (
(487,57,o),
(492,64,o),
(492,71,cs),
(492,76,o),
(489,80,o),
(482,84,cs),
(331,173,o),
(147,306,o),
(137,319,c),
(214,375,o),
(384,484,o),
(496,561,cs),
(500,564,o),
(502,567,o),
(502,571,cs),
(502,579,o),
(495,586,o),
(488,586,cs),
(486,586,o),
(484,585,o),
(482,584,cs),
(335,481,o),
(158,370,o),
(115,335,cs),
(105,327,o),
(101,322,o),
(101,316,cs),
(101,309,o),
(102,306,o),
(111,300,cs),
(168,257,o),
(326,149,o),
(467,61,cs),
(472,58,o),
(476,57,o),
(479,57,cs)
);
}
);
userData = {
com.hugojourdan.ColorFlow = {
"0" = 0;
"1" = 0;
"10" = 0;
"11" = 0;
"2" = 0;
"3" = 0;
"4" = 0;
"5" = 0;
"6" = 0;
"7" = 0;
"8" = 0;
"9" = 0;
};
};
width = 650;
},
{
layerId = m003;
shapes = (
{
closed = 1;
nodes = (
(507,15,o),
(544,65,o),
(544,103,cs),
(544,133,o),
(532,151,o),
(509,165,cs),
(427,214,o),
(328,273,o),
(259,317,c),
(344,371,o),
(452,438,o),
(527,487,cs),
(546,499,o),
(555,513,o),
(555,541,cs),
(555,578,o),
(515,626,o),
(486,626,cs),
(463,626,o),
(443,615,o),
(426,602,cs),
(307,519,o),
(142,416,o),
(96,379,cs),
(72,361,o),
(64,339,o),
(64,317,cs),
(64,292,o),
(72,275,o),
(88,263,cs),
(154,214,o),
(297,114,o),
(396,50,cs),
(426,31,o),
(456,15,o),
(475,15,cs)
);
}
);
userData = {
com.hugojourdan.ColorFlow = {
"0" = 0;
"1" = 0;
"10" = 0;
"11" = 0;
"2" = 0;
"3" = 0;
"4" = 0;
"5" = 0;
"6" = 0;
"7" = 0;
"8" = 0;
"9" = 0;
};
};
width = 650;
},
{
layerId = "5FC9277C-B92C-4C3C-88AB-70E16AEC7C11";
shapes = (
{
closed = 1;
nodes = (
(495,47,o),
(511,68,o),
(511,90,cs),
(511,103,o),
(501,117,o),
(489,125,cs),
(378,191,o),
(241,277,o),
(184,317,c),
(268,375,o),
(412,466,o),
(506,528,cs),
(515,533,o),
(522,545,o),
(522,556,cs),
(522,577,o),
(506,596,o),
(484,596,cs),
(468,596,o),
(454,587,o),
(441,578,cs),
(322,495,o),
(157,392,o),
(124,366,cs),
(98,345,o),
(88,334,o),
(88,317,cs),
(88,303,o),
(96,289,o),
(113,276,cs),
(167,237,o),
(311,139,o),
(410,75,cs),
(436,59,o),
(451,47,o),
(471,47,cs)
);
}
);
userData = {
com.hugojourdan.ColorFlow = {
"0" = 0;
"1" = 0;
"10" = 0;
"11" = 0;
"2" = 0;
"3" = 0;
"4" = 0;
"5" = 0;
"6" = 0;
"7" = 0;
"8" = 0;
"9" = 0;
};
};
width = 650;
}
);
unicode = 60;
}
{
glyphname = equal;
kernLeft = equal;
kernRight = equal;
layers = (
{
layerId = m01;
shapes = (
{
closed = 1;
nodes = (
(230,398,o),
(434,394,o),
(523,398,cs),
(536,398,o),
(542,403,o),
(542,412,cs),
(542,420,o),
(536,424,o),
(523,424,cs),
(426,420,o),
(222,426,o),
(136,430,cs),
(123,430,o),
(117,425,o),
(117,415,cs),
(117,407,o),
(123,403,o),
(136,403,cs)
);
},
{
closed = 1;
nodes = (
(226,221,o),
(500,217,o),
(519,217,cs),
(532,217,o),
(538,221,o),
(538,230,cs),
(538,238,o),
(532,242,o),
(519,242,cs),
(492,243,o),
(218,249,o),
(132,250,cs),
(119,250,o),
(113,245,o),
(113,235,cs),
(113,227,o),
(119,223,o),
(132,223,cs)
);
}
);
userData = {
com.hugojourdan.ColorFlow = {
"0" = 0;
"1" = 0;
"10" = 0;
"11" = 0;
"2" = 0;
"3" = 0;
"4" = 0;
"5" = 0;
"6" = 0;
"7" = 0;
"8" = 0;
"9" = 0;
};
};
width = 650;
},
{
layerId = m003;
shapes = (
{
closed = 1;
nodes = (
(229,358,o),
(433,354,o),
(522,358,cs),
(559,360,o),
(581,387,o),
(581,432,cs),
(581,479,o),
(559,506,o),
(522,504,cs),
(425,500,o),
(221,506,o),
(135,510,cs),
(96,512,o),
(76,486,o),
(76,435,cs),
(76,390,o),
(96,365,o),
(135,363,cs)
);
},
{
closed = 1;
nodes = (
(225,141,o),
(499,137,o),
(518,137,cs),
(555,137,o),
(577,164,o),
(577,210,cs),
(577,255,o),
(555,282,o),
(518,282,cs),
(491,283,o),
(217,289,o),
(131,290,cs),
(92,290,o),
(72,264,o),
(72,215,cs),
(72,168,o),
(92,143,o),
(131,143,cs)
);
}
);
userData = {
com.hugojourdan.ColorFlow = {
"0" = 0;
"1" = 0;
"10" = 0;
"11" = 0;
"2" = 0;
"3" = 0;
"4" = 0;
"5" = 0;
"6" = 0;
"7" = 0;
"8" = 0;
"9" = 0;
};
};
width = 650;
},
{
layerId = "5FC9277C-B92C-4C3C-88AB-70E16AEC7C11";
shapes = (
{
closed = 1;
nodes = (
(226,372,o),
(430,368,o),
(519,372,cs),
(546,373,o),
(560,392,o),
(560,414,cs),
(560,437,o),
(546,456,o),
(519,455,cs),
(422,451,o),
(218,457,o),
(132,461,cs),
(105,462,o),
(91,440,o),
(91,417,cs),
(91,395,o),
(105,378,o),
(132,377,cs)
);
},
{
closed = 1;
nodes = (
(222,191,o),
(496,187,o),
(515,187,cs),
(542,187,o),
(556,205,o),
(556,228,cs),
(556,251,o),
(542,269,o),
(515,269,cs),
(488,270,o),
(214,276,o),
(128,277,cs),
(101,277,o),
(87,256,o),
(87,233,cs),
(87,210,o),
(101,193,o),
(128,193,cs)
);
}
);
userData = {
com.hugojourdan.ColorFlow = {
"0" = 0;
"1" = 0;
"10" = 0;
"11" = 0;
"2" = 0;
"3" = 0;
"4" = 0;
"5" = 0;
"6" = 0;
"7" = 0;
"8" = 0;
"9" = 0;
};
};
width = 650;
}
);
unicode = 61;
}
{
color = 4;
glyphname = question;
kernLeft = question;
kernRight = question;
layers = (
{
layerId = m01;
shapes = (
{
closed = 1;
nodes = (
(229,197,o),
(236,201,o),
(237,218,cs),
(242,330,l),
(378,334,o),
(474,429,o),
(474,565,cs),
(474,686,o),
(393,773,o),
(281,773,cs),
(198,773,o),
(119,740,o),
(83,684,cs),
(81,680,o),
(80,677,o),
(80,674,cs),
(80,666,o),
(87,660,o),
(93,660,cs),
(97,660,o),
(102,661,o),
(104,664,cs),
(156,732,o),
(216,743,o),
(276,743,cs),
(373,743,o),
(442,668,o),
(442,562,cs),
(442,446,o),
(356,360,o),
(236,360,cs),
(218,360,o),
(213,355,o),
(212,341,cs),
(206,218,ls),
(205,203,o),
(212,197,o),
(220,197,cs)
);
},
{
closed = 1;
nodes = (
(228,-11,o),
(247,0,o),
(247,31,cs),
(247,53,o),
(226,60,o),
(214,60,cs),
(197,60,o),
(183,41,o),
(183,21,cs),
(183,3,o),
(198,-11,o),
(216,-11,cs)
);
}
);
userData = {
com.hugojourdan.ColorFlow = {
"0" = 0;
"1" = 0;
"10" = 0;
"11" = 0;
"2" = 0;
"3" = 0;
"4" = 0;
"5" = 0;
"6" = 0;
"7" = 0;
"8" = 0;
"9" = 0;
};
};
width = 519;
},
{
layerId = m003;
shapes = (
{
closed = 1;
nodes = (
(256,223,o),
(287,237,o),
(289,283,cs),
(290,310,l),
(408,317,o),
(504,431,o),
(504,560,cs),
(504,695,o),
(404,783,o),
(268,783,cs),
(179,783,o),
(99,752,o),
(59,698,cs),
(46,681,o),
(43,670,o),
(43,656,cs),
(43,617,o),
(80,592,o),
(110,592,cs),
(122,592,o),
(135,595,o),
(149,608,cs),
(173,630,o),
(201,645,o),
(251,645,cs),
(302,645,o),
(345,612,o),
(345,545,cs),
(345,459,o),
(293,425,o),
(225,425,cs),
(169,425,o),
(153,394,o),
(151,351,cs),
(148,293,ls),
(145,239,o),
(174,223,o),
(216,223,cs)
);
},
{
closed = 1;
nodes = (
(251,-16,o),
(310,9,o),
(310,81,cs),
(310,153,o),
(241,177,o),
(202,177,cs),
(144,177,o),
(111,129,o),
(109,78,cs),
(109,26,o),
(156,-16,o),
(209,-16,cs)
);
}
);
userData = {
com.hugojourdan.ColorFlow = {
"0" = 0;
"1" = 0;
"10" = 0;
"11" = 0;
"2" = 0;
"3" = 0;
"4" = 0;
"5" = 0;
"6" = 0;
"7" = 0;
"8" = 0;
"9" = 0;
};
};
width = 519;
},
{
layerId = "5FC9277C-B92C-4C3C-88AB-70E16AEC7C11";
shapes = (
{
closed = 1;
nodes = (
(238,161,o),
(256,177,o),
(258,202,cs),
(263,301,l),
(386,308,o),
(486,427,o),
(486,565,cs),
(486,691,o),
(405,771,o),
(280,774,cs),
(194,777,o),
(113,742,o),
(77,686,cs),
(69,673,o),
(66,666,o),
(66,658,cs),
(66,635,o),
(86,616,o),
(110,616,cs),
(129,616,o),
(138,627,o),
(151,643,cs),
(174,672,o),
(218,690,o),
(272,690,cs),
(351,690,o),
(399,642,o),
(399,559,cs),
(399,463,o),
(321,380,o),
(234,380,cs),
(196,380,o),
(179,364,o),
(177,333,cs),
(171,203,ls),
(169,179,o),
(191,159,o),
(213,160,cs)
);
},
{
closed = 1;
nodes = (
(232,-16,o),
(265,-3,o),
(265,36,cs),
(265,83,o),
(225,99,o),
(202,99,cs),
(167,99,o),
(146,71,o),
(145,42,cs),
(145,10,o),
(175,-16,o),
(209,-16,cs)
);
}
);
userData = {
com.hugojourdan.ColorFlow = {
"0" = 0;
"1" = 0;
"10" = 0;
"11" = 0;
"2" = 0;
"3" = 0;
"4" = 0;
"5" = 0;
"6" = 0;
"7" = 0;
"8" = 0;
"9" = 0;
};
};
width = 519;
}
);
unicode = 63;
}
{
glyphname = at;
kernLeft = at;
kernRight = at;
layers = (
{
background = {
shapes = (
{
closed = 1;
nodes = (
(555,329,o),
(561,329,cs),
(566,329,o),
(569,333,o),
(569,338,cs),
(569,343,o),
(566,350,o),
(556,354,cs),
(532,365,o),
(508,369,o),
(485,369,cs),
(358,369,o),
(252,269,o),
(252,138,cs),
(252,81,o),
(275,5,o),
(323,5,cs),
(367,5,o),
(414,55,o),
(454,128,c),
(465,73,o),
(506,25,o),
(559,25,cs),
(678,25,o),
(767,143,o),
(767,295,cs),
(767,469,o),
(629,623,o),
(474,623,cs),
(241,623,o),
(46,382,o),
(46,107,cs),
(46,-68,o),
(178,-213,o),
(327,-213,cs),
(340,-213,o),
(348,-206,o),
(348,-198,cs),
(348,-187,o),
(341,-183,o),
(328,-184,cs),
(204,-189,o),
(79,-57,o),
(79,103,cs),
(79,363,o),
(257,593,o),
(468,593,cs),
(607,593,o),
(734,452,o),
(734,295,cs),
(734,159,o),
(661,53,o),
(560,53,cs),
(509,53,o),
(480,114,o),
(470,164,c),
(504,237,o),
(530,312,o),
(537,338,c),
(530,339,o),
(521,346,o),
(517,340,cs),
(493,308,o),
(453,210,o),
(450,166,c),
(407,84,o),
(355,34,o),
(321,29,c),
(298,47,o),
(282,96,o),
(284,145,cs),
(288,259,o),
(370,341,o),
(479,341,cs),
(519,341,o)
);
}
);
};
layerId = m01;
shapes = (
{
closed = 1;
nodes = (
(340,-213,o),
(348,-206,o),
(348,-198,cs),
(348,-187,o),
(341,-183,o),
(328,-184,cs),
(204,-189,o),
(79,-57,o),
(79,103,cs),
(79,363,o),
(257,593,o),
(468,593,cs),
(607,593,o),
(734,452,o),
(734,295,cs),
(734,159,o),
(663,53,o),
(565,53,cs),
(514,53,o),
(485,114,o),
(475,164,c),
(509,236,o),
(535,312,o),
(542,336,cs),
(543,342,o),
(540,345,o),
(534,345,cs),
(530,345,o),
(526,343,o),
(523,340,cs),
(496,313,o),
(457,198,o),
(455,166,c),
(414,85,o),
(363,35,o),
(329,27,c),
(305,42,o),
(287,93,o),
(289,145,cs),
(293,259,o),
(375,341,o),
(484,341,cs),
(530,341,o),
(557,329,o),
(565,329,cs),
(572,329,o),
(575,337,o),
(575,342,cs),
(575,347,o),
(571,352,o),
(561,356,cs),
(537,365,o),
(513,369,o),
(490,369,cs),
(363,369,o),
(257,269,o),
(257,138,cs),
(257,81,o),
(280,5,o),
(328,5,cs),
(372,5,o),
(419,55,o),
(459,128,c),
(470,73,o),
(511,25,o),
(564,25,cs),
(680,25,o),
(767,143,o),
(767,295,cs),
(767,469,o),
(629,623,o),
(474,623,cs),
(241,623,o),
(46,382,o),
(46,107,cs),
(46,-68,o),
(178,-213,o),
(327,-213,cs)
);
}
);
userData = {
com.hugojourdan.ColorFlow = {
"0" = 0;
"1" = 0;
"10" = 0;
"11" = 0;
"2" = 0;
"3" = 0;
"4" = 0;
"5" = 0;
"6" = 0;
"7" = 0;
"8" = 0;
"9" = 0;
};
};
width = 818;
},
{
layerId = m003;
shapes = (
{
closed = 1;
nodes = (
(408,-230,o),
(435,-206,o),
(435,-165,cs),
(435,-120,o),
(413,-95,o),
(376,-96,cs),
(233,-101,o),
(171,-2,o),
(171,113,cs),
(171,324,o),
(310,506,o),
(498,506,cs),
(625,506,o),
(713,421,o),
(713,295,cs),
(713,172,o),
(665,94,o),
(608,94,cs),
(581,94,o),
(571,111,o),
(573,163,c),
(592,200,o),
(608,236,o),
(617,264,cs),
(631,306,o),
(596,335,o),
(551,335,cs),
(524,335,o),
(505,314,o),
(487,287,cs),
(466,255,o),
(457,210,o),
(455,163,c),
(440,141,o),
(419,117,o),
(392,91,c),
(379,104,o),
(372,125,o),
(373,149,cs),
(375,210,o),
(426,288,o),
(532,288,cs),
(577,288,o),
(594,265,o),
(626,265,cs),
(653,265,o),
(668,280,o),
(668,314,cs),
(668,347,o),
(650,374,o),
(621,386,cs),
(589,401,o),
(548,406,o),
(517,406,cs),
(362,406,o),
(233,290,o),
(233,138,cs),
(233,77,o),
(265,-32,o),
(372,-32,cs),
(406,-32,o),
(447,-5,o),
(474,35,c),
(491,-4,o),
(535,-32,o),
(592,-32,cs),
(744,-32,o),
(855,110,o),
(855,305,cs),
(855,460,o),
(756,640,o),
(504,640,cs),
(238,640,o),
(19,396,o),
(19,107,cs),
(19,-79,o),
(157,-230,o),
(362,-230,cs)
);
}
);
userData = {
com.hugojourdan.ColorFlow = {
"0" = 0;
"1" = 0;
"10" = 0;
"11" = 0;
"2" = 0;
"3" = 0;
"4" = 0;
"5" = 0;
"6" = 0;
"7" = 0;
"8" = 0;
"9" = 0;
};
};
width = 878;
},
{
layerId = "5FC9277C-B92C-4C3C-88AB-70E16AEC7C11";
shapes = (
{
closed = 1;
nodes = (
(364,-218,o),
(392,-206,o),
(392,-178,cs),
(392,-149,o),
(378,-134,o),
(345,-135,cs),
(198,-140,o),
(132,-24,o),
(132,95,cs),
(132,320,o),
(298,545,o),
(485,545,cs),
(621,545,o),
(715,441,o),
(715,304,cs),
(715,198,o),
(679,81,o),
(580,81,cs),
(544,81,o),
(523,129,o),
(520,165,c),
(542,205,o),
(558,243,o),
(568,274,cs),
(575,299,o),
(559,327,o),
(533,327,cs),
(518,327,o),
(505,319,o),
(493,305,cs),
(466,274,o),
(452,213,o),
(449,168,c),
(424,132,o),
(391,92,o),
(354,69,c),
(340,90,o),
(335,113,o),
(335,143,cs),
(335,236,o),
(404,298,o),
(499,298,cs),
(528,298,o),
(549,289,o),
(575,283,cs),
(595,279,o),
(613,293,o),
(613,314,cs),
(613,333,o),
(605,351,o),
(584,359,cs),
(557,372,o),
(526,376,o),
(501,376,cs),
(364,376,o),
(251,273,o),
(251,138,cs),
(251,83,o),
(277,-2,o),
(356,-2,cs),
(389,-2,o),
(427,31,o),
(461,76,c),
(480,34,o),
(520,-2,o),
(572,-2,cs),
(697,-2,o),
(802,115,o),
(802,305,cs),
(802,456,o),
(698,628,o),
(491,628,cs),
(265,628,o),
(44,367,o),
(44,98,cs),
(44,-60,o),
(161,-218,o),
(331,-218,cs)
);
}
);
userData = {
com.hugojourdan.ColorFlow = {
"0" = 0;
"1" = 0;
"10" = 0;
"11" = 0;
"2" = 0;
"3" = 0;
"4" = 0;
"5" = 0;
"6" = 0;
"7" = 0;
"8" = 0;
"9" = 0;
};
};
width = 851;
}
);
unicode = 64;
}
{
color = 4;
glyphname = F;
kernLeft = H;
kernRight = F;
layers = (
{
anchors = (
{
name = bottom;
pos = (132,0);
},
{
name = top;
pos = (358,759);
}
);
layerId = m01;
shapes = (
{
closed = 1;
nodes = (
(125,-5,o),
(133,-9,o),
(143,-9,cs),
(153,-9,o),
(156,-1,o),
(159,12,cs),
(173,100,o),
(172,212,o),
(172,352,c),
(250,345,o),
(348,346,o),
(421,350,cs),
(435,351,o),
(441,358,o),
(441,367,cs),
(441,374,o),
(436,381,o),
(421,380,cs),
(358,374,o),
(240,376,o),
(172,382,c),
(172,495,o),
(175,616,o),
(190,727,c),
(317,721,o),
(358,721,o),
(486,724,cs),
(503,724,o),
(509,730,o),
(509,738,cs),
(509,747,o),
(504,753,o),
(494,753,cs),
(420,750,o),
(279,752,o),
(173,758,cs),
(157,759,o),
(152,751,o),
(152,743,cs),
(152,736,o),
(154,730,o),
(157,728,c),
(141,615,o),
(139,499,o),
(139,383,cs),
(139,270,o),
(138,130,o),
(127,19,cs)
);
}
);
userData = {
com.hugojourdan.ColorFlow = {
"0" = 0;
"1" = 0;
"10" = 0;
"11" = 0;
"2" = 0;
"3" = 0;
"4" = 0;
"5" = 0;
"6" = 0;
"7" = 0;
"8" = 0;
"9" = 0;
};
};
width = 552;
},
{
anchors = (
{
name = bottom;
pos = (146,0);
},
{
name = top;
pos = (329,764);
}
);
layerId = m003;
shapes = (
{
closed = 1;
nodes = (
(61,18,o),
(74,-9,o),
(162,-9,cs),
(233,-9,o),
(250,12,o),
(256,52,cs),
(264,99,o),
(264,168,o),
(264,298,c),
(335,291,o),
(381,292,o),
(448,296,cs),
(469,298,o),
(496,314,o),
(495,383,cs),
(495,426,o),
(472,446,o),
(441,444,cs),
(384,440,o),
(326,440,o),
(264,446,c),
(264,492,o),
(269,536,o),
(276,599,c),
(397,593,o),
(441,592,o),
(494,596,cs),
(527,598,o),
(568,611,o),
(568,687,cs),
(568,742,o),
(545,755,o),
(523,754,cs),
(433,750,o),
(220,754,o),
(117,758,cs),
(90,759,o),
(65,733,o),
(65,690,cs),
(65,651,o),
(74,630,o),
(86,611,c),
(74,510,o),
(73,486,o),
(73,383,cs),
(73,270,o),
(72,130,o),
(64,48,cs)
);
}
);
userData = {
com.hugojourdan.ColorFlow = {
"0" = 0;
"1" = 0;
"10" = 0;
"11" = 0;
"2" = 0;
"3" = 0;
"4" = 0;
"5" = 0;
"6" = 0;
"7" = 0;
"8" = 0;
"9" = 0;
};
};
width = 588;
},
{
anchors = (
{
name = bottom;
pos = (134,0);
},
{
name = top;
pos = (343,761);
}
);
layerId = "5FC9277C-B92C-4C3C-88AB-70E16AEC7C11";
shapes = (
{
closed = 1;
nodes = (
(93,18,o),
(106,-9,o),
(140,-9,cs),
(166,-9,o),
(183,8,o),
(188,34,cs),
(197,95,o),
(197,195,o),
(197,325,c),
(268,318,o),
(359,319,o),
(426,323,cs),
(447,325,o),
(469,341,o),
(468,369,cs),
(467,390,o),
(450,410,o),
(426,408,cs),
(369,403,o),
(259,404,o),
(197,410,c),
(197,495,o),
(200,586,o),
(209,671,c),
(330,665,o),
(359,665,o),
(472,668,cs),
(506,669,o),
(542,670,o),
(542,711,cs),
(542,738,o),
(523,755,o),
(501,754,cs),
(411,750,o),
(252,752,o),
(149,758,cs),
(123,758,o),
(109,738,o),
(109,715,cs),
(109,702,o),
(113,692,o),
(118,683,c),
(106,582,o),
(105,486,o),
(105,383,cs),
(105,270,o),
(104,130,o),
(96,48,cs)
);
}
);
userData = {
com.hugojourdan.ColorFlow = {
"0" = 0;
"1" = 0;
"10" = 0;
"11" = 0;
"2" = 0;
"3" = 0;
"4" = 0;
"5" = 0;
"6" = 0;
"7" = 0;
"8" = 0;
"9" = 0;
};
};
width = 577.2;
}
);
unicode = 70;
}
{
color = 4;
glyphname = G;
kernLeft = O;
kernRight = G;
layers = (
{
anchors = (
{
name = bottom;
pos = (404,-7);
},
{
name = top;
pos = (473,771);
}
);
layerId = m01;
shapes = (
{
closed = 1;
nodes = (
(610,764,o),
(540,780,o),
(473,780,cs),
(267,780,o),
(73,569,o),
(73,338,cs),
(73,140,o),
(219,-19,o),
(400,-19,cs),
(580,-19,o),
(754,159,o),
(754,372,cs),
(754,382,o),
(746,391,o),
(733,391,cs),
(628,392,o),
(554,393,o),
(470,393,cs),
(448,393,o),
(439,388,o),
(440,376,cs),
(441,364,o),
(447,362,o),
(470,362,cs),
(541,362,o),
(651,361,o),
(722,361,c),
(715,168,o),
(564,11,o),
(399,11,cs),
(197,11,o),
(106,198,o),
(106,346,cs),
(106,503,o),
(250,750,o),
(466,750,cs),
(529,750,o),
(598,736,o),
(684,665,cs),
(693,658,o),
(698,655,o),
(702,655,cs),
(709,655,o),
(719,661,o),
(719,670,cs),
(719,677,o),
(715,683,o),
(701,694,cs)
);
}
);
userData = {
com.hugojourdan.ColorFlow = {
"0" = 0;
"1" = 0;
"10" = 0;
"11" = 0;
"2" = 0;
"3" = 0;
"4" = 0;
"5" = 0;
"6" = 0;
"7" = 0;
"8" = 0;
"9" = 0;
};
};
width = 823;
},
{
anchors = (
{
name = bottom;
pos = (403,0);
},
{
name = top;
pos = (442,766);
}
);
layerId = m003;
shapes = (
{
closed = 1;
nodes = (
(654,755,o),
(557,780,o),
(466,780,cs),
(227,780,o),
(43,579,o),
(43,348,cs),
(43,150,o),
(189,-19,o),
(400,-19,cs),
(623,-19,o),
(766,180,o),
(766,361,cs),
(766,397,o),
(753,430,o),
(707,430,cs),
(640,430,o),
(554,432,o),
(489,432,cs),
(448,432,o),
(421,399,o),
(421,352,cs),
(421,295,o),
(447,274,o),
(484,274,cs),
(522,274,o),
(551,273,o),
(579,273,c),
(554,215,o),
(508,141,o),
(408,141,cs),
(296,141,o),
(230,247,o),
(230,346,cs),
(230,453,o),
(293,621,o),
(466,621,cs),
(529,621,o),
(574,604,o),
(634,566,cs),
(646,558,o),
(659,543,o),
(680,543,cs),
(703,543,o),
(752,587,o),
(752,631,cs),
(752,652,o),
(742,673,o),
(734,680,cs)
);
}
);
userData = {
com.hugojourdan.ColorFlow = {
"0" = 0;
"1" = 0;
"10" = 0;
"11" = 0;
"2" = 0;
"3" = 0;
"4" = 0;
"5" = 0;
"6" = 0;
"7" = 0;
"8" = 0;
"9" = 0;
};
};
width = 818;
},
{
anchors = (
{
name = bottom;
pos = (410,0);
},
{
name = top;
pos = (473,771);
}
);
layerId = "5FC9277C-B92C-4C3C-88AB-70E16AEC7C11";
shapes = (
{
closed = 1;
nodes = (
(653,749,o),
(564,780,o),
(480,780,cs),
(261,780,o),
(68,579,o),
(68,348,cs),
(68,150,o),
(214,-19,o),
(407,-19,cs),
(601,-19,o),
(771,161,o),
(771,348,cs),
(771,378,o),
(763,405,o),
(728,406,cs),
(645,406,o),
(561,407,o),
(479,407,cs),
(455,407,o),
(436,389,o),
(437,365,cs),
(438,339,o),
(454,321,o),
(479,321,cs),
(545,321,o),
(612,320,o),
(678,320,c),
(664,193,o),
(552,67,o),
(407,67,cs),
(236,67,o),
(160,247,o),
(160,346,cs),
(160,453,o),
(251,691,o),
(473,691,cs),
(536,691,o),
(597,669,o),
(657,624,cs),
(669,615,o),
(682,597,o),
(703,597,cs),
(726,597,o),
(746,620,o),
(746,645,cs),
(746,656,o),
(741,667,o),
(733,674,cs)
);
}
);
userData = {
com.hugojourdan.ColorFlow = {
"0" = 0;
"1" = 0;
"10" = 0;
"11" = 0;
"2" = 0;
"3" = 0;
"4" = 0;
"5" = 0;
"6" = 0;
"7" = 0;
"8" = 0;
"9" = 0;
};
};
width = 837.8;
}
);
unicode = 71;
}
{
color = 4;
glyphname = J;
kernLeft = J;
kernRight = J;
layers = (
{
anchors = (
{
name = bottom;
pos = (240,-8);
},
{
name = top;
pos = (448,782);
}
);
layerId = m01;
name = Regular;
shapes = (
{
closed = 1;
nodes = (
(412,693,o),
(409,622,o),
(409,551,cs),
(409,499,o),
(411,448,o),
(411,397,cs),
(411,202,o),
(390,14,o),
(235,14,cs),
(166,14,o),
(90,66,o),
(69,139,cs),
(65,154,o),
(59,157,o),
(51,157,cs),
(40,157,o),
(36,149,o),
(41,128,cs),
(62,43,o),
(158,-16,o),
(240,-16,cs),
(420,-16,o),
(443,206,o),
(443,420,cs),
(443,469,o),
(442,518,o),
(442,563,cs),
(442,640,o),
(450,708,o),
(460,769,cs),
(462,783,o),
(462,792,o),
(448,792,cs),
(437,792,o),
(434,786,o),
(431,775,cs)
);
}
);
userData = {
com.hugojourdan.ColorFlow = {
"0" = 0;
"1" = 0;
"10" = 0;
"11" = 0;
"2" = 0;
"3" = 0;
"4" = 0;
"5" = 0;
"6" = 0;
"7" = 0;
"8" = 0;
"9" = 0;
};
};
width = 550;
},
{
anchors = (
{
name = bottom;
pos = (255,4);
},
{
name = top;
pos = (479,764);
}
);
layerId = m003;
name = Regular;
shapes = (
{
closed = 1;
nodes = (
(374,683,o),
(371,612,o),
(371,551,cs),
(371,499,o),
(373,448,o),
(373,338,cs),
(373,206,o),
(333,139,o),
(264,139,cs),
(207,139,o),
(184,176,o),
(164,208,cs),
(152,227,o),
(136,238,o),
(113,238,cs),
(73,238,o),
(-4,188,o),
(13,135,cs),
(43,41,o),
(136,-16,o),
(262,-16,cs),
(529,-16,o),
(554,206,o),
(554,388,cs),
(554,469,o),
(552,505,o),
(552,550,cs),
(552,617,o),
(562,676,o),
(568,719,cs),
(572,749,o),
(552,782,o),
(482,782,cs),
(422,782,o),
(394,771,o),
(385,730,cs)
);
}
);
userData = {
com.hugojourdan.ColorFlow = {
"0" = 0;
"1" = 0;
"10" = 0;
"11" = 0;
"2" = 0;
"3" = 0;
"4" = 0;
"5" = 0;
"6" = 0;
"7" = 0;
"8" = 0;
"9" = 0;
};
};
width = 613;
},
{
anchors = (
{
name = bottom;
pos = (272,0);
},
{
name = top;
pos = (468,779);
}
);
layerId = "5FC9277C-B92C-4C3C-88AB-70E16AEC7C11";
name = Regular;
shapes = (
{
closed = 1;
nodes = (
(408,692,o),
(405,621,o),
(405,551,cs),
(405,499,o),
(407,448,o),
(407,391,cs),
(407,202,o),
(384,70,o),
(262,70,cs),
(179,70,o),
(129,128,o),
(117,160,cs),
(110,181,o),
(104,201,o),
(73,201,cs),
(50,201,o),
(20,182,o),
(30,140,cs),
(57,34,o),
(165,-16,o),
(267,-16,cs),
(479,-16,o),
(498,206,o),
(498,417,cs),
(498,469,o),
(497,517,o),
(497,562,cs),
(497,638,o),
(505,705,o),
(512,748,cs),
(516,773,o),
(496,791,o),
(469,791,cs),
(447,791,o),
(428,780,o),
(423,760,cs)
);
}
);
userData = {
com.hugojourdan.ColorFlow = {
"0" = 0;
"1" = 0;
"10" = 0;
"11" = 0;
"2" = 0;
"3" = 0;
"4" = 0;
"5" = 0;
"6" = 0;
"7" = 0;
"8" = 0;
"9" = 0;
};
};
width = 602.2;
}
);
unicode = 74;
}
{
color = 4;
glyphname = M;
kernLeft = H;
kernRight = H;
layers = (
{
anchors = (
{
name = bottom;
pos = (464,21);
},
{
name = top;
pos = (481,754);
}
);
layerId = m01;
name = Regular;
shapes = (
{
closed = 1;
nodes = (
(159,200,o),
(165,386,o),
(163,703,c),
(248,545,o),
(376,322,o),
(454,186,cs),
(463,172,o),
(468,167,o),
(475,167,cs),
(482,167,o),
(488,172,o),
(498,185,cs),
(636,382,o),
(725,545,o),
(804,699,c),
(802,431,o),
(800,305,o),
(793,178,cs),
(783,4,ls),
(782,-9,o),
(785,-14,o),
(798,-14,cs),
(810,-14,o),
(815,-9,o),
(816,4,cs),
(824,110,o),
(828,205,o),
(831,295,cs),
(835,450,o),
(836,559,o),
(833,734,cs),
(833,748,o),
(829,759,o),
(817,759,cs),
(798,759,o),
(794,752,o),
(787,738,cs),
(705,569,o),
(588,369,o),
(476,209,c),
(369,403,o),
(277,565,o),
(169,753,cs),
(160,768,o),
(156,771,o),
(147,771,cs),
(136,771,o),
(131,763,o),
(131,749,cs),
(136,512,o),
(137,337,o),
(100,17,cs),
(98,-2,o),
(102,-8,o),
(113,-8,cs),
(124,-8,o),
(128,-5,o),
(129,4,cs)
);
}
);
userData = {
com.hugojourdan.ColorFlow = {
"0" = 0;
"1" = 0;
"10" = 0;
"11" = 0;
"2" = 0;
"3" = 0;
"4" = 0;
"5" = 0;
"6" = 0;
"7" = 0;
"8" = 0;
"9" = 0;
};
};
width = 938;
},
{
anchors = (
{
name = bottom;
pos = (452,0);
},
{
name = top;
pos = (478,764);
}
);
layerId = m003;
name = Regular;
shapes = (
{
closed = 1;
nodes = (
(243,169,o),
(251,218,o),
(254,394,c),
(315,280,o),
(326,267,o),
(376,181,cs),
(397,145,o),
(422,137,o),
(458,137,cs),
(496,137,o),
(528,152,o),
(547,178,cs),
(602,251,o),
(633,290,o),
(700,403,c),
(698,308,o),
(699,275,o),
(693,178,cs),
(685,43,ls),
(682,-1,o),
(704,-15,o),
(770,-15,cs),
(825,-15,o),
(853,-1,o),
(856,43,cs),
(862,115,o),
(866,205,o),
(869,295,cs),
(873,450,o),
(874,566,o),
(872,709,cs),
(871,743,o),
(855,768,o),
(793,768,cs),
(730,768,o),
(711,748,o),
(693,717,cs),
(604,556,o),
(581,504,o),
(471,347,c),
(380,517,o),
(351,574,o),
(281,712,cs),
(262,751,o),
(246,771,o),
(182,771,cs),
(111,771,o),
(79,751,o),
(80,708,cs),
(85,513,o),
(85,342,o),
(53,60,cs),
(47,10,o),
(65,-11,o),
(129,-11,cs),
(191,-11,o),
(227,2,o),
(232,50,cs)
);
}
);
userData = {
com.hugojourdan.ColorFlow = {
"0" = 0;
"1" = 0;
"10" = 0;
"11" = 0;
"2" = 0;
"3" = 0;
"4" = 0;
"5" = 0;
"6" = 0;
"7" = 0;
"8" = 0;
"9" = 0;
};
};
width = 938;
},
{
anchors = (
{
name = bottom;
pos = (460,0);
},
{
name = top;
pos = (486,764);
}
);
layerId = "5FC9277C-B92C-4C3C-88AB-70E16AEC7C11";
name = Regular;
shapes = (
{
closed = 1;
nodes = (
(200,198,o),
(206,364,o),
(205,570,c),
(283,424,o),
(354,299,o),
(430,168,cs),
(438,152,o),
(454,145,o),
(470,145,cs),
(488,145,o),
(500,154,o),
(510,167,cs),
(600,285,o),
(681,406,o),
(757,550,c),
(755,411,o),
(753,298,o),
(746,178,cs),
(737,27,ls),
(735,-1,o),
(757,-14,o),
(782,-14,cs),
(806,-14,o),
(825,-1,o),
(827,27,cs),
(834,115,o),
(838,205,o),
(841,295,cs),
(845,450,o),
(846,566,o),
(843,718,cs),
(843,743,o),
(823,760,o),
(798,760,cs),
(780,760,o),
(766,753,o),
(758,737,cs),
(676,570,o),
(586,419,o),
(476,262,c),
(382,432,o),
(294,587,o),
(204,747,cs),
(195,764,o),
(181,771,o),
(163,771,cs),
(137,771,o),
(114,756,o),
(115,729,cs),
(119,513,o),
(120,342,o),
(85,37,cs),
(82,10,o),
(100,-8,o),
(128,-8,cs),
(151,-8,o),
(170,2,o),
(174,24,cs)
);
}
);
userData = {
com.hugojourdan.ColorFlow = {
"0" = 0;
"1" = 0;
"10" = 0;
"11" = 0;
"2" = 0;
"3" = 0;
"4" = 0;
"5" = 0;
"6" = 0;
"7" = 0;
"8" = 0;
"9" = 0;
};
};
width = 939.8;
}
);
unicode = 77;
}
{
color = 4;
glyphname = N;
kernLeft = H;
kernRight = H;
layers = (
{
anchors = (
{
name = bottom;
pos = (373,11);
},
{
name = top;
pos = (418,772);
}
);
layerId = m01;
shapes = (
{
closed = 1;
nodes = (
(160,220,o),
(175,505,o),
(171,714,c),
(323,463,o),
(432,296,o),
(617,4,cs),
(625,-8,o),
(630,-10,o),
(636,-10,cs),
(648,-10,o),
(650,0,o),
(650,21,cs),
(653,333,o),
(667,520,o),
(691,757,cs),
(692,770,o),
(688,775,o),
(676,775,cs),
(665,775,o),
(660,771,o),
(659,761,cs),
(638,570,o),
(615,253,o),
(618,59,c),
(472,294,o),
(197,727,o),
(168,777,cs),
(163,786,o),
(159,788,o),
(150,788,cs),
(142,788,o),
(136,782,o),
(137,769,cs),
(148,515,o),
(131,283,o),
(100,18,cs),
(98,2,o),
(102,-5,o),
(114,-5,cs),
(126,-5,o),
(131,1,o),
(133,18,cs)
);
}
);
userData = {
com.hugojourdan.ColorFlow = {
"0" = 0;
"1" = 0;
"10" = 0;
"11" = 0;
"2" = 0;
"3" = 0;
"4" = 0;
"5" = 0;
"6" = 0;
"7" = 0;
"8" = 0;
"9" = 0;
};
};
width = 782;
},
{
anchors = (
{
name = bottom;
pos = (400,0);
},
{
name = top;
pos = (426,764);
}
);
layerId = m003;
shapes = (
{
closed = 1;
nodes = (
(257,166,o),
(266,275,o),
(263,409,c),
(378,247,o),
(433,160,o),
(505,60,cs),
(540,12,o),
(564,-10,o),
(624,-10,cs),
(690,-10,o),
(708,9,o),
(708,43,cs),
(711,342,o),
(724,508,o),
(745,717,cs),
(749,758,o),
(737,780,o),
(666,780,cs),
(584,780,o),
(567,759,o),
(562,708,cs),
(545,556,o),
(538,506,o),
(540,320,c),
(402,523,o),
(320,654,o),
(281,720,cs),
(252,769,o),
(223,789,o),
(171,789,cs),
(106,789,o),
(85,773,o),
(87,726,cs),
(96,515,o),
(80,292,o),
(53,61,cs),
(47,13,o),
(86,-5,o),
(135,-5,cs),
(203,-5,o),
(235,8,o),
(240,46,cs)
);
}
);
userData = {
com.hugojourdan.ColorFlow = {
"0" = 0;
"1" = 0;
"10" = 0;
"11" = 0;
"2" = 0;
"3" = 0;
"4" = 0;
"5" = 0;
"6" = 0;
"7" = 0;
"8" = 0;
"9" = 0;
};
};
width = 795;
},
{
anchors = (
{
name = bottom;
pos = (373,0);
},
{
name = top;
pos = (417,764);
}
);
layerId = "5FC9277C-B92C-4C3C-88AB-70E16AEC7C11";
shapes = (
{
closed = 1;
nodes = (
(202,216,o),
(216,397,o),
(212,592,c),
(351,361,o),
(402,282,o),
(574,15,cs),
(585,-1,o),
(600,-10,o),
(619,-10,cs),
(645,-10,o),
(663,9,o),
(663,31,cs),
(666,342,o),
(679,508,o),
(701,728,cs),
(704,758,o),
(692,776,o),
(659,776,cs),
(632,776,o),
(615,759,o),
(612,732,cs),
(593,556,o),
(577,358,o),
(579,172,c),
(435,400,o),
(236,717,o),
(209,764,cs),
(199,782,o),
(184,789,o),
(167,789,cs),
(142,789,o),
(121,773,o),
(122,747,cs),
(132,515,o),
(116,292,o),
(86,42,cs),
(83,13,o),
(109,-5,o),
(132,-5,cs),
(153,-5,o),
(174,4,o),
(177,26,cs)
);
}
);
userData = {
com.hugojourdan.ColorFlow = {
"0" = 0;
"1" = 0;
"10" = 0;
"11" = 0;
"2" = 0;
"3" = 0;
"4" = 0;
"5" = 0;
"6" = 0;
"7" = 0;
"8" = 0;
"9" = 0;
};
};
width = 781.5;
}
);
unicode = 78;
}
{
color = 4;
glyphname = O;
kernLeft = O;
kernRight = O;
layers = (
{
anchors = (
{
name = bottom;
pos = (383,0);
},
{
name = center;
pos = (396,382);
},
{
name = ogonek;
pos = (552,28);
},
{
name = top;
pos = (437,774);
},
{
name = topleft;
pos = (47,764);
},
{
name = topright;
pos = (771,764);
}
);
layerId = m01;
shapes = (
{
closed = 1;
nodes = (
(517,774,o),
(469,783,o),
(433,783,cs),
(237,783,o),
(73,573,o),
(73,359,cs),
(73,187,o),
(176,-20,o),
(391,-20,cs),
(604,-20,o),
(715,166,o),
(715,384,cs),
(715,486,o),
(695,593,o),
(646,671,cs),
(632,693,o),
(615,735,o),
(591,738,cs),
(580,739,o),
(575,731,o),
(575,728,cs),
(575,718,o),
(580,714,o),
(598,689,cs),
(632,644,o),
(681,535,o),
(681,383,cs),
(681,142,o),
(555,7,o),
(395,7,cs),
(220,7,o),
(106,170,o),
(106,350,cs),
(106,539,o),
(231,753,o),
(442,753,cs),
(492,753,o),
(530,740,o),
(547,728,cs),
(573,710,o),
(581,721,o),
(581,730,cs),
(581,747,o),
(567,755,o),
(541,765,cs)
);
}
);
userData = {
com.hugojourdan.ColorFlow = {
"0" = 0;
"1" = 0;
"10" = 0;
"11" = 0;
"2" = 0;
"3" = 0;
"4" = 0;
"5" = 0;
"6" = 0;
"7" = 0;
"8" = 0;
"9" = 0;
};
};
width = 784;
},
{
anchors = (
{
name = bottom;
pos = (397,0);
},
{
name = center;
pos = (410,382);
},
{
name = ogonek;
pos = (531,21);
},
{
name = top;
pos = (423,764);
},
{
name = topleft;
pos = (37,764);
},
{
name = topright;
pos = (809,764);
}
);
layerId = m003;
shapes = (
{
closed = 1;
nodes = (
(528,778,o),
(473,783,o),
(437,783,cs),
(173,783,o),
(35,552,o),
(35,341,cs),
(35,187,o),
(127,-20,o),
(395,-20,cs),
(618,-20,o),
(777,169,o),
(777,387,cs),
(777,489,o),
(756,591,o),
(698,671,cs),
(682,693,o),
(658,726,o),
(623,726,cs),
(599,727,o),
(515,625,o),
(515,596,cs),
(515,575,o),
(530,559,o),
(538,549,cs),
(563,517,o),
(583,477,o),
(583,386,cs),
(583,229,o),
(502,140,o),
(399,140,cs),
(294,140,o),
(230,226,o),
(230,357,cs),
(230,497,o),
(298,621,o),
(415,621,cs),
(449,621,o),
(463,609,o),
(488,610,cs),
(531,612,o),
(597,691,o),
(597,713,cs),
(597,730,o),
(584,744,o),
(564,756,cs)
);
}
);
userData = {
com.hugojourdan.ColorFlow = {
"0" = 0;
"1" = 0;
"10" = 0;
"11" = 0;
"2" = 0;
"3" = 0;
"4" = 0;
"5" = 0;
"6" = 0;
"7" = 0;
"8" = 0;
"9" = 0;
};
};
width = 812;
},
{
anchors = (
{
name = bottom;
pos = (393,0);
},
{
name = center;
pos = (406,374);
},
{
name = ogonek;
pos = (541,27);
},
{
name = top;
pos = (428,771);
},
{
name = topleft;
pos = (40,764);
},
{
name = topright;
pos = (799,764);
}
);
layerId = "5FC9277C-B92C-4C3C-88AB-70E16AEC7C11";
shapes = (
{
closed = 1;
nodes = (
(515,776,o),
(474,783,o),
(438,783,cs),
(222,783,o),
(68,565,o),
(68,352,cs),
(68,187,o),
(173,-20,o),
(396,-20,cs),
(613,-20,o),
(739,167,o),
(739,385,cs),
(739,487,o),
(714,592,o),
(661,671,cs),
(646,693,o),
(631,726,o),
(600,726,cs),
(578,727,o),
(552,700,o),
(553,677,cs),
(553,662,o),
(561,654,o),
(575,635,cs),
(605,595,o),
(647,500,o),
(647,384,cs),
(647,177,o),
(535,66,o),
(398,66,cs),
(246,66,o),
(162,197,o),
(162,353,cs),
(162,518,o),
(264,695,o),
(438,695,cs),
(482,695,o),
(509,685,o),
(527,679,cs),
(563,671,o),
(583,701,o),
(583,723,cs),
(583,740,o),
(573,755,o),
(553,761,cs)
);
}
);
userData = {
com.hugojourdan.ColorFlow = {
"0" = 0;
"1" = 0;
"10" = 0;
"11" = 0;
"2" = 0;
"3" = 0;
"4" = 0;
"5" = 0;
"6" = 0;
"7" = 0;
"8" = 0;
"9" = 0;
};
};
width = 804.8;
}
);
unicode = 79;
}
{
color = 4;
glyphname = P;
kernLeft = H;
kernRight = P;
layers = (
{
anchors = (
{
name = bottom;
pos = (137,0);
},
{
name = top;
pos = (334,764);
}
);
layerId = m01;
name = Regular;
shapes = (
{
closed = 1;
nodes = (
(137,501,o),
(133,262,o),
(118,8,cs),
(117,-6,o),
(123,-15,o),
(134,-15,cs),
(145,-15,o),
(151,-6,o),
(152,8,cs),
(157,132,o),
(160,239,o),
(164,345,c),
(194,338,o),
(226,336,o),
(258,336,cs),
(407,336,o),
(557,408,o),
(557,545,cs),
(557,696,o),
(434,781,o),
(268,781,cs),
(240,781,o),
(205,779,o),
(178,775,cs),
(158,772,o),
(156,765,o),
(155,752,cs)
);
},
{
closed = 1;
nodes = (
(172,497,o),
(178,623,o),
(186,746,c),
(207,749,o),
(231,751,o),
(266,751,cs),
(469,751,o),
(524,629,o),
(524,547,cs),
(524,414,o),
(373,366,o),
(270,366,cs),
(227,366,o),
(194,368,o),
(167,374,c)
);
}
);
userData = {
com.hugojourdan.ColorFlow = {
"0" = 0;
"1" = 0;
"10" = 0;
"11" = 0;
"2" = 0;
"3" = 0;
"4" = 0;
"5" = 0;
"6" = 0;
"7" = 0;
"8" = 0;
"9" = 0;
};
};
width = 627;
},
{
anchors = (
{
name = bottom;
pos = (329,0);
},
{
name = top;
pos = (355,764);
}
);
layerId = m003;
name = Regular;
shapes = (
{
closed = 1;
nodes = (
(69,501,o),
(70,271,o),
(57,50,cs),
(54,7,o),
(75,-15,o),
(145,-15,cs),
(203,-15,o),
(245,-2,o),
(247,41,cs),
(251,124,o),
(254,203,o),
(258,298,c),
(281,294,o),
(303,292,o),
(337,292,cs),
(469,292,o),
(646,370,o),
(646,541,cs),
(646,694,o),
(507,782,o),
(311,782,cs),
(261,782,o),
(166,780,o),
(139,776,cs),
(101,770,o),
(92,755,o),
(89,720,cs)
);
},
{
closed = 1;
nodes = (
(272,530,o),
(273,577,o),
(277,638,c),
(293,641,o),
(311,643,o),
(337,643,cs),
(394,643,o),
(450,610,o),
(450,542,cs),
(450,481,o),
(399,425,o),
(325,425,cs),
(303,425,o),
(290,426,o),
(268,431,c)
);
}
);
userData = {
com.hugojourdan.ColorFlow = {
"0" = 0;
"1" = 0;
"10" = 0;
"11" = 0;
"2" = 0;
"3" = 0;
"4" = 0;
"5" = 0;
"6" = 0;
"7" = 0;
"8" = 0;
"9" = 0;
};
};
width = 657;
},
{
anchors = (
{
name = bottom;
pos = (146,8);
},
{
name = top;
pos = (332,764);
}
);
layerId = "5FC9277C-B92C-4C3C-88AB-70E16AEC7C11";
name = Regular;
shapes = (
{
closed = 1;
nodes = (
(100,501,o),
(101,263,o),
(86,27,cs),
(85,-1,o),
(106,-15,o),
(131,-15,cs),
(155,-15,o),
(177,-2,o),
(178,26,cs),
(183,124,o),
(186,221,o),
(190,316,c),
(213,312,o),
(236,310,o),
(261,310,cs),
(418,310,o),
(579,388,o),
(579,541,cs),
(579,694,o),
(448,781,o),
(268,781,cs),
(238,781,o),
(197,779,o),
(170,775,cs),
(132,769,o),
(123,755,o),
(121,736,cs)
);
},
{
closed = 1;
nodes = (
(197,501,o),
(202,597,o),
(209,692,c),
(225,695,o),
(243,697,o),
(269,697,cs),
(436,697,o),
(486,610,o),
(486,548,cs),
(486,438,o),
(361,394,o),
(273,394,cs),
(240,394,o),
(215,399,o),
(193,402,c)
);
}
);
userData = {
com.hugojourdan.ColorFlow = {
"0" = 0;
"1" = 0;
"10" = 0;
"11" = 0;
"2" = 0;
"3" = 0;
"4" = 0;
"5" = 0;
"6" = 0;
"7" = 0;
"8" = 0;
"9" = 0;
};
};
width = 617.4;
}
);
unicode = 80;
}
{
color = 4;
glyphname = R;
kernLeft = H;
kernRight = R;
layers = (
{
anchors = (
{
name = bottom;
pos = (339,11);
},
{
name = top;
pos = (357,776);
}
);
layerId = m01;
shapes = (
{
closed = 1;
nodes = (
(103,6,ls),
(102,-7,o),
(110,-14,o),
(118,-14,cs),
(126,-14,o),
(135,-9,o),
(136,6,cs),
(183,752,ls),
(184,764,o),
(175,771,o),
(166,771,cs),
(159,771,o),
(151,767,o),
(150,752,cs)
);
},
{
closed = 1;
nodes = (
(246,748,o),
(268,750,o),
(314,750,cs),
(468,750,o),
(572,674,o),
(573,570,cs),
(573,454,o),
(454,370,o),
(290,370,cs),
(218,370,o),
(172,379,o),
(153,382,c),
(147,358,l),
(292,272,o),
(456,148,o),
(618,2,cs),
(622,-2,o),
(625,-4,o),
(629,-4,cs),
(637,-4,o),
(645,4,o),
(645,13,cs),
(645,17,o),
(642,22,o),
(638,26,cs),
(476,169,o),
(362,258,o),
(222,348,c),
(424,313,o),
(605,424,o),
(605,567,cs),
(605,675,o),
(515,778,o),
(315,778,cs),
(288,778,o),
(260,778,o),
(189,770,cs),
(170,768,o),
(162,759,o),
(162,752,cs),
(162,745,o),
(170,738,o),
(179,739,cs)
);
}
);
userData = {
com.hugojourdan.ColorFlow = {
"0" = 0;
"1" = 0;
"10" = 0;
"11" = 0;
"2" = 0;
"3" = 0;
"4" = 0;
"5" = 0;
"6" = 0;
"7" = 0;
"8" = 0;
"9" = 0;
};
};
width = 728;
},
{
anchors = (
{
name = bottom;
pos = (364,10);
},
{
name = top;
pos = (378,774);
}
);
layerId = m003;
shapes = (
{
closed = 1;
nodes = (
(47,47,ls),
(44,-1,o),
(86,-16,o),
(131,-16,cs),
(186,-16,o),
(235,-1,o),
(238,44,cs),
(280,709,ls),
(283,758,o),
(201,777,o),
(166,777,cs),
(110,777,o),
(92,758,o),
(90,723,cs)
);
},
{
closed = 1;
nodes = (
(249,629,o),
(271,632,o),
(317,632,cs),
(387,632,o),
(453,611,o),
(454,544,cs),
(455,480,o),
(387,431,o),
(295,431,cs),
(248,431,o),
(212,438,o),
(197,440,c),
(194,307,l),
(329,220,o),
(456,97,o),
(562,0,cs),
(576,-12,o),
(596,-17,o),
(608,-17,cs),
(650,-17,o),
(718,33,o),
(718,81,cs),
(718,103,o),
(712,113,o),
(688,139,cs),
(618,214,o),
(574,240,o),
(449,326,c),
(551,368,o),
(646,452,o),
(646,567,cs),
(646,675,o),
(540,778,o),
(355,778,cs),
(299,778,o),
(268,775,o),
(237,768,cs),
(178,755,o),
(158,743,o),
(158,720,cs),
(158,698,o),
(171,617,o),
(202,622,cs)
);
}
);
userData = {
com.hugojourdan.ColorFlow = {
"0" = 0;
"1" = 0;
"10" = 0;
"11" = 0;
"2" = 0;
"3" = 0;
"4" = 0;
"5" = 0;
"6" = 0;
"7" = 0;
"8" = 0;
"9" = 0;
};
};
width = 735;
},
{
anchors = (
{
name = bottom;
pos = (356,19);
},
{
name = top;
pos = (363,760);
}
);
layerId = "5FC9277C-B92C-4C3C-88AB-70E16AEC7C11";
shapes = (
{
closed = 1;
nodes = (
(86,27,ls),
(84,-1,o),
(108,-14,o),
(130,-14,cs),
(154,-14,o),
(176,-1,o),
(178,27,cs),
(222,730,ls),
(224,758,o),
(196,772,o),
(173,772,cs),
(150,772,o),
(132,758,o),
(130,731,cs)
);
},
{
closed = 1;
nodes = (
(251,690,o),
(273,693,o),
(319,693,cs),
(449,693,o),
(539,642,o),
(540,567,cs),
(540,503,o),
(479,399,o),
(295,399,cs),
(240,399,o),
(204,406,o),
(189,408,c),
(170,330,l),
(305,243,o),
(479,106,o),
(585,9,cs),
(599,-3,o),
(613,-8,o),
(625,-8,cs),
(649,-8,o),
(670,15,o),
(670,39,cs),
(670,50,o),
(666,60,o),
(657,69,cs),
(551,164,o),
(458,238,o),
(333,324,c),
(523,330,o),
(632,452,o),
(632,567,cs),
(632,675,o),
(535,778,o),
(324,778,cs),
(294,778,o),
(265,775,o),
(234,773,cs),
(175,768,o),
(153,748,o),
(153,725,cs),
(153,703,o),
(173,678,o),
(204,683,cs)
);
}
);
userData = {
com.hugojourdan.ColorFlow = {
"0" = 0;
"1" = 0;
"10" = 0;
"11" = 0;
"2" = 0;
"3" = 0;
"4" = 0;
"5" = 0;
"6" = 0;
"7" = 0;
"8" = 0;
"9" = 0;
};
};
width = 728.7;
}
);
unicode = 82;
}
{
color = 4;
glyphname = S;
kernLeft = S;
kernRight = S;
layers = (
{
anchors = (
{
name = bottom;
pos = (319,-9);
},
{
name = top;
pos = (334,764);
}
);
layerId = m01;
shapes = (
{
closed = 1;
nodes = (
(486,744,o),
(413,774,o),
(334,774,cs),
(201,774,o),
(108,701,o),
(108,598,cs),
(108,514,o),
(164,459,o),
(309,392,cs),
(448,328,o),
(502,273,o),
(502,178,cs),
(502,86,o),
(428,11,o),
(321,11,cs),
(251,11,o),
(188,43,o),
(149,70,cs),
(128,85,o),
(112,94,o),
(107,94,cs),
(99,94,o),
(93,90,o),
(92,81,cs),
(91,74,o),
(96,69,o),
(108,59,cs),
(163,13,o),
(241,-19,o),
(322,-19,cs),
(445,-19,o),
(535,66,o),
(535,178,cs),
(535,285,o),
(484,345,o),
(331,418,cs),
(188,487,o),
(141,532,o),
(141,599,cs),
(141,673,o),
(202,744,o),
(327,744,cs),
(389,744,o),
(438,729,o),
(492,697,cs),
(508,688,o),
(512,683,o),
(518,683,cs),
(526,683,o),
(532,691,o),
(532,697,cs),
(532,701,o),
(529,706,o),
(524,710,cs)
);
}
);
userData = {
com.hugojourdan.ColorFlow = {
"0" = 0;
"1" = 0;
"10" = 0;
"11" = 0;
"2" = 0;
"3" = 0;
"4" = 0;
"5" = 0;
"6" = 0;
"7" = 0;
"8" = 0;
"9" = 0;
};
};
width = 633;
},
{
anchors = (
{
name = bottom;
pos = (296,-2);
},
{
name = top;
pos = (319,764);
}
);
layerId = m003;
shapes = (
{
closed = 1;
nodes = (
(489,751,o),
(402,774,o),
(319,774,cs),
(148,774,o),
(35,680,o),
(35,545,cs),
(35,417,o),
(129,354,o),
(242,310,cs),
(353,267,o),
(402,245,o),
(402,202,cs),
(402,172,o),
(368,146,o),
(298,146,cs),
(236,146,o),
(193,160,o),
(152,182,cs),
(134,192,o),
(121,197,o),
(110,197,cs),
(82,197,o),
(35,137,o),
(35,94,cs),
(35,72,o),
(46,56,o),
(67,41,cs),
(110,11,o),
(192,-19,o),
(299,-19,cs),
(480,-19,o),
(593,105,o),
(593,220,cs),
(593,342,o),
(513,390,o),
(357,464,cs),
(272,505,o),
(230,521,o),
(230,562,cs),
(230,594,o),
(268,611,o),
(312,611,cs),
(372,611,o),
(410,596,o),
(450,578,cs),
(475,567,o),
(484,564,o),
(497,564,cs),
(534,564,o),
(572,613,o),
(572,670,cs),
(572,699,o),
(560,713,o),
(547,720,cs)
);
}
);
userData = {
com.hugojourdan.ColorFlow = {
"0" = 0;
"1" = 0;
"10" = 0;
"11" = 0;
"2" = 0;
"3" = 0;
"4" = 0;
"5" = 0;
"6" = 0;
"7" = 0;
"8" = 0;
"9" = 0;
};
};
width = 625;
},
{
anchors = (
{
name = bottom;
pos = (311,0);
},
{
name = top;
pos = (328,764);
}
);
layerId = "5FC9277C-B92C-4C3C-88AB-70E16AEC7C11";
shapes = (
{
closed = 1;
nodes = (
(491,748,o),
(411,774,o),
(328,774,cs),
(179,774,o),
(76,699,o),
(76,590,cs),
(76,454,o),
(197,404,o),
(297,360,cs),
(406,313,o),
(463,253,o),
(463,183,cs),
(463,119,o),
(398,68,o),
(314,68,cs),
(236,68,o),
(184,98,o),
(147,120,cs),
(129,130,o),
(116,138,o),
(105,138,cs),
(84,138,o),
(65,117,o),
(65,94,cs),
(65,78,o),
(74,63,o),
(93,47,cs),
(136,14,o),
(242,-19,o),
(315,-19,cs),
(456,-19,o),
(556,70,o),
(556,185,cs),
(556,297,o),
(492,368,o),
(336,442,cs),
(251,483,o),
(168,520,o),
(168,587,cs),
(168,640,o),
(219,688,o),
(321,688,cs),
(381,688,o),
(419,678,o),
(459,655,cs),
(483,641,o),
(499,631,o),
(511,631,cs),
(536,631,o),
(556,651,o),
(556,675,cs),
(556,688,o),
(551,698,o),
(543,706,cs)
);
}
);
userData = {
com.hugojourdan.ColorFlow = {
"0" = 0;
"1" = 0;
"10" = 0;
"11" = 0;
"2" = 0;
"3" = 0;
"4" = 0;
"5" = 0;
"6" = 0;
"7" = 0;
"8" = 0;
"9" = 0;
};
};
width = 623.2;
}
);
unicode = 83;
}
{
color = 4;
glyphname = U;
kernLeft = U;
kernRight = U;
layers = (
{
anchors = (
{
name = bottom;
pos = (368,0);
},
{
name = ogonek;
pos = (466,10);
},
{
name = top;
pos = (384,774);
},
{
name = topright;
pos = (762,764);
}
);
layerId = m01;
shapes = (
{
closed = 1;
nodes = (
(111,595,o),
(112,403,o),
(116,309,cs),
(123,115,o),
(206,-8,o),
(371,-8,cs),
(584,-8,o),
(646,190,o),
(646,427,cs),
(646,565,o),
(638,631,o),
(626,759,cs),
(625,768,o),
(623,776,o),
(611,776,cs),
(600,776,o),
(595,770,o),
(595,759,cs),
(603,645,o),
(613,552,o),
(613,451,cs),
(613,91,o),
(498,22,o),
(374,22,cs),
(220,22,o),
(147,141,o),
(147,389,cs),
(147,532,o),
(161,687,o),
(172,744,cs),
(174,758,o),
(165,766,o),
(152,766,cs),
(144,766,o),
(141,760,o),
(139,750,cs)
);
}
);
userData = {
com.hugojourdan.ColorFlow = {
"0" = 0;
"1" = 0;
"10" = 0;
"11" = 0;
"2" = 0;
"3" = 0;
"4" = 0;
"5" = 0;
"6" = 0;
"7" = 0;
"8" = 0;
"9" = 0;
};
};
width = 748;
},
{
anchors = (
{
name = bottom;
pos = (379,0);
},
{
name = ogonek;
pos = (466,10);
},
{
name = top;
pos = (394,766);
},
{
name = topright;
pos = (773,764);
}
);
layerId = m003;
shapes = (
{
closed = 1;
nodes = (
(58,587,o),
(60,403,o),
(71,299,cs),
(90,123,o),
(149,-8,o),
(383,-8,cs),
(619,-8,o),
(706,190,o),
(706,427,cs),
(706,565,o),
(699,625,o),
(692,703,cs),
(689,741,o),
(671,776,o),
(586,776,cs),
(518,776,o),
(498,752,o),
(501,711,cs),
(505,638,o),
(516,552,o),
(516,451,cs),
(516,233,o),
(472,158,o),
(386,158,cs),
(288,158,o),
(265,246,o),
(265,427,cs),
(265,532,o),
(276,663,o),
(281,696,cs),
(288,741,o),
(257,769,o),
(186,769,cs),
(110,769,o),
(92,741,o),
(83,700,cs)
);
}
);
userData = {
com.hugojourdan.ColorFlow = {
"0" = 0;
"1" = 0;
"10" = 0;
"11" = 0;
"2" = 0;
"3" = 0;
"4" = 0;
"5" = 0;
"6" = 0;
"7" = 0;
"8" = 0;
"9" = 0;
};
};
width = 756;
},
{
anchors = (
{
name = bottom;
pos = (383,-9);
},
{
name = ogonek;
pos = (474,10);
},
{
name = top;
pos = (397,755);
},
{
name = topright;
pos = (777,764);
}
);
layerId = "5FC9277C-B92C-4C3C-88AB-70E16AEC7C11";
shapes = (
{
closed = 1;
nodes = (
(93,594,o),
(94,403,o),
(102,299,cs),
(107,116,o),
(198,-8,o),
(387,-8,cs),
(623,-8,o),
(692,190,o),
(692,427,cs),
(692,565,o),
(684,630,o),
(677,708,cs),
(674,746,o),
(670,777,o),
(628,776,cs),
(603,776,o),
(583,758,o),
(584,734,cs),
(590,644,o),
(601,552,o),
(601,451,cs),
(601,142,o),
(500,79,o),
(390,79,cs),
(231,79,o),
(189,167,o),
(189,438,cs),
(189,532,o),
(203,685,o),
(210,721,cs),
(215,749,o),
(189,766,o),
(162,766,cs),
(141,766,o),
(123,756,o),
(118,733,cs)
);
}
);
userData = {
com.hugojourdan.ColorFlow = {
"0" = 0;
"1" = 0;
"10" = 0;
"11" = 0;
"2" = 0;
"3" = 0;
"4" = 0;
"5" = 0;
"6" = 0;
"7" = 0;
"8" = 0;
"9" = 0;
};
};
width = 780.3;
}
);
unicode = 85;
}
{
color = 4;
glyphname = V;
kernLeft = V;
kernRight = V;
layers = (
{
anchors = (
{
name = bottom;
pos = (301,-7);
},
{
name = top;
pos = (361,764);
}
);
layerId = m01;
shapes = (
{
closed = 1;
nodes = (
(173,455,o),
(225,251,o),
(280,8,cs),
(285,-12,o),
(290,-19,o),
(298,-19,cs),
(308,-19,o),
(312,-13,o),
(319,6,cs),
(375,151,o),
(503,470,o),
(645,751,cs),
(651,764,o),
(652,780,o),
(633,780,cs),
(628,780,o),
(624,777,o),
(619,768,cs),
(511,554,o),
(414,334,o),
(303,45,c),
(241,327,o),
(178,530,o),
(87,760,cs),
(84,767,o),
(80,768,o),
(75,768,cs),
(63,768,o),
(52,758,o),
(58,744,cs)
);
}
);
userData = {
com.hugojourdan.ColorFlow = {
"0" = 0;
"1" = 0;
"10" = 0;
"11" = 0;
"2" = 0;
"3" = 0;
"4" = 0;
"5" = 0;
"6" = 0;
"7" = 0;
"8" = 0;
"9" = 0;
};
};
width = 670;
},
{
anchors = (
{
name = bottom;
pos = (356,0);
},
{
name = top;
pos = (382,764);
}
);
layerId = m003;
shapes = (
{
closed = 1;
nodes = (
(121,452,o),
(171,279,o),
(224,51,cs),
(234,6,o),
(263,-21,o),
(320,-21,cs),
(368,-21,o),
(404,10,o),
(416,41,cs),
(472,186,o),
(594,464,o),
(716,705,cs),
(738,748,o),
(682,788,o),
(623,788,cs),
(581,788,o),
(559,772,o),
(541,736,cs),
(466,589,o),
(414,472,o),
(352,279,c),
(304,468,o),
(275,561,o),
(210,725,cs),
(197,758,o),
(176,770,o),
(130,770,cs),
(64,770,o),
(7,738,o),
(30,680,cs)
);
}
);
userData = {
com.hugojourdan.ColorFlow = {
"0" = 0;
"1" = 0;
"10" = 0;
"11" = 0;
"2" = 0;
"3" = 0;
"4" = 0;
"5" = 0;
"6" = 0;
"7" = 0;
"8" = 0;
"9" = 0;
};
};
width = 715;
},
{
anchors = (
{
name = bottom;
pos = (312,-4);
},
{
name = top;
pos = (359,760);
}
);
layerId = "5FC9277C-B92C-4C3C-88AB-70E16AEC7C11";
shapes = (
{
closed = 1;
nodes = (
(143,461,o),
(202,266,o),
(261,13,cs),
(265,-7,o),
(285,-22,o),
(306,-21,cs),
(327,-21,o),
(344,-6,o),
(350,12,cs),
(412,170,o),
(546,475,o),
(673,725,cs),
(690,759,o),
(661,788,o),
(629,788,cs),
(614,788,o),
(601,781,o),
(592,765,cs),
(493,568,o),
(402,371,o),
(317,153,c),
(269,357,o),
(209,540,o),
(130,740,cs),
(121,763,o),
(108,770,o),
(89,770,cs),
(59,770,o),
(29,747,o),
(42,714,cs)
);
}
);
userData = {
com.hugojourdan.ColorFlow = {
"0" = 0;
"1" = 0;
"10" = 0;
"11" = 0;
"2" = 0;
"3" = 0;
"4" = 0;
"5" = 0;
"6" = 0;
"7" = 0;
"8" = 0;
"9" = 0;
};
};
width = 699.7;
}
);
unicode = 86;
}
{
color = 4;
glyphname = W;
kernLeft = W;
kernRight = W;
layers = (
{
anchors = (
{
name = bottom;
pos = (498,0);
},
{
name = top;
pos = (524,764);
}
);
layerId = m01;
shapes = (
{
closed = 1;
nodes = (
(235,33,ls),
(242,2,o),
(248,-8,o),
(258,-8,cs),
(268,-8,o),
(276,2,o),
(283,32,cs),
(354,337,o),
(444,560,o),
(516,715,c),
(549,482,o),
(649,170,o),
(695,28,cs),
(705,-2,o),
(709,-12,o),
(719,-12,cs),
(729,-12,o),
(735,-2,o),
(742,28,cs),
(775,162,o),
(893,571,o),
(968,757,cs),
(974,772,o),
(963,780,o),
(952,780,cs),
(946,780,o),
(942,777,o),
(939,770,cs),
(849,522,o),
(783,313,o),
(719,56,c),
(653,268,o),
(587,460,o),
(542,749,cs),
(540,764,o),
(534,774,o),
(525,774,cs),
(514,774,o),
(507,766,o),
(499,749,cs),
(396,530,o),
(322,311,o),
(259,64,c),
(193,362,o),
(149,549,o),
(103,745,cs),
(101,752,o),
(95,756,o),
(89,756,cs),
(79,756,o),
(69,748,o),
(73,733,cs)
);
}
);
userData = {
com.hugojourdan.ColorFlow = {
"0" = 0;
"1" = 0;
"10" = 0;
"11" = 0;
"2" = 0;
"3" = 0;
"4" = 0;
"5" = 0;
"6" = 0;
"7" = 0;
"8" = 0;
"9" = 0;
};
};
width = 1002;
},
{
anchors = (
{
name = bottom;
pos = (527,9);
},
{
name = top;
pos = (541,774);
}
);
layerId = m003;
shapes = (
{
closed = 1;
nodes = (
(186,49,ls),
(197,4,o),
(229,-14,o),
(275,-14,cs),
(319,-14,o),
(369,0,o),
(382,51,cs),
(434,250,o),
(463,364,o),
(522,505,c),
(564,310,o),
(618,162,o),
(648,49,cs),
(660,2,o),
(684,-19,o),
(749,-19,cs),
(794,-19,o),
(834,1,o),
(851,61,cs),
(892,205,o),
(995,539,o),
(1060,700,cs),
(1073,734,o),
(1058,790,o),
(964,790,cs),
(924,790,o),
(899,775,o),
(884,731,cs),
(830,568,o),
(810,513,o),
(751,295,c),
(694,480,o),
(668,552,o),
(637,714,cs),
(626,771,o),
(586,780,o),
(532,780,cs),
(483,780,o),
(465,765,o),
(449,728,cs),
(380,568,o),
(362,515,o),
(301,304,c),
(256,497,o),
(246,536,o),
(214,711,cs),
(208,745,o),
(171,769,o),
(125,769,cs),
(46,769,o),
(17,728,o),
(27,688,cs)
);
}
);
userData = {
com.hugojourdan.ColorFlow = {
"0" = 0;
"1" = 0;
"10" = 0;
"11" = 0;
"2" = 0;
"3" = 0;
"4" = 0;
"5" = 0;
"6" = 0;
"7" = 0;
"8" = 0;
"9" = 0;
};
};
width = 1058;
},
{
anchors = (
{
name = bottom;
pos = (496,19);
},
{
name = top;
pos = (529,765);
}
);
layerId = "5FC9277C-B92C-4C3C-88AB-70E16AEC7C11";
shapes = (
{
closed = 1;
nodes = (
(219,18,ls),
(225,-4,o),
(243,-14,o),
(263,-14,cs),
(283,-14,o),
(303,-4,o),
(309,18,cs),
(385,286,o),
(450,459,o),
(509,596,c),
(551,401,o),
(644,152,o),
(680,14,cs),
(686,-8,o),
(704,-19,o),
(726,-19,cs),
(746,-19,o),
(765,-8,o),
(771,15,cs),
(808,166,o),
(935,567,o),
(1002,735,cs),
(1013,762,o),
(993,790,o),
(959,790,cs),
(938,790,o),
(922,779,o),
(915,758,cs),
(841,557,o),
(784,393,o),
(725,175,c),
(668,360,o),
(610,513,o),
(579,703,cs),
(570,760,o),
(565,780,o),
(528,780,cs),
(511,780,o),
(496,773,o),
(489,758,cs),
(401,570,o),
(330,398,o),
(269,187,c),
(224,380,o),
(181,550,o),
(138,734,cs),
(132,755,o),
(114,765,o),
(95,765,cs),
(61,765,o),
(41,741,o),
(49,711,cs)
);
}
);
userData = {
com.hugojourdan.ColorFlow = {
"0" = 0;
"1" = 0;
"10" = 0;
"11" = 0;
"2" = 0;
"3" = 0;
"4" = 0;
"5" = 0;
"6" = 0;
"7" = 0;
"8" = 0;
"9" = 0;
};
};
width = 1025.6;
}
);
unicode = 87;
}
{
color = 4;
glyphname = X;
kernLeft = X;
kernRight = X;
layers = (
{
anchors = (
{
name = bottom;
pos = (298,4);
},
{
name = top;
pos = (373,754);
}
);
layerId = m01;
shapes = (
{
closed = 1;
nodes = (
(525,-4,ls),
(528,-10,o),
(533,-13,o),
(538,-13,cs),
(549,-13,o),
(560,-1,o),
(554,10,cs),
(137,767,ls),
(133,774,o),
(129,777,o),
(123,777,cs),
(111,777,o),
(101,766,o),
(110,749,cs)
);
},
{
closed = 1;
nodes = (
(617,742,ls),
(627,756,o),
(618,770,o),
(606,770,cs),
(602,770,o),
(599,768,o),
(595,763,cs),
(43,17,ls),
(35,6,o),
(46,-7,o),
(57,-7,cs),
(62,-7,o),
(65,-5,o),
(69,0,cs)
);
}
);
userData = {
com.hugojourdan.ColorFlow = {
"0" = 0;
"1" = 0;
"10" = 0;
"11" = 0;
"2" = 0;
"3" = 0;
"4" = 0;
"5" = 0;
"6" = 0;
"7" = 0;
"8" = 0;
"9" = 0;
};
};
width = 674;
},
{
anchors = (
{
name = bottom;
pos = (344,0);
},
{
name = top;
pos = (370,764);
}
);
layerId = m003;
shapes = (
{
closed = 1;
nodes = (
(442,34,ls),
(458,6,o),
(477,-16,o),
(549,-16,cs),
(619,-16,o),
(665,15,o),
(631,75,cs),
(266,722,ls),
(240,769,o),
(216,785,o),
(165,785,cs),
(63,785,o),
(49,729,o),
(67,697,cs)
);
},
{
closed = 1;
nodes = (
(663,680,ls),
(692,718,o),
(639,780,o),
(570,780,cs),
(530,780,o),
(511,764,o),
(487,733,cs),
(11,102,ls),
(-28,51,o),
(27,-9,o),
(90,-9,cs),
(117,-9,o),
(147,-2,o),
(172,32,cs)
);
}
);
userData = {
com.hugojourdan.ColorFlow = {
"0" = 0;
"1" = 0;
"10" = 0;
"11" = 0;
"2" = 0;
"3" = 0;
"4" = 0;
"5" = 0;
"6" = 0;
"7" = 0;
"8" = 0;
"9" = 0;
};
};
width = 661;
},
{
anchors = (
{
name = bottom;
pos = (325,0);
},
{
name = top;
pos = (351,764);
}
);
layerId = "5FC9277C-B92C-4C3C-88AB-70E16AEC7C11";
shapes = (
{
closed = 1;
nodes = (
(482,9,ls),
(490,-7,o),
(503,-14,o),
(521,-14,cs),
(553,-14,o),
(582,15,o),
(563,50,cs),
(173,758,ls),
(164,775,o),
(149,782,o),
(134,782,cs),
(98,782,o),
(72,751,o),
(90,719,cs)
);
},
{
closed = 1;
nodes = (
(627,712,ls),
(650,742,o),
(617,776,o),
(584,776,cs),
(570,776,o),
(558,769,o),
(546,754,cs),
(31,58,ls),
(7,26,o),
(40,-8,o),
(72,-8,cs),
(86,-8,o),
(98,-1,o),
(110,14,cs)
);
}
);
userData = {
com.hugojourdan.ColorFlow = {
"0" = 0;
"1" = 0;
"10" = 0;
"11" = 0;
"2" = 0;
"3" = 0;
"4" = 0;
"5" = 0;
"6" = 0;
"7" = 0;
"8" = 0;
"9" = 0;
};
};
width = 663.7;
}
);
unicode = 88;
}
{
color = 4;
glyphname = Z;
kernLeft = Z;
kernRight = Z;
layers = (
{
anchors = (
{
name = bottom;
pos = (316,0);
},
{
name = center;
pos = (341,382);
},
{
name = top;
pos = (367,770);
}
);
layerId = m01;
shapes = (
{
closed = 1;
nodes = (
(281,736,o),
(413,734,o),
(545,746,c),
(317,397,o),
(305,370,o),
(60,17,cs),
(51,4,o),
(58,-15,o),
(79,-14,cs),
(167,-8,o),
(249,-6,o),
(329,-6,cs),
(399,-6,o),
(467,-8,o),
(537,-11,cs),
(554,-11,o),
(559,-4,o),
(559,4,cs),
(559,11,o),
(555,19,o),
(537,20,cs),
(467,23,o),
(399,25,o),
(329,25,cs),
(254,25,o),
(177,23,o),
(101,18,c),
(265,257,o),
(435,519,o),
(588,752,cs),
(600,770,o),
(583,780,o),
(574,779,cs),
(428,766,o),
(296,765,o),
(160,774,cs),
(142,775,o),
(138,766,o),
(138,757,cs),
(138,751,o),
(143,744,o),
(160,743,cs)
);
}
);
userData = {
com.hugojourdan.ColorFlow = {
"0" = 0;
"1" = 0;
"10" = 0;
"11" = 0;
"2" = 0;
"3" = 0;
"4" = 0;
"5" = 0;
"6" = 0;
"7" = 0;
"8" = 0;
"9" = 0;
};
};
width = 645;
},
{
anchors = (
{
name = bottom;
pos = (311,-1);
},
{
name = center;
pos = (324,382);
},
{
name = top;
pos = (338,766);
}
);
layerId = m003;
shapes = (
{
closed = 1;
nodes = (
(210,600,o),
(254,601,o),
(354,605,c),
(234,408,o),
(187,334,o),
(32,109,cs),
(-12,45,o),
(24,-13,o),
(88,-13,cs),
(170,-13,o),
(253,-6,o),
(335,-6,cs),
(408,-6,o),
(470,-8,o),
(535,-10,cs),
(569,-11,o),
(592,6,o),
(595,62,cs),
(599,134,o),
(572,152,o),
(546,154,cs),
(502,157,o),
(458,159,o),
(405,159,cs),
(346,159,o),
(334,158,o),
(278,156,c),
(405,355,o),
(464,442,o),
(578,627,cs),
(639,725,o),
(586,780,o),
(558,778,cs),
(424,766,o),
(260,765,o),
(119,774,cs),
(93,775,o),
(64,764,o),
(56,696,cs),
(49,639,o),
(78,607,o),
(116,605,cs)
);
}
);
userData = {
com.hugojourdan.ColorFlow = {
"0" = 0;
"1" = 0;
"10" = 0;
"11" = 0;
"2" = 0;
"3" = 0;
"4" = 0;
"5" = 0;
"6" = 0;
"7" = 0;
"8" = 0;
"9" = 0;
};
};
width = 632;
},
{
anchors = (
{
name = bottom;
pos = (314,4);
},
{
name = center;
pos = (332,382);
},
{
name = top;
pos = (347,760);
}
);
layerId = "5FC9277C-B92C-4C3C-88AB-70E16AEC7C11";
shapes = (
{
closed = 1;
nodes = (
(254,681,o),
(363,679,o),
(477,686,c),
(279,386,o),
(255,350,o),
(48,51,cs),
(29,24,o),
(50,-14,o),
(85,-13,cs),
(167,-8,o),
(250,-6,o),
(332,-6,cs),
(405,-6,o),
(476,-8,o),
(549,-11,cs),
(575,-11,o),
(589,6,o),
(590,30,cs),
(590,56,o),
(576,76,o),
(550,76,cs),
(480,79,o),
(410,81,o),
(339,81,cs),
(284,81,o),
(232,80,o),
(176,78,c),
(328,297,o),
(478,524,o),
(598,708,cs),
(620,742,o),
(592,780,o),
(564,778,cs),
(430,766,o),
(291,765,o),
(150,774,cs),
(124,775,o),
(109,755,o),
(108,730,cs),
(108,707,o),
(122,688,o),
(149,687,cs)
);
}
);
userData = {
com.hugojourdan.ColorFlow = {
"0" = 0;
"1" = 0;
"10" = 0;
"11" = 0;
"2" = 0;
"3" = 0;
"4" = 0;
"5" = 0;
"6" = 0;
"7" = 0;
"8" = 0;
"9" = 0;
};
};
width = 652.7;
}
);
unicode = 90;
}
{
glyphname = backslash;
kernLeft = backslash;
kernRight = backslash;
layers = (
{
background = {
shapes = (
{
closed = 1;
nodes = (
(149,846,o),
(126,854,o),
(107,848,cs),
(86,844,o),
(70,826,o),
(77,800,cs),
(154,577,o),
(281,114,o),
(338,-115,cs),
(344,-141,o),
(367,-149,o),
(386,-144,cs),
(407,-139,o),
(423,-121,o),
(417,-96,cs),
(360,133,o),
(233,597,o),
(156,819,cs)
);
}
);
};
layerId = m01;
shapes = (
{
closed = 1;
nodes = (
(57,837,o),
(51,840,o),
(40,837,cs),
(31,835,o),
(28,827,o),
(35,809,cs),
(121,581,o),
(264,122,o),
(330,-110,cs),
(336,-130,o),
(345,-134,o),
(355,-131,cs),
(364,-129,o),
(365,-120,o),
(359,-100,cs),
(293,132,o),
(150,591,o),
(64,819,cs)
);
}
);
userData = {
com.hugojourdan.ColorFlow = {
"0" = 0;
"1" = 0;
"10" = 0;
"11" = 0;
"2" = 0;
"3" = 0;
"4" = 0;
"5" = 0;
"6" = 0;
"7" = 0;
"8" = 0;
"9" = 0;
};
};
width = 399;
},
{
background = {
shapes = (
{
closed = 1;
nodes = (
(139,846,o),
(116,854,o),
(97,848,cs),
(76,844,o),
(60,826,o),
(67,800,cs),
(144,577,o),
(271,114,o),
(328,-115,cs),
(334,-141,o),
(357,-149,o),
(376,-144,cs),
(397,-139,o),
(413,-121,o),
(407,-96,cs),
(350,133,o),
(223,597,o),
(146,819,cs)
);
}
);
};
layerId = m003;
shapes = (
{
closed = 1;
nodes = (
(148,849,o),
(111,862,o),
(59,842,cs),
(21,828,o),
(7,792,o),
(28,739,cs),
(98,563,o),
(239,112,o),
(294,-94,cs),
(308,-147,o),
(354,-158,o),
(395,-147,cs),
(435,-136,o),
(456,-108,o),
(440,-53,cs),
(384,144,o),
(241,603,o),
(168,795,cs)
);
}
);
userData = {
com.hugojourdan.ColorFlow = {
"0" = 0;
"1" = 0;
"10" = 0;
"11" = 0;
"2" = 0;
"3" = 0;
"4" = 0;
"5" = 0;
"6" = 0;
"7" = 0;
"8" = 0;
"9" = 0;
};
};
width = 460;
},
{
layerId = "5FC9277C-B92C-4C3C-88AB-70E16AEC7C11";
shapes = (
{
closed = 1;
nodes = (
(143,846,o),
(118,855,o),
(96,847,cs),
(73,842,o),
(57,823,o),
(66,794,cs),
(142,576,o),
(271,114,o),
(327,-113,cs),
(334,-142,o),
(359,-150,o),
(381,-144,cs),
(404,-139,o),
(420,-120,o),
(413,-92,cs),
(356,134,o),
(228,598,o),
(151,817,cs)
);
}
);
userData = {
com.hugojourdan.ColorFlow = {
"0" = 0;
"1" = 0;
"10" = 0;
"11" = 0;
"2" = 0;
"3" = 0;
"4" = 0;
"5" = 0;
"6" = 0;
"7" = 0;
"8" = 0;
"9" = 0;
};
};
width = 471.7;
}
);
unicode = 92;
}
{
glyphname = asciicircum;
kernLeft = superior;
kernRight = superior;
layers = (
{
layerId = m01;
shapes = (
{
closed = 1;
nodes = (
(546,381,o),
(545,385,o),
(542,389,cs),
(447,524,o),
(387,610,o),
(349,664,cs),
(340,678,o),
(337,680,o),
(332,680,cs),
(326,680,o),
(322,676,o),
(315,666,cs),
(280,614,o),
(200,503,o),
(116,384,cs),
(114,381,o),
(112,377,o),
(112,374,cs),
(112,367,o),
(121,359,o),
(129,359,cs),
(133,359,o),
(137,363,o),
(141,369,cs),
(210,477,o),
(324,631,o),
(333,641,c),
(372,584,o),
(428,511,o),
(518,372,cs),
(521,367,o),
(525,364,o),
(529,364,cs),
(536,364,o),
(546,370,o),
(546,378,cs)
);
}
);
userData = {
com.hugojourdan.ColorFlow = {
"0" = 0;
"1" = 0;
"10" = 0;
"11" = 0;
"2" = 0;
"3" = 0;
"4" = 0;
"5" = 0;
"6" = 0;
"7" = 0;
"8" = 0;
"9" = 0;
};
};
width = 650;
},
{
layerId = m003;
shapes = (
{
closed = 1;
nodes = (
(595,414,o),
(588,427,o),
(564,460,cs),
(491,561,o),
(435,627,o),
(390,691,cs),
(377,709,o),
(364,720,o),
(331,720,cs),
(299,720,o),
(281,706,o),
(266,684,cs),
(229,629,o),
(153,539,o),
(91,450,cs),
(71,421,o),
(64,406,o),
(64,390,cs),
(64,357,o),
(109,325,o),
(141,325,cs),
(157,325,o),
(172,334,o),
(189,356,cs),
(229,407,o),
(286,484,o),
(331,542,c),
(364,497,o),
(404,442,o),
(461,361,cs),
(474,342,o),
(493,327,o),
(512,327,cs),
(548,327,o),
(595,359,o),
(595,398,cs)
);
}
);
userData = {
com.hugojourdan.ColorFlow = {
"0" = 0;
"1" = 0;
"10" = 0;
"11" = 0;
"2" = 0;
"3" = 0;
"4" = 0;
"5" = 0;
"6" = 0;
"7" = 0;
"8" = 0;
"9" = 0;
};
};
width = 650;
},
{
layerId = "5FC9277C-B92C-4C3C-88AB-70E16AEC7C11";
shapes = (
{
closed = 1;
nodes = (
(560,400,o),
(556,410,o),
(539,434,cs),
(464,540,o),
(404,624,o),
(366,679,cs),
(354,696,o),
(342,706,o),
(327,706,cs),
(311,706,o),
(296,694,o),
(278,667,cs),
(252,627,o),
(174,517,o),
(108,424,cs),
(99,411,o),
(91,399,o),
(91,384,cs),
(91,365,o),
(111,348,o),
(128,348,cs),
(139,348,o),
(150,355,o),
(157,363,cs),
(202,434,o),
(287,556,o),
(327,612,c),
(367,556,o),
(415,476,o),
(485,368,cs),
(493,356,o),
(505,349,o),
(517,349,cs),
(539,349,o),
(560,366,o),
(560,389,cs)
);
}
);
userData = {
com.hugojourdan.ColorFlow = {
"0" = 0;
"1" = 0;
"10" = 0;
"11" = 0;
"2" = 0;
"3" = 0;
"4" = 0;
"5" = 0;
"6" = 0;
"7" = 0;
"8" = 0;
"9" = 0;
};
};
width = 650;
}
);
unicode = 94;
}
{
glyphname = underscore;
kernLeft = underscore;
kernRight = underscore;
layers = (
{
layerId = m01;
shapes = (
{
closed = 1;
nodes = (
(288,-88,o),
(163,-90,o),
(54,-90,cs),
(45,-90,o),
(40,-95,o),
(40,-103,cs),
(40,-110,o),
(45,-114,o),
(56,-115,cs),
(83,-116,o),
(110,-116,o),
(138,-116,cs),
(225,-116,o),
(317,-113,o),
(403,-105,cs),
(413,-104,o),
(418,-99,o),
(418,-92,cs),
(418,-84,o),
(413,-79,o),
(403,-80,cs)
);
}
);
userData = {
com.hugojourdan.ColorFlow = {
"0" = 0;
"1" = 0;
"10" = 0;
"11" = 0;
"2" = 0;
"3" = 0;
"4" = 0;
"5" = 0;
"6" = 0;
"7" = 0;
"8" = 0;
"9" = 0;
};
};
width = 484;
},
{
layerId = m003;
shapes = (
{
closed = 1;
nodes = (
(300,-32,o),
(171,-34,o),
(59,-34,cs),
(29,-34,o),
(12,-59,o),
(12,-102,cs),
(12,-145,o),
(30,-171,o),
(63,-172,cs),
(90,-173,o),
(118,-173,o),
(148,-173,cs),
(237,-173,o),
(330,-169,o),
(418,-161,cs),
(449,-157,o),
(467,-130,o),
(467,-89,cs),
(467,-45,o),
(449,-21,o),
(418,-24,cs)
);
}
);
userData = {
com.hugojourdan.ColorFlow = {
"0" = 0;
"1" = 0;
"10" = 0;
"11" = 0;
"2" = 0;
"3" = 0;
"4" = 0;
"5" = 0;
"6" = 0;
"7" = 0;
"8" = 0;
"9" = 0;
};
};
width = 505;
},
{
layerId = "5FC9277C-B92C-4C3C-88AB-70E16AEC7C11";
shapes = (
{
closed = 1;
nodes = (
(307,-57,o),
(182,-59,o),
(73,-59,cs),
(47,-59,o),
(35,-79,o),
(35,-102,cs),
(35,-124,o),
(48,-145,o),
(75,-146,cs),
(102,-147,o),
(129,-147,o),
(157,-147,cs),
(244,-147,o),
(336,-144,o),
(423,-136,cs),
(449,-133,o),
(463,-111,o),
(463,-89,cs),
(463,-67,o),
(449,-47,o),
(423,-49,cs)
);
}
);
userData = {
com.hugojourdan.ColorFlow = {
"0" = 0;
"1" = 0;
"10" = 0;
"11" = 0;
"2" = 0;
"3" = 0;
"4" = 0;
"5" = 0;
"6" = 0;
"7" = 0;
"8" = 0;
"9" = 0;
};
};
width = 522.1;
}
);
unicode = 95;
}
{
color = 4;
glyphname = a;
kernLeft = a;
kernRight = a;
layers = (
{
anchors = (
{
name = bottom;
pos = (295,0);
},
{
name = ogonek;
pos = (545,10);
},
{
name = top;
pos = (313,536);
}
);
layerId = m01;
shapes = (
{
closed = 1;
nodes = (
(57,98,o),
(123,0,o),
(239,0,cs),
(312,0,o),
(374,59,o),
(407,142,c),
(415,63,o),
(443,-9,o),
(500,-9,cs),
(543,-9,o),
(573,28,o),
(586,59,cs),
(593,77,o),
(594,88,o),
(581,93,cs),
(569,97,o),
(562,82,o),
(554,67,cs),
(537,35,o),
(520,23,o),
(499,23,cs),
(470,23,o),
(436,70,o),
(434,185,cs),
(433,214,o),
(444,298,o),
(449,327,cs),
(457,387,o),
(467,462,o),
(474,506,cs),
(477,526,o),
(467,531,o),
(460,531,cs),
(455,531,o),
(443,527,o),
(437,498,c),
(390,529,o),
(336,536,o),
(307,536,cs),
(173,536,o),
(57,392,o),
(57,234,cs)
);
},
{
closed = 1;
nodes = (
(87,358,o),
(176,507,o),
(301,507,cs),
(333,507,o),
(387,500,o),
(431,465,c),
(425,390,o),
(413,236,o),
(387,165,cs),
(364,103,o),
(317,28,o),
(235,28,cs),
(150,28,o),
(87,109,o),
(87,235,cs)
);
}
);
userData = {
com.hugojourdan.ColorFlow = {
"0" = 0;
"1" = 0;
"10" = 0;
"11" = 0;
"2" = 0;
"3" = 0;
"4" = 0;
"5" = 0;
"6" = 0;
"7" = 0;
"8" = 0;
"9" = 0;
};
};
width = 596;
},
{
anchors = (
{
name = bottom;
pos = (329,0);
},
{
name = ogonek;
pos = (573,10);
},
{
name = top;
pos = (339,536);
}
);
layerId = m003;
shapes = (
{
closed = 1;
nodes = (
(30,98,o),
(111,-3,o),
(245,-3,cs),
(317,-3,o),
(379,36,o),
(412,87,c),
(425,31,o),
(473,-9,o),
(531,-9,cs),
(588,-9,o),
(662,37,o),
(674,75,cs),
(687,117,o),
(656,153,o),
(629,153,cs),
(612,153,o),
(606,147,o),
(591,138,cs),
(583,133,o),
(577,128,o),
(568,128,cs),
(539,128,o),
(543,186,o),
(546,215,cs),
(549,244,o),
(556,298,o),
(561,327,cs),
(569,387,o),
(585,457,o),
(586,492,cs),
(587,529,o),
(539,558,o),
(484,558,cs),
(437,558,o),
(425,534,o),
(419,505,c),
(389,535,o),
(353,555,o),
(297,555,cs),
(127,555,o),
(30,397,o),
(30,234,cs)
);
},
{
closed = 1;
nodes = (
(221,344,o),
(259,420,o),
(323,420,cs),
(349,420,o),
(369,410,o),
(384,396,c),
(380,334,o),
(370,270,o),
(351,208,cs),
(338,168,o),
(312,141,o),
(278,141,cs),
(236,141,o),
(221,188,o),
(221,242,cs)
);
}
);
userData = {
com.hugojourdan.ColorFlow = {
"0" = 0;
"1" = 0;
"10" = 0;
"11" = 0;
"2" = 0;
"3" = 0;
"4" = 0;
"5" = 0;
"6" = 0;
"7" = 0;
"8" = 0;
"9" = 0;
};
};
width = 692;
},
{
anchors = (
{
name = bottom;
pos = (300,0);
},
{
name = ogonek;
pos = (544,10);
},
{
name = top;
pos = (318,536);
}
);
layerId = "5FC9277C-B92C-4C3C-88AB-70E16AEC7C11";
shapes = (
{
closed = 1;
nodes = (
(51,98,o),
(117,-1,o),
(245,-1,cs),
(311,-1,o),
(357,33,o),
(397,92,c),
(407,28,o),
(445,-9,o),
(502,-9,cs),
(568,-9,o),
(616,47,o),
(617,85,cs),
(619,112,o),
(598,129,o),
(576,129,cs),
(562,129,o),
(549,123,o),
(542,109,cs),
(531,87,o),
(520,77,o),
(505,77,cs),
(476,77,o),
(467,158,o),
(468,197,cs),
(468,226,o),
(478,298,o),
(483,327,cs),
(491,387,o),
(501,453,o),
(502,494,cs),
(503,525,o),
(481,542,o),
(455,542,cs),
(433,542,o),
(421,530,o),
(415,501,c),
(376,531,o),
(335,543,o),
(295,543,cs),
(154,543,o),
(51,392,o),
(51,234,cs)
);
},
{
closed = 1;
nodes = (
(144,352,o),
(203,460,o),
(299,460,cs),
(328,460,o),
(368,446,o),
(400,419,c),
(395,349,o),
(384,247,o),
(357,181,cs),
(334,123,o),
(304,83,o),
(248,83,cs),
(178,83,o),
(144,140,o),
(144,238,cs)
);
}
);
userData = {
com.hugojourdan.ColorFlow = {
"0" = 0;
"1" = 0;
"10" = 0;
"11" = 0;
"2" = 0;
"3" = 0;
"4" = 0;
"5" = 0;
"6" = 0;
"7" = 0;
"8" = 0;
"9" = 0;
};
};
width = 621.8;
}
);
unicode = 97;
}
{
color = 4;
glyphname = c;
kernLeft = o;
kernRight = c;
layers = (
{
anchors = (
{
name = bottom;
pos = (250,5);
},
{
name = top;
pos = (288,534);
}
);
background = {
shapes = (
{
closed = 1;
nodes = (
(325,-4,o),
(392,62,o),
(425,106,cs),
(431,114,o),
(436,122,o),
(436,129,cs),
(436,138,o),
(430,142,o),
(422,142,cs),
(415,142,o),
(411,137,o),
(406,130,cs),
(355,59,o),
(297,24,o),
(240,24,cs),
(138,25,o),
(81,165,o),
(81,267,cs),
(81,426,o),
(205,512,o),
(274,512,cs),
(358,512,o),
(395,467,o),
(415,426,cs),
(421,415,o),
(425,407,o),
(433,407,cs),
(441,407,o),
(446,414,o),
(446,421,cs),
(446,428,o),
(444,434,o),
(441,441,cs),
(410,509,o),
(344,540,o),
(278,540,cs),
(151,540,o),
(50,404,o),
(50,267,cs),
(50,152,o),
(117,-4,o),
(240,-4,cs)
);
}
);
};
layerId = m01;
shapes = (
{
closed = 1;
nodes = (
(311,-4,o),
(382,38,o),
(433,106,cs),
(441,115,o),
(444,123,o),
(444,129,cs),
(444,137,o),
(439,142,o),
(430,142,cs),
(425,142,o),
(422,140,o),
(414,130,cs),
(364,60,o),
(307,24,o),
(248,24,cs),
(163,25,o),
(89,139,o),
(89,267,cs),
(89,390,o),
(185,512,o),
(282,512,cs),
(348,512,o),
(395,483,o),
(423,426,cs),
(429,415,o),
(433,407,o),
(441,407,cs),
(448,407,o),
(454,413,o),
(454,421,cs),
(454,428,o),
(453,434,o),
(449,441,cs),
(421,503,o),
(360,540,o),
(286,540,cs),
(165,540,o),
(58,412,o),
(58,267,cs),
(58,122,o),
(146,-4,o),
(248,-4,cs)
);
}
);
userData = {
com.hugojourdan.ColorFlow = {
"0" = 0;
"1" = 0;
"10" = 0;
"11" = 0;
"2" = 0;
"3" = 0;
"4" = 0;
"5" = 0;
"6" = 0;
"7" = 0;
"8" = 0;
"9" = 0;
};
};
width = 496;
},
{
anchors = (
{
name = bottom;
pos = (279,6);
},
{
name = top;
pos = (294,536);
}
);
layerId = m003;
shapes = (
{
closed = 1;
nodes = (
(358,-4,o),
(453,33,o),
(516,109,cs),
(530,125,o),
(531,139,o),
(531,149,cs),
(531,185,o),
(483,224,o),
(451,224,cs),
(435,224,o),
(426,219,o),
(414,206,cs),
(381,169,o),
(351,140,o),
(300,140,cs),
(241,140,o),
(216,215,o),
(216,267,cs),
(216,355,o),
(257,417,o),
(318,417,cs),
(350,417,o),
(376,405,o),
(400,375,cs),
(415,357,o),
(426,348,o),
(443,348,cs),
(474,348,o),
(524,377,o),
(524,413,cs),
(524,427,o),
(520,441,o),
(511,454,cs),
(455,532,o),
(388,555,o),
(313,555,cs),
(139,555,o),
(27,426,o),
(27,271,cs),
(27,134,o),
(106,-4,o),
(279,-4,cs)
);
}
);
userData = {
com.hugojourdan.ColorFlow = {
"0" = 0;
"1" = 0;
"10" = 0;
"11" = 0;
"2" = 0;
"3" = 0;
"4" = 0;
"5" = 0;
"6" = 0;
"7" = 0;
"8" = 0;
"9" = 0;
};
};
width = 560;
},
{
anchors = (
{
name = bottom;
pos = (274,10);
},
{
name = top;
pos = (296,536);
}
);
layerId = "5FC9277C-B92C-4C3C-88AB-70E16AEC7C11";
shapes = (
{
closed = 1;
nodes = (
(345,-4,o),
(417,47,o),
(471,107,cs),
(481,117,o),
(483,126,o),
(483,136,cs),
(483,159,o),
(461,181,o),
(438,181,cs),
(429,181,o),
(420,176,o),
(411,167,cs),
(375,126,o),
(324,81,o),
(268,81,cs),
(184,82,o),
(144,184,o),
(144,267,cs),
(144,398,o),
(235,462,o),
(302,462,cs),
(334,462,o),
(377,452,o),
(398,413,cs),
(410,392,o),
(421,384,o),
(438,384,cs),
(460,384,o),
(484,400,o),
(484,426,cs),
(484,431,o),
(482,436,o),
(480,441,cs),
(451,516,o),
(373,546,o),
(298,546,cs),
(157,546,o),
(51,413,o),
(51,268,cs),
(51,145,o),
(123,-4,o),
(266,-4,cs)
);
}
);
userData = {
com.hugojourdan.ColorFlow = {
"0" = 0;
"1" = 0;
"10" = 0;
"11" = 0;
"2" = 0;
"3" = 0;
"4" = 0;
"5" = 0;
"6" = 0;
"7" = 0;
"8" = 0;
"9" = 0;
};
};
width = 522.2;
}
);
unicode = 99;
}
{
color = 4;
glyphname = e;
kernLeft = o;
kernRight = e;
layers = (
{
anchors = (
{
name = bottom;
pos = (277,10);
},
{
name = ogonek;
pos = (359,25);
},
{
name = top;
pos = (294,533);
}
);
background = {
shapes = (
{
closed = 1;
nodes = (
(333,3,o),
(403,42,o),
(444,98,cs),
(450,107,o),
(455,115,o),
(455,120,cs),
(455,128,o),
(447,133,o),
(441,133,cs),
(435,133,o),
(433,130,o),
(427,123,cs),
(371,53,o),
(322,30,o),
(265,30,cs),
(157,30,o),
(92,141,o),
(82,231,c),
(167,234,o),
(278,243,o),
(354,292,cs),
(405,324,o),
(429,360,o),
(429,410,cs),
(429,483,o),
(370,539,o),
(306,539,cs),
(169,539,o),
(52,391,o),
(52,260,cs),
(52,127,o),
(140,3,o),
(265,3,cs)
);
},
{
closed = 1;
nodes = (
(82,374,o),
(177,514,o),
(311,514,cs),
(359,514,o),
(399,460,o),
(399,417,cs),
(399,371,o),
(373,336,o),
(337,314,cs),
(271,273,o),
(157,259,o),
(81,258,c)
);
}
);
};
layerId = m01;
shapes = (
{
closed = 1;
nodes = (
(340,3,o),
(410,41,o),
(452,98,cs),
(460,110,o),
(463,116,o),
(463,120,cs),
(463,127,o),
(456,133,o),
(449,133,cs),
(443,133,o),
(441,130,o),
(435,123,cs),
(383,58,o),
(334,30,o),
(273,30,cs),
(183,30,o),
(103,118,o),
(90,231,c),
(216,235,o),
(305,255,o),
(362,292,cs),
(414,325,o),
(437,363,o),
(437,415,cs),
(437,482,o),
(382,539,o),
(314,539,cs),
(186,539,o),
(60,401,o),
(60,260,cs),
(60,118,o),
(155,3,o),
(273,3,cs)
);
},
{
closed = 1;
nodes = (
(90,391,o),
(200,514,o),
(312,514,cs),
(363,514,o),
(407,465,o),
(407,417,cs),
(407,375,o),
(385,338,o),
(345,314,cs),
(293,281,o),
(192,259,o),
(89,258,c)
);
}
);
userData = {
com.hugojourdan.ColorFlow = {
"0" = 0;
"1" = 0;
"10" = 0;
"11" = 0;
"2" = 0;
"3" = 0;
"4" = 0;
"5" = 0;
"6" = 0;
"7" = 0;
"8" = 0;
"9" = 0;
};
};
width = 518;
},
{
anchors = (
{
name = bottom;
pos = (286,4);
},
{
name = ogonek;
pos = (395,28);
},
{
name = top;
pos = (298,536);
}
);
layerId = m003;
shapes = (
{
closed = 1;
nodes = (
(382,-5,o),
(460,36,o),
(510,90,cs),
(519,99,o),
(533,122,o),
(528,144,cs),
(521,175,o),
(481,213,o),
(454,213,cs),
(445,213,o),
(432,210,o),
(415,191,cs),
(387,161,o),
(353,137,o),
(308,137,cs),
(258,137,o),
(229,166,o),
(212,202,c),
(290,209,o),
(354,226,o),
(411,265,cs),
(460,298,o),
(487,345,o),
(487,410,cs),
(487,499,o),
(428,555,o),
(310,555,cs),
(137,555,o),
(23,401,o),
(23,260,cs),
(23,131,o),
(96,-5,o),
(290,-5,cs)
);
},
{
closed = 1;
nodes = (
(210,361,o),
(244,434,o),
(288,434,cs),
(312,434,o),
(324,419,o),
(324,402,cs),
(324,371,o),
(301,346,o),
(273,336,cs),
(245,324,o),
(235,322,o),
(204,319,c)
);
}
);
userData = {
com.hugojourdan.ColorFlow = {
"0" = 0;
"1" = 0;
"10" = 0;
"11" = 0;
"2" = 0;
"3" = 0;
"4" = 0;
"5" = 0;
"6" = 0;
"7" = 0;
"8" = 0;
"9" = 0;
};
};
width = 546;
},
{
anchors = (
{
name = bottom;
pos = (268,0);
},
{
name = ogonek;
pos = (359,23);
},
{
name = top;
pos = (293,536);
}
);
layerId = "5FC9277C-B92C-4C3C-88AB-70E16AEC7C11";
shapes = (
{
closed = 1;
nodes = (
(360,0,o),
(427,41,o),
(477,95,cs),
(486,104,o),
(490,114,o),
(489,125,cs),
(489,148,o),
(468,169,o),
(445,169,cs),
(436,169,o),
(425,165,o),
(417,155,cs),
(383,117,o),
(335,84,o),
(286,84,cs),
(208,84,o),
(162,148,o),
(146,206,c),
(228,209,o),
(312,223,o),
(380,270,cs),
(430,301,o),
(460,354,o),
(460,410,cs),
(460,489,o),
(400,545,o),
(315,545,cs),
(169,545,o),
(50,395,o),
(50,260,cs),
(50,131,o),
(136,0,o),
(282,0,cs)
);
},
{
closed = 1;
nodes = (
(154,368,o),
(226,463,o),
(312,463,cs),
(351,463,o),
(370,438,o),
(370,411,cs),
(370,364,o),
(331,331,o),
(287,314,cs),
(237,294,o),
(195,290,o),
(142,288,c)
);
}
);
userData = {
com.hugojourdan.ColorFlow = {
"0" = 0;
"1" = 0;
"10" = 0;
"11" = 0;
"2" = 0;
"3" = 0;
"4" = 0;
"5" = 0;
"6" = 0;
"7" = 0;
"8" = 0;
"9" = 0;
};
};
width = 530.7;
}
);
unicode = 101;
}
{
color = 4;
glyphname = m;
kernLeft = n;
kernRight = n;
layers = (
{
anchors = (
{
name = bottom;
pos = (435,0);
},
{
name = top;
pos = (453,536);
}
);
layerId = m01;
shapes = (
{
closed = 1;
nodes = (
(119,445,o),
(113,378,o),
(111,309,cs),
(107,217,o),
(104,125,o),
(99,9,cs),
(99,-5,o),
(102,-11,o),
(111,-11,cs),
(123,-11,o),
(128,-5,o),
(129,12,cs),
(134,103,o),
(138,233,o),
(143,337,c),
(193,440,o),
(269,514,o),
(325,514,cs),
(390,514,o),
(431,440,o),
(431,325,cs),
(431,203,o),
(417,78,o),
(417,10,cs),
(417,-5,o),
(422,-11,o),
(434,-11,cs),
(442,-11,o),
(447,-3,o),
(447,12,cs),
(448,56,o),
(455,143,o),
(458,202,cs),
(460,236,o),
(463,319,o),
(463,351,c),
(490,431,o),
(582,514,o),
(644,514,cs),
(725,514,o),
(767,436,o),
(767,285,cs),
(767,170,o),
(745,35,o),
(745,14,cs),
(745,0,o),
(748,-5,o),
(758,-5,cs),
(767,-5,o),
(773,1,o),
(775,14,cs),
(790,155,o),
(797,203,o),
(797,290,cs),
(797,453,o),
(743,542,o),
(644,542,cs),
(582,542,o),
(505,482,o),
(456,395,c),
(437,491,o),
(391,542,o),
(325,542,cs),
(268,542,o),
(194,480,o),
(145,390,c),
(151,465,o),
(160,498,o),
(160,521,cs),
(160,536,o),
(157,541,o),
(148,541,cs),
(139,541,o),
(132,533,o),
(130,521,cs)
);
}
);
userData = {
com.hugojourdan.ColorFlow = {
"0" = 0;
"1" = 0;
"10" = 0;
"11" = 0;
"2" = 0;
"3" = 0;
"4" = 0;
"5" = 0;
"6" = 0;
"7" = 0;
"8" = 0;
"9" = 0;
};
};
width = 888;
},
{
anchors = (
{
name = bottom;
pos = (463,0);
},
{
name = top;
pos = (481,536);
}
);
layerId = m003;
shapes = (
{
closed = 1;
nodes = (
(64,449,o),
(59,378,o),
(57,309,cs),
(53,217,o),
(51,125,o),
(48,58,cs),
(46,3,o),
(75,-11,o),
(147,-11,cs),
(204,-11,o),
(230,3,o),
(233,53,cs),
(236,103,o),
(240,207,o),
(244,308,c),
(269,354,o),
(305,390,o),
(342,390,cs),
(376,390,o),
(384,362,o),
(384,297,cs),
(384,204,o),
(372,123,o),
(371,58,cs),
(370,4,o),
(394,-11,o),
(460,-11,cs),
(529,-11,o),
(553,3,o),
(554,53,cs),
(554,88,o),
(557,143,o),
(560,202,cs),
(562,230,o),
(563,250,o),
(564,288,c),
(586,337,o),
(619,390,o),
(663,390,cs),
(706,390,o),
(712,346,o),
(712,285,cs),
(712,170,o),
(691,95,o),
(691,52,cs),
(691,14,o),
(705,-5,o),
(784,-5,cs),
(823,-5,o),
(866,11,o),
(871,61,cs),
(880,148,o),
(891,203,o),
(891,290,cs),
(891,427,o),
(866,555,o),
(716,555,cs),
(638,555,o),
(580,512,o),
(540,452,c),
(510,531,o),
(450,551,o),
(399,551,cs),
(320,551,o),
(269,516,o),
(223,447,c),
(227,478,o),
(231,495,o),
(231,508,cs),
(231,533,o),
(200,556,o),
(157,556,cs),
(118,556,o),
(80,539,o),
(75,508,cs)
);
}
);
userData = {
com.hugojourdan.ColorFlow = {
"0" = 0;
"1" = 0;
"10" = 0;
"11" = 0;
"2" = 0;
"3" = 0;
"4" = 0;
"5" = 0;
"6" = 0;
"7" = 0;
"8" = 0;
"9" = 0;
};
};
width = 941;
},
{
anchors = (
{
name = bottom;
pos = (446,0);
},
{
name = top;
pos = (464,536);
}
);
layerId = "5FC9277C-B92C-4C3C-88AB-70E16AEC7C11";
shapes = (
{
closed = 1;
nodes = (
(101,446,o),
(96,378,o),
(94,309,cs),
(90,217,o),
(88,125,o),
(84,32,cs),
(83,3,o),
(105,-11,o),
(130,-11,cs),
(155,-11,o),
(173,3,o),
(175,31,cs),
(179,103,o),
(183,207,o),
(187,308,c),
(226,398,o),
(293,464,o),
(346,464,cs),
(387,464,o),
(412,417,o),
(412,296,cs),
(412,203,o),
(400,122,o),
(398,32,cs),
(398,3,o),
(418,-11,o),
(443,-11,cs),
(469,-11,o),
(489,3,o),
(489,31,cs),
(490,88,o),
(497,143,o),
(500,202,cs),
(502,230,o),
(503,250,o),
(504,288,c),
(517,378,o),
(599,466,o),
(659,466,cs),
(713,466,o),
(743,419,o),
(743,285,cs),
(743,170,o),
(722,65,o),
(722,41,cs),
(722,14,o),
(736,-5,o),
(767,-5,cs),
(790,-5,o),
(809,11,o),
(813,38,cs),
(825,158,o),
(834,203,o),
(834,290,cs),
(834,427,o),
(799,552,o),
(667,552,cs),
(599,552,o),
(534,508,o),
(488,438,c),
(466,517,o),
(407,548,o),
(351,548,cs),
(292,548,o),
(238,513,o),
(192,447,c),
(196,478,o),
(200,492,o),
(200,505,cs),
(200,530,o),
(183,547,o),
(157,547,cs),
(137,547,o),
(117,536,o),
(113,516,cs)
);
}
);
userData = {
com.hugojourdan.ColorFlow = {
"0" = 0;
"1" = 0;
"10" = 0;
"11" = 0;
"2" = 0;
"3" = 0;
"4" = 0;
"5" = 0;
"6" = 0;
"7" = 0;
"8" = 0;
"9" = 0;
};
};
width = 909.5;
}
);
unicode = 109;
}
{
color = 4;
glyphname = n;
kernLeft = n;
kernRight = n;
layers = (
{
anchors = (
{
name = bottom;
pos = (291,0);
},
{
name = top;
pos = (328,536);
}
);
layerId = m01;
shapes = (
{
closed = 1;
nodes = (
(117,451,o),
(116,410,o),
(110,250,c),
(99,145,o),
(94,59,o),
(96,12,cs),
(97,-5,o),
(101,-11,o),
(110,-11,cs),
(121,-11,o),
(124,-8,o),
(125,5,cs),
(130,81,o),
(138,186,o),
(140,289,c),
(174,414,o),
(269,518,o),
(349,518,cs),
(436,518,o),
(480,456,o),
(480,333,cs),
(480,233,o),
(455,119,o),
(455,16,cs),
(455,-5,o),
(458,-10,o),
(469,-10,cs),
(480,-10,o),
(485,0,o),
(485,19,cs),
(485,113,o),
(510,215,o),
(510,330,cs),
(510,476,o),
(458,546,o),
(349,546,cs),
(275,546,o),
(199,482,o),
(146,374,c),
(149,430,o),
(153,483,o),
(157,532,cs),
(158,544,o),
(154,550,o),
(144,550,cs),
(134,550,o),
(127,545,o),
(126,536,cs)
);
}
);
userData = {
com.hugojourdan.ColorFlow = {
"0" = 0;
"1" = 0;
"10" = 0;
"11" = 0;
"2" = 0;
"3" = 0;
"4" = 0;
"5" = 0;
"6" = 0;
"7" = 0;
"8" = 0;
"9" = 0;
};
};
width = 601;
},
{
anchors = (
{
name = bottom;
pos = (299,0);
},
{
name = top;
pos = (317,536);
}
);
layerId = m003;
shapes = (
{
closed = 1;
nodes = (
(54,457,o),
(61,364,o),
(66,221,c),
(55,171,o),
(52,118,o),
(52,71,cs),
(52,27,o),
(61,-14,o),
(150,-14,cs),
(215,-14,o),
(241,12,o),
(243,42,cs),
(247,96,o),
(245,173,o),
(240,247,c),
(260,316,o),
(297,390,o),
(344,390,cs),
(378,390,o),
(393,364,o),
(393,297,cs),
(393,197,o),
(361,141,o),
(361,53,cs),
(361,17,o),
(381,-13,o),
(448,-13,cs),
(516,-13,o),
(546,17,o),
(546,47,cs),
(546,135,o),
(574,215,o),
(574,322,cs),
(574,459,o),
(514,552,o),
(397,552,cs),
(283,552,o),
(249,481,o),
(230,433,c),
(229,471,o),
(237,496,o),
(237,515,cs),
(237,536,o),
(216,563,o),
(159,563,cs),
(97,563,o),
(71,550,o),
(64,510,cs)
);
}
);
userData = {
com.hugojourdan.ColorFlow = {
"0" = 0;
"1" = 0;
"10" = 0;
"11" = 0;
"2" = 0;
"3" = 0;
"4" = 0;
"5" = 0;
"6" = 0;
"7" = 0;
"8" = 0;
"9" = 0;
};
};
width = 621;
},
{
anchors = (
{
name = bottom;
pos = (292,0);
},
{
name = top;
pos = (310,536);
}
);
layerId = "5FC9277C-B92C-4C3C-88AB-70E16AEC7C11";
shapes = (
{
closed = 1;
nodes = (
(89,453,o),
(90,374,o),
(92,221,c),
(81,171,o),
(78,118,o),
(78,71,cs),
(78,27,o),
(87,-12,o),
(128,-12,cs),
(156,-12,o),
(174,6,o),
(176,29,cs),
(180,90,o),
(181,161,o),
(181,235,c),
(201,316,o),
(254,461,o),
(345,461,cs),
(398,461,o),
(440,431,o),
(440,312,cs),
(440,212,o),
(411,128,o),
(411,31,cs),
(411,4,o),
(431,-11,o),
(457,-11,cs),
(482,-11,o),
(503,4,o),
(503,30,cs),
(503,122,o),
(531,215,o),
(531,317,cs),
(531,455,o),
(473,548,o),
(355,548,cs),
(278,548,o),
(221,496,o),
(182,424,c),
(184,456,o),
(191,504,o),
(191,515,cs),
(191,536,o),
(170,555,o),
(146,555,cs),
(126,555,o),
(106,546,o),
(102,523,cs)
);
}
);
userData = {
com.hugojourdan.ColorFlow = {
"0" = 0;
"1" = 0;
"10" = 0;
"11" = 0;
"2" = 0;
"3" = 0;
"4" = 0;
"5" = 0;
"6" = 0;
"7" = 0;
"8" = 0;
"9" = 0;
};
};
width = 601.2;
}
);
unicode = 110;
}
{
color = 4;
glyphname = q;
kernLeft = a;
kernRight = q;
layers = (
{
background = {
shapes = (
{
closed = 1;
nodes = (
(440,504,l),
(405,524,o),
(362,534,o),
(310,534,cs),
(145,534,o),
(54,391,o),
(54,235,cs),
(54,106,o),
(111,-6,o),
(240,-6,cs),
(307,-6,o),
(371,46,o),
(405,118,c),
(402,27,o),
(392,-185,o),
(388,-272,cs),
(388,-282,o),
(388,-293,o),
(402,-293,cs),
(415,-293,o),
(417,-284,o),
(418,-270,cs),
(427,-82,o),
(431,118,o),
(447,306,cs),
(454,388,l),
(467,437,o),
(477,484,o),
(477,514,cs),
(477,539,o),
(470,546,o),
(461,546,cs),
(453,546,o),
(445,542,o),
(443,529,cs)
);
},
{
closed = 1;
nodes = (
(82,384,o),
(177,506,o),
(309,506,cs),
(357,506,o),
(403,496,o),
(436,471,c),
(433,434,o),
(423,339,o),
(411,236,cs),
(397,118,o),
(325,22,o),
(242,22,cs),
(145,22,o),
(82,116,o),
(82,231,cs)
);
}
);
};
layerId = m01;
shapes = (
{
closed = 1;
nodes = (
(448,501,l),
(413,523,o),
(370,534,o),
(318,534,cs),
(169,534,o),
(62,409,o),
(62,235,cs),
(62,87,o),
(134,-6,o),
(248,-6,cs),
(315,-6,o),
(379,46,o),
(413,127,c),
(410,27,o),
(400,-185,o),
(396,-272,cs),
(396,-287,o),
(400,-293,o),
(410,-293,cs),
(421,-293,o),
(425,-287,o),
(426,-270,cs),
(435,-82,o),
(439,118,o),
(455,306,cs),
(462,388,l),
(478,448,o),
(485,489,o),
(485,514,cs),
(485,536,o),
(480,546,o),
(469,546,cs),
(459,546,o),
(452,540,o),
(451,529,cs)
);
},
{
closed = 1;
nodes = (
(90,387,o),
(188,506,o),
(317,506,cs),
(370,506,o),
(414,494,o),
(444,471,c),
(442,442,o),
(436,383,o),
(419,236,cs),
(405,115,o),
(331,22,o),
(250,22,cs),
(157,22,o),
(90,110,o),
(90,231,cs)
);
}
);
userData = {
com.hugojourdan.ColorFlow = {
"0" = 0;
"1" = 0;
"10" = 0;
"11" = 0;
"2" = 0;
"3" = 0;
"4" = 0;
"5" = 0;
"6" = 0;
"7" = 0;
"8" = 0;
"9" = 0;
};
};
width = 555;
},
{
layerId = m003;
shapes = (
{
closed = 1;
nodes = (
(417,506,l),
(382,537,o),
(349,555,o),
(299,555,cs),
(148,555,o),
(29,415,o),
(29,235,cs),
(29,106,o),
(113,-5,o),
(233,-5,cs),
(299,-5,o),
(345,27,o),
(379,72,c),
(376,-19,o),
(365,-176,o),
(363,-233,cs),
(361,-277,o),
(390,-303,o),
(450,-303,cs),
(515,-303,o),
(547,-286,o),
(547,-243,cs),
(547,-72,o),
(552,118,o),
(568,306,cs),
(575,388,l),
(582,422,o),
(594,471,o),
(594,506,cs),
(594,534,o),
(577,555,o),
(499,555,cs),
(456,555,o),
(426,542,o),
(419,514,cs)
);
},
{
closed = 1;
nodes = (
(224,346,o),
(268,415,o),
(326,415,cs),
(349,415,o),
(371,405,o),
(387,385,c),
(385,360,o),
(382,332,o),
(376,263,c),
(366,197,o),
(337,139,o),
(283,139,cs),
(255,139,o),
(224,165,o),
(224,243,cs)
);
}
);
userData = {
com.hugojourdan.ColorFlow = {
"0" = 0;
"1" = 0;
"10" = 0;
"11" = 0;
"2" = 0;
"3" = 0;
"4" = 0;
"5" = 0;
"6" = 0;
"7" = 0;
"8" = 0;
"9" = 0;
};
};
width = 626;
},
{
layerId = "5FC9277C-B92C-4C3C-88AB-70E16AEC7C11";
shapes = (
{
closed = 1;
nodes = (
(435,506,l),
(400,529,o),
(361,542,o),
(319,542,cs),
(156,542,o),
(54,401,o),
(54,235,cs),
(54,106,o),
(122,-5,o),
(250,-5,cs),
(308,-5,o),
(358,22,o),
(392,67,c),
(389,-24,o),
(385,-181,o),
(382,-259,cs),
(381,-282,o),
(401,-303,o),
(425,-303,cs),
(453,-303,o),
(472,-286,o),
(473,-260,cs),
(479,-72,o),
(482,118,o),
(498,306,cs),
(505,388,l),
(512,422,o),
(527,471,o),
(527,506,cs),
(527,534,o),
(517,550,o),
(484,550,cs),
(463,550,o),
(443,542,o),
(439,523,cs)
);
},
{
closed = 1;
nodes = (
(148,369,o),
(220,458,o),
(318,458,cs),
(355,458,o),
(392,446,o),
(419,419,c),
(416,387,o),
(411,351,o),
(400,261,c),
(381,150,o),
(337,80,o),
(247,80,cs),
(201,80,o),
(148,135,o),
(148,236,cs)
);
}
);
userData = {
com.hugojourdan.ColorFlow = {
"0" = 0;
"1" = 0;
"10" = 0;
"11" = 0;
"2" = 0;
"3" = 0;
"4" = 0;
"5" = 0;
"6" = 0;
"7" = 0;
"8" = 0;
"9" = 0;
};
};
width = 581.9;
}
);
unicode = 113;
}
{
color = 4;
glyphname = s;
kernLeft = s;
kernRight = s;
layers = (
{
anchors = (
{
name = bottom;
pos = (220,10);
},
{
name = top;
pos = (255,536);
}
);
layerId = m01;
shapes = (
{
closed = 1;
nodes = (
(354,508,o),
(304,534,o),
(245,534,cs),
(161,534,o),
(95,478,o),
(95,407,cs),
(95,346,o),
(128,309,o),
(218,271,cs),
(314,230,o),
(353,188,o),
(353,125,cs),
(353,65,o),
(306,20,o),
(244,20,cs),
(187,20,o),
(124,46,o),
(74,91,cs),
(65,100,o),
(57,105,o),
(51,105,cs),
(45,105,o),
(39,98,o),
(39,91,cs),
(39,85,o),
(42,80,o),
(49,73,cs),
(105,24,o),
(183,-8,o),
(246,-8,cs),
(322,-8,o),
(383,52,o),
(383,127,cs),
(383,202,o),
(343,247,o),
(232,296,cs),
(154,331,o),
(124,360,o),
(124,401,cs),
(124,466,o),
(170,507,o),
(244,507,cs),
(287,507,o),
(318,492,o),
(351,455,cs),
(364,440,o),
(370,424,o),
(381,424,cs),
(391,424,o),
(398,431,o),
(397,440,cs),
(396,446,o),
(394,449,o),
(387,460,cs)
);
}
);
userData = {
com.hugojourdan.ColorFlow = {
"0" = 0;
"1" = 0;
"10" = 0;
"11" = 0;
"2" = 0;
"3" = 0;
"4" = 0;
"5" = 0;
"6" = 0;
"7" = 0;
"8" = 0;
"9" = 0;
};
};
width = 447;
},
{
anchors = (
{
name = bottom;
pos = (241,0);
},
{
name = top;
pos = (257,538);
}
);
layerId = m003;
shapes = (
{
closed = 1;
nodes = (
(400,538,o),
(323,555,o),
(261,555,cs),
(133,555,o),
(41,477,o),
(41,378,cs),
(41,305,o),
(74,257,o),
(194,199,cs),
(237,178,o),
(265,166,o),
(265,144,cs),
(265,129,o),
(248,123,o),
(223,123,cs),
(178,123,o),
(145,138,o),
(103,165,cs),
(94,171,o),
(87,174,o),
(75,174,cs),
(46,174,o),
(14,134,o),
(14,95,cs),
(14,71,o),
(26,59,o),
(38,49,cs),
(89,6,o),
(165,-8,o),
(239,-8,cs),
(367,-8,o),
(450,76,o),
(450,172,cs),
(450,265,o),
(399,293,o),
(317,338,cs),
(254,372,o),
(229,382,o),
(229,404,cs),
(229,423,o),
(247,430,o),
(264,430,cs),
(295,430,o),
(324,410,o),
(346,392,cs),
(357,383,o),
(367,375,o),
(389,375,cs),
(424,375,o),
(460,425,o),
(460,453,cs),
(460,473,o),
(450,488,o),
(439,499,cs)
);
}
);
userData = {
com.hugojourdan.ColorFlow = {
"0" = 0;
"1" = 0;
"10" = 0;
"11" = 0;
"2" = 0;
"3" = 0;
"4" = 0;
"5" = 0;
"6" = 0;
"7" = 0;
"8" = 0;
"9" = 0;
};
};
width = 484;
},
{
anchors = (
{
name = bottom;
pos = (226,0);
},
{
name = top;
pos = (251,536);
}
);
layerId = "5FC9277C-B92C-4C3C-88AB-70E16AEC7C11";
shapes = (
{
closed = 1;
nodes = (
(376,516,o),
(313,542,o),
(251,542,cs),
(158,542,o),
(76,483,o),
(76,400,cs),
(76,331,o),
(115,282,o),
(208,240,cs),
(266,214,o),
(307,180,o),
(307,132,cs),
(307,102,o),
(285,75,o),
(234,75,cs),
(189,75,o),
(135,107,o),
(93,140,cs),
(84,147,o),
(77,149,o),
(70,149,cs),
(47,149,o),
(27,126,o),
(27,102,cs),
(27,92,o),
(31,82,o),
(40,74,cs),
(90,30,o),
(167,-8,o),
(241,-8,cs),
(339,-8,o),
(400,58,o),
(400,138,cs),
(400,232,o),
(326,281,o),
(257,316,cs),
(196,346,o),
(170,361,o),
(170,402,cs),
(170,437,o),
(207,460,o),
(251,460,cs),
(297,460,o),
(329,435,o),
(343,415,cs),
(352,405,o),
(363,398,o),
(376,398,cs),
(398,398,o),
(420,416,o),
(420,440,cs),
(420,449,o),
(418,460,o),
(409,471,cs)
);
}
);
userData = {
com.hugojourdan.ColorFlow = {
"0" = 0;
"1" = 0;
"10" = 0;
"11" = 0;
"2" = 0;
"3" = 0;
"4" = 0;
"5" = 0;
"6" = 0;
"7" = 0;
"8" = 0;
"9" = 0;
};
};
width = 456.1;
}
);
unicode = 115;
}
{
color = 4;
glyphname = v;
kernLeft = v;
kernRight = v;
layers = (
{
background = {
shapes = (
{
closed = 1;
nodes = (
(69,421,o),
(158,185,o),
(216,-1,cs),
(219,-10,o),
(222,-10,o),
(223,-10,cs),
(229,-10,o),
(231,-6,o),
(233,-2,cs),
(270,83,o),
(410,410,o),
(449,476,cs),
(456,487,o),
(460,496,o),
(463,503,cs),
(465,507,o),
(465,510,o),
(465,513,cs),
(465,520,o),
(460,524,o),
(450,524,cs),
(443,524,o),
(437,519,o),
(433,512,cs),
(378,411,o),
(295,200,o),
(229,50,c),
(184,179,o),
(117,374,o),
(65,505,cs),
(59,520,o),
(56,526,o),
(51,528,cs),
(44,531,o),
(32,529,o),
(30,517,cs),
(29,512,o),
(31,506,o),
(35,497,cs)
);
}
);
};
layerId = m01;
shapes = (
{
closed = 1;
nodes = (
(77,425,o),
(165,185,o),
(223,-1,cs),
(226,-10,o),
(230,-10,o),
(231,-10,cs),
(237,-10,o),
(241,-5,o),
(243,-1,cs),
(303,141,o),
(386,343,o),
(469,502,cs),
(471,506,o),
(473,514,o),
(473,517,cs),
(473,522,o),
(468,528,o),
(458,528,cs),
(451,528,o),
(445,523,o),
(441,516,cs),
(386,406,o),
(300,212,o),
(236,47,c),
(196,183,o),
(125,378,o),
(73,509,cs),
(66,528,o),
(62,533,o),
(53,533,cs),
(47,533,o),
(38,530,o),
(38,519,cs),
(38,516,o),
(39,510,o),
(43,501,cs)
);
}
);
userData = {
com.hugojourdan.ColorFlow = {
"0" = 0;
"1" = 0;
"10" = 0;
"11" = 0;
"2" = 0;
"3" = 0;
"4" = 0;
"5" = 0;
"6" = 0;
"7" = 0;
"8" = 0;
"9" = 0;
};
};
width = 492;
},
{
layerId = m003;
shapes = (
{
closed = 1;
nodes = (
(84,325,o),
(135,173,o),
(173,56,cs),
(190,6,o),
(227,-14,o),
(285,-14,cs),
(339,-14,o),
(375,5,o),
(387,35,cs),
(411,94,o),
(516,348,o),
(558,435,cs),
(571,462,o),
(574,480,o),
(574,492,cs),
(574,530,o),
(514,555,o),
(475,555,cs),
(440,555,o),
(420,537,o),
(407,507,cs),
(346,367,o),
(339,329,o),
(290,188,c),
(249,329,o),
(231,400,o),
(200,507,cs),
(191,537,o),
(167,556,o),
(111,556,cs),
(60,556,o),
(28,521,o),
(28,497,cs),
(28,489,o),
(28,478,o),
(39,449,cs)
);
}
);
userData = {
com.hugojourdan.ColorFlow = {
"0" = 0;
"1" = 0;
"10" = 0;
"11" = 0;
"2" = 0;
"3" = 0;
"4" = 0;
"5" = 0;
"6" = 0;
"7" = 0;
"8" = 0;
"9" = 0;
};
};
width = 583;
},
{
layerId = "5FC9277C-B92C-4C3C-88AB-70E16AEC7C11";
shapes = (
{
closed = 1;
nodes = (
(82,329,o),
(149,176,o),
(192,19,cs),
(198,-3,o),
(218,-14,o),
(240,-14,cs),
(258,-14,o),
(275,-7,o),
(281,8,cs),
(311,82,o),
(443,388,o),
(483,462,cs),
(493,479,o),
(495,487,o),
(495,494,cs),
(495,518,o),
(469,537,o),
(445,537,cs),
(431,537,o),
(418,530,o),
(410,514,cs),
(349,398,o),
(303,279,o),
(245,132,c),
(204,266,o),
(156,387,o),
(115,509,cs),
(109,530,o),
(93,540,o),
(73,540,cs),
(49,540,o),
(26,523,o),
(26,499,cs),
(26,494,o),
(27,490,o),
(29,483,cs)
);
}
);
userData = {
com.hugojourdan.ColorFlow = {
"0" = 0;
"1" = 0;
"10" = 0;
"11" = 0;
"2" = 0;
"3" = 0;
"4" = 0;
"5" = 0;
"6" = 0;
"7" = 0;
"8" = 0;
"9" = 0;
};
};
width = 508.3;
}
);
unicode = 118;
}
{
color = 4;
glyphname = w;
kernLeft = w;
kernRight = w;
layers = (
{
anchors = (
{
name = bottom;
pos = (347,10);
},
{
name = top;
pos = (383,544);
}
);
layerId = m01;
shapes = (
{
closed = 1;
nodes = (
(557,-11,o),
(560,-1,o),
(564,18,cs),
(602,186,o),
(641,344,o),
(693,499,cs),
(696,507,o),
(699,521,o),
(699,527,cs),
(699,537,o),
(693,540,o),
(686,540,cs),
(675,540,o),
(672,536,o),
(667,520,cs),
(631,403,o),
(582,211,o),
(545,51,c),
(514,165,o),
(459,325,o),
(433,405,cs),
(422,438,o),
(412,471,o),
(402,508,cs),
(397,526,o),
(389,532,o),
(382,532,cs),
(370,532,o),
(368,524,o),
(358,493,cs),
(312,355,o),
(243,211,o),
(188,65,c),
(162,227,o),
(110,393,o),
(87,518,cs),
(84,534,o),
(77,540,o),
(71,540,cs),
(58,540,o),
(53,534,o),
(53,520,cs),
(53,510,o),
(56,500,o),
(59,489,cs),
(98,337,o),
(146,177,o),
(165,20,cs),
(168,-6,o),
(170,-12,o),
(181,-12,cs),
(189,-12,o),
(191,-6,o),
(197,10,cs),
(227,97,o),
(288,228,o),
(382,478,c),
(425,343,o),
(489,152,o),
(530,10,cs),
(534,-2,o),
(537,-11,o),
(548,-11,cs)
);
}
);
userData = {
com.hugojourdan.ColorFlow = {
"0" = 0;
"1" = 0;
"10" = 0;
"11" = 0;
"2" = 0;
"3" = 0;
"4" = 0;
"5" = 0;
"6" = 0;
"7" = 0;
"8" = 0;
"9" = 0;
};
};
width = 734;
},
{
anchors = (
{
name = bottom;
pos = (416,10);
},
{
name = top;
pos = (451,544);
}
);
layerId = m003;
shapes = (
{
closed = 1;
nodes = (
(663,-15,o),
(688,11,o),
(697,38,cs),
(750,198,o),
(793,319,o),
(848,474,cs),
(851,482,o),
(853,488,o),
(853,497,cs),
(853,536,o),
(826,559,o),
(764,559,cs),
(734,559,o),
(712,549,o),
(702,521,cs),
(661,406,o),
(642,348,o),
(610,225,c),
(586,311,o),
(581,335,o),
(562,416,cs),
(552,458,o),
(548,484,o),
(538,520,cs),
(532,542,o),
(501,560,o),
(459,560,cs),
(411,560,o),
(353,541,o),
(359,477,c),
(333,392,o),
(318,343,o),
(271,225,c),
(236,365,o),
(225,406,o),
(195,511,cs),
(187,540,o),
(166,554,o),
(116,555,cs),
(56,556,o),
(28,525,o),
(28,506,cs),
(28,497,o),
(29,493,o),
(31,482,cs),
(65,327,o),
(132,190,o),
(165,44,cs),
(174,6,o),
(199,-12,o),
(243,-12,cs),
(271,-12,o),
(328,-16,o),
(347,31,cs),
(366,77,o),
(379,144,o),
(436,275,c),
(471,159,o),
(485,120,o),
(512,31,cs),
(524,-7,o),
(563,-15,o),
(597,-15,cs)
);
}
);
userData = {
com.hugojourdan.ColorFlow = {
"0" = 0;
"1" = 0;
"10" = 0;
"11" = 0;
"2" = 0;
"3" = 0;
"4" = 0;
"5" = 0;
"6" = 0;
"7" = 0;
"8" = 0;
"9" = 0;
};
};
width = 865;
},
{
anchors = (
{
name = bottom;
pos = (368,10);
},
{
name = top;
pos = (413,544);
}
);
layerId = "5FC9277C-B92C-4C3C-88AB-70E16AEC7C11";
shapes = (
{
closed = 1;
nodes = (
(585,-15,o),
(603,1,o),
(607,28,cs),
(632,188,o),
(700,336,o),
(755,491,cs),
(758,499,o),
(760,505,o),
(760,510,cs),
(760,534,o),
(739,550,o),
(714,550,cs),
(695,550,o),
(680,541,o),
(673,520,cs),
(632,405,o),
(586,294,o),
(553,167,c),
(525,253,o),
(498,331,o),
(475,412,cs),
(464,448,o),
(457,484,o),
(447,520,cs),
(441,542,o),
(424,551,o),
(407,551,cs),
(377,551,o),
(357,532,o),
(355,504,c),
(310,396,o),
(265,285,o),
(216,162,c),
(183,290,o),
(149,398,o),
(122,516,cs),
(117,536,o),
(100,546,o),
(81,546,cs),
(56,546,o),
(33,530,o),
(33,511,cs),
(33,502,o),
(34,498,o),
(36,487,cs),
(70,332,o),
(136,182,o),
(160,20,cs),
(163,-1,o),
(183,-12,o),
(203,-12,cs),
(221,-12,o),
(240,-3,o),
(248,18,cs),
(273,89,o),
(311,188,o),
(393,383,c),
(431,259,o),
(480,137,o),
(517,16,cs),
(523,-6,o),
(539,-15,o),
(559,-15,cs)
);
}
);
userData = {
com.hugojourdan.ColorFlow = {
"0" = 0;
"1" = 0;
"10" = 0;
"11" = 0;
"2" = 0;
"3" = 0;
"4" = 0;
"5" = 0;
"6" = 0;
"7" = 0;
"8" = 0;
"9" = 0;
};
};
width = 772.3;
}
);
unicode = 119;
}
{
color = 4;
glyphname = z;
kernLeft = z;
kernRight = z;
layers = (
{
anchors = (
{
name = bottom;
pos = (231,20);
},
{
name = center;
pos = (260,268);
},
{
name = top;
pos = (250,526);
}
);
layerId = m01;
shapes = (
{
closed = 1;
nodes = (
(388,507,l),
(325,414,o),
(111,119,o),
(49,30,cs),
(40,17,o),
(37,11,o),
(37,5,cs),
(37,-7,o),
(49,-12,o),
(57,-12,cs),
(65,-12,o),
(74,4,o),
(84,19,c),
(165,18,o),
(284,13,o),
(375,6,cs),
(395,4,o),
(402,14,o),
(402,25,cs),
(402,33,o),
(395,38,o),
(384,38,cs),
(294,40,o),
(176,44,o),
(98,46,c),
(193,185,o),
(322,360,o),
(408,480,cs),
(416,492,o),
(424,504,o),
(424,517,cs),
(424,533,o),
(406,541,o),
(394,539,cs),
(369,537,o),
(330,537,o),
(86,537,cs),
(75,537,o),
(72,531,o),
(72,522,cs),
(72,512,o),
(77,507,o),
(89,507,cs)
);
}
);
userData = {
com.hugojourdan.ColorFlow = {
"0" = 0;
"1" = 0;
"10" = 0;
"11" = 0;
"2" = 0;
"3" = 0;
"4" = 0;
"5" = 0;
"6" = 0;
"7" = 0;
"8" = 0;
"9" = 0;
};
};
width = 468;
},
{
anchors = (
{
name = bottom;
pos = (271,20);
},
{
name = center;
pos = (280,268);
},
{
name = top;
pos = (299,526);
}
);
layerId = m003;
shapes = (
{
closed = 1;
nodes = (
(278,405,l),
(215,312,o),
(179,254,o),
(99,159,c),
(58,122,o),
(26,92,o),
(26,50,cs),
(26,14,o),
(49,-9,o),
(89,-14,cs),
(135,-20,o),
(178,0,o),
(198,26,c),
(320,15,o),
(426,1,o),
(486,1,cs),
(528,1,o),
(557,21,o),
(557,80,cs),
(557,126,o),
(537,147,o),
(510,147,cs),
(436,149,o),
(387,153,o),
(309,159,c),
(359,227,o),
(407,300,o),
(490,410,cs),
(508,434,o),
(531,464,o),
(531,497,cs),
(531,528,o),
(513,550,o),
(467,549,cs),
(402,547,o),
(323,546,o),
(98,546,cs),
(61,546,o),
(31,528,o),
(28,483,cs),
(25,433,o),
(44,406,o),
(92,406,cs)
);
}
);
userData = {
com.hugojourdan.ColorFlow = {
"0" = 0;
"1" = 0;
"10" = 0;
"11" = 0;
"2" = 0;
"3" = 0;
"4" = 0;
"5" = 0;
"6" = 0;
"7" = 0;
"8" = 0;
"9" = 0;
};
};
width = 584;
},
{
anchors = (
{
name = bottom;
pos = (231,20);
},
{
name = center;
pos = (240,268);
},
{
name = top;
pos = (259,526);
}
);
layerId = "5FC9277C-B92C-4C3C-88AB-70E16AEC7C11";
shapes = (
{
closed = 1;
nodes = (
(316,452,l),
(253,359,o),
(117,167,o),
(50,77,c),
(35,64,o),
(23,48,o),
(23,29,cs),
(23,6,o),
(43,-12,o),
(65,-12,cs),
(80,-13,o),
(98,-4,o),
(115,20,c),
(214,17,o),
(306,6,o),
(398,6,cs),
(426,6,o),
(442,26,o),
(442,50,cs),
(442,73,o),
(428,91,o),
(401,91,cs),
(327,93,o),
(256,96,o),
(178,102,c),
(264,210,o),
(358,348,o),
(441,470,cs),
(446,478,o),
(450,487,o),
(450,497,cs),
(450,519,o),
(432,541,o),
(407,539,cs),
(366,537,o),
(312,537,o),
(82,537,cs),
(55,537,o),
(39,518,o),
(39,496,cs),
(39,472,o),
(53,453,o),
(81,453,cs)
);
}
);
userData = {
com.hugojourdan.ColorFlow = {
"0" = 0;
"1" = 0;
"10" = 0;
"11" = 0;
"2" = 0;
"3" = 0;
"4" = 0;
"5" = 0;
"6" = 0;
"7" = 0;
"8" = 0;
"9" = 0;
};
};
width = 474.2;
}
);
unicode = 122;
}
{
glyphname = braceright;
kernLeft = bracketright;
kernRight = bracketright;
layers = (
{
background = {
shapes = (
{
closed = 1;
nodes = (
(210,-175,o),
(311,-120,o),
(311,-8,cs),
(311,82,o),
(252,165,o),
(252,225,cs),
(252,286,o),
(283,303,o),
(326,305,cs),
(352,306,o),
(369,321,o),
(369,347,cs),
(369,365,o),
(355,383,o),
(329,383,cs),
(270,383,o),
(250,401,o),
(250,435,cs),
(250,498,o),
(325,619,o),
(325,738,cs),
(325,816,o),
(271,879,o),
(190,879,cs),
(165,879,o),
(141,872,o),
(120,856,cs),
(111,849,o),
(107,840,o),
(107,831,cs),
(107,795,o),
(132,781,o),
(155,791,cs),
(167,796,o),
(183,800,o),
(195,800,cs),
(230,800,o),
(244,763,o),
(244,716,cs),
(244,612,o),
(169,526,o),
(169,423,cs),
(169,385,o),
(188,354,o),
(231,334,c),
(186,304,o),
(170,264,o),
(170,223,cs),
(170,137,o),
(230,58,o),
(230,-11,cs),
(230,-54,o),
(191,-90,o),
(125,-94,cs),
(105,-95,o),
(82,-113,o),
(82,-134,cs),
(82,-154,o),
(96,-171,o),
(123,-172,cs)
);
}
);
};
layerId = m01;
shapes = (
{
closed = 1;
nodes = (
(199,-168,o),
(282,-123,o),
(282,-18,cs),
(282,68,o),
(223,154,o),
(223,225,cs),
(223,303,o),
(273,326,o),
(335,329,cs),
(348,330,o),
(355,334,o),
(355,345,cs),
(355,355,o),
(349,359,o),
(339,359,cs),
(252,359,o),
(221,389,o),
(221,435,cs),
(221,509,o),
(296,631,o),
(296,738,cs),
(296,823,o),
(255,875,o),
(185,875,cs),
(163,875,o),
(146,870,o),
(129,860,cs),
(123,857,o),
(120,852,o),
(120,848,cs),
(120,839,o),
(128,829,o),
(139,834,cs),
(153,840,o),
(163,845,o),
(185,845,cs),
(243,845,o),
(263,798,o),
(263,735,cs),
(263,609,o),
(189,529,o),
(189,432,cs),
(189,381,o),
(221,345,o),
(277,342,c),
(211,330,o),
(191,273,o),
(191,223,cs),
(191,141,o),
(250,60,o),
(250,-21,cs),
(250,-93,o),
(199,-139,o),
(121,-138,cs),
(107,-138,o),
(101,-144,o),
(101,-154,cs),
(101,-163,o),
(106,-168,o),
(119,-168,cs)
);
}
);
userData = {
com.hugojourdan.ColorFlow = {
"0" = 0;
"1" = 0;
"10" = 0;
"11" = 0;
"2" = 0;
"3" = 0;
"4" = 0;
"5" = 0;
"6" = 0;
"7" = 0;
"8" = 0;
"9" = 0;
};
};
width = 428;
},
{
layerId = m003;
shapes = (
{
closed = 1;
nodes = (
(211,-184,o),
(332,-122,o),
(332,12,cs),
(332,104,o),
(273,180,o),
(273,225,cs),
(273,262,o),
(291,276,o),
(345,278,cs),
(373,280,o),
(390,306,o),
(390,347,cs),
(390,387,o),
(374,411,o),
(347,411,cs),
(290,411,o),
(271,422,o),
(271,455,cs),
(271,485,o),
(346,598,o),
(346,718,cs),
(346,813,o),
(289,892,o),
(188,892,cs),
(157,892,o),
(112,880,o),
(85,859,cs),
(68,846,o),
(58,833,o),
(58,814,cs),
(58,763,o),
(97,735,o),
(125,748,cs),
(145,757,o),
(161,758,o),
(171,758,cs),
(190,758,o),
(199,743,o),
(199,716,cs),
(199,611,o),
(124,530,o),
(124,453,cs),
(124,391,o),
(157,353,o),
(225,340,c),
(153,314,o),
(125,263,o),
(125,203,cs),
(125,134,o),
(185,67,o),
(185,9,cs),
(185,-25,o),
(165,-49,o),
(101,-58,cs),
(59,-64,o),
(37,-76,o),
(37,-117,cs),
(37,-165,o),
(59,-184,o),
(100,-184,cs)
);
}
);
userData = {
com.hugojourdan.ColorFlow = {
"0" = 0;
"1" = 0;
"10" = 0;
"11" = 0;
"2" = 0;
"3" = 0;
"4" = 0;
"5" = 0;
"6" = 0;
"7" = 0;
"8" = 0;
"9" = 0;
};
};
width = 444;
},
{
layerId = "5FC9277C-B92C-4C3C-88AB-70E16AEC7C11";
shapes = (
{
closed = 1;
nodes = (
(195,-176,o),
(298,-120,o),
(298,-6,cs),
(298,84,o),
(239,167,o),
(239,225,cs),
(239,284,o),
(269,300,o),
(313,302,cs),
(339,303,o),
(356,320,o),
(356,347,cs),
(356,367,o),
(342,386,o),
(316,386,cs),
(257,386,o),
(237,403,o),
(237,437,cs),
(237,497,o),
(312,617,o),
(312,736,cs),
(312,816,o),
(258,880,o),
(175,880,cs),
(149,880,o),
(123,873,o),
(101,856,cs),
(91,849,o),
(87,839,o),
(87,829,cs),
(87,792,o),
(113,776,o),
(137,787,cs),
(150,792,o),
(166,796,o),
(177,796,cs),
(211,796,o),
(224,761,o),
(224,716,cs),
(224,612,o),
(149,526,o),
(149,426,cs),
(149,386,o),
(170,354,o),
(215,335,c),
(167,305,o),
(150,264,o),
(150,221,cs),
(150,137,o),
(210,59,o),
(210,-9,cs),
(210,-51,o),
(173,-86,o),
(107,-90,cs),
(85,-92,o),
(62,-109,o),
(62,-132,cs),
(62,-155,o),
(77,-172,o),
(105,-173,cs)
);
}
);
userData = {
com.hugojourdan.ColorFlow = {
"0" = 0;
"1" = 0;
"10" = 0;
"11" = 0;
"2" = 0;
"3" = 0;
"4" = 0;
"5" = 0;
"6" = 0;
"7" = 0;
"8" = 0;
"9" = 0;
};
};
width = 399;
}
);
unicode = 125;
}
{
color = 4;
glyphname = exclamdown;
kernLeft = exclamdown;
kernRight = exclamdown;
layers = (
{
layerId = m01;
shapes = (
{
closed = 1;
nodes = (
(160,-272,o),
(166,-266,o),
(166,-251,cs),
(172,-115,o),
(176,247,o),
(171,305,cs),
(170,318,o),
(166,324,o),
(152,324,cs),
(142,324,o),
(139,318,o),
(139,305,cs),
(144,157,o),
(140,-78,o),
(132,-251,cs),
(132,-266,o),
(135,-272,o),
(147,-272,cs)
);
},
{
closed = 1;
nodes = (
(179,476,o),
(192,492,o),
(191,515,cs),
(191,535,o),
(176,549,o),
(155,548,cs),
(141,548,o),
(129,534,o),
(128,514,cs),
(128,493,o),
(141,477,o),
(159,476,cs)
);
}
);
userData = {
com.hugojourdan.ColorFlow = {
"0" = 0;
"1" = 0;
"10" = 0;
"11" = 0;
"2" = 0;
"3" = 0;
"4" = 0;
"5" = 0;
"6" = 0;
"7" = 0;
"8" = 0;
"9" = 0;
};
};
width = 303;
},
{
layerId = m003;
shapes = (
{
closed = 1;
nodes = (
(178,-272,o),
(218,-259,o),
(220,-213,cs),
(224,-124,o),
(228,213,o),
(227,231,cs),
(223,277,o),
(186,290,o),
(147,290,cs),
(107,290,o),
(68,277,o),
(69,241,cs),
(73,132,o),
(68,-89,o),
(63,-213,cs),
(61,-259,o),
(100,-272,o),
(139,-272,cs)
);
},
{
closed = 1;
nodes = (
(202,353,o),
(254,398,o),
(254,449,cs),
(254,499,o),
(217,548,o),
(156,548,cs),
(93,548,o),
(53,502,o),
(53,455,cs),
(53,407,o),
(85,353,o),
(153,353,cs)
);
}
);
userData = {
com.hugojourdan.ColorFlow = {
"0" = 0;
"1" = 0;
"10" = 0;
"11" = 0;
"2" = 0;
"3" = 0;
"4" = 0;
"5" = 0;
"6" = 0;
"7" = 0;
"8" = 0;
"9" = 0;
};
};
width = 293;
},
{
layerId = "5FC9277C-B92C-4C3C-88AB-70E16AEC7C11";
shapes = (
{
closed = 1;
nodes = (
(165,-272,o),
(188,-259,o),
(189,-231,cs),
(194,-116,o),
(198,244,o),
(196,280,cs),
(193,308,o),
(173,321,o),
(152,321,cs),
(129,321,o),
(107,308,o),
(107,281,cs),
(112,155,o),
(108,-79,o),
(100,-231,cs),
(100,-259,o),
(122,-272,o),
(144,-272,cs)
);
},
{
closed = 1;
nodes = (
(189,425,o),
(214,453,o),
(214,485,cs),
(214,517,o),
(194,549,o),
(161,548,cs),
(121,548,o),
(103,520,o),
(103,491,cs),
(103,460,o),
(125,426,o),
(158,425,cs)
);
}
);
userData = {
com.hugojourdan.ColorFlow = {
"0" = 0;
"1" = 0;
"10" = 0;
"11" = 0;
"2" = 0;
"3" = 0;
"4" = 0;
"5" = 0;
"6" = 0;
"7" = 0;
"8" = 0;
"9" = 0;
};
};
width = 302;
}
);
unicode = 161;
}
{
glyphname = sterling;
kernLeft = sterling;
kernRight = sterling;
layers = (
{
layerId = m01;
shapes = (
{
attr = {
strokePos = "1";
};
closed = 1;
nodes = (
(114,-1,o),
(150,19,o),
(164,49,c),
(199,45,o),
(282,-20,o),
(376,-20,cs),
(476,-20,o),
(544,19,o),
(604,111,cs),
(608,117,o),
(610,120,o),
(610,125,cs),
(610,132,o),
(601,137,o),
(593,137,cs),
(588,137,o),
(584,134,o),
(579,127,cs),
(520,45,o),
(469,10,o),
(381,10,cs),
(289,10,o),
(237,64,o),
(165,75,c),
(176,62,l),
(224,127,o),
(231,194,o),
(231,244,cs),
(231,362,o),
(184,503,o),
(184,582,cs),
(184,693,o),
(262,741,o),
(359,741,cs),
(424,741,o),
(489,712,o),
(535,668,cs),
(542,662,o),
(546,660,o),
(549,660,cs),
(556,660,o),
(565,667,o),
(565,676,cs),
(565,680,o),
(563,684,o),
(559,687,cs),
(502,736,o),
(433,771,o),
(357,771,cs),
(241,771,o),
(152,699,o),
(152,582,cs),
(152,496,o),
(200,349,o),
(200,247,cs),
(200,181,o),
(188,126,o),
(152,75,c),
(107,70,o),
(73,39,o),
(72,16,cs),
(72,4,o),
(80,-1,o),
(91,-1,cs)
);
},
{
closed = 1;
nodes = (
(480,362,o),
(488,364,o),
(488,376,cs),
(488,386,o),
(480,390,o),
(468,389,cs),
(368,385,o),
(172,391,o),
(80,399,cs),
(69,400,o),
(58,397,o),
(58,387,cs),
(58,373,o),
(66,372,o),
(80,371,cs),
(170,363,o),
(371,357,o),
(468,361,cs)
);
}
);
userData = {
com.hugojourdan.ColorFlow = {
"0" = 0;
"1" = 0;
"10" = 0;
"11" = 0;
"2" = 0;
"3" = 0;
"4" = 0;
"5" = 0;
"6" = 0;
"7" = 0;
"8" = 0;
"9" = 0;
};
};
width = 666;
},
{
layerId = m003;
shapes = (
{
closed = 1;
nodes = (
(146,-28,o),
(198,7,o),
(236,68,c),
(291,16,o),
(391,-20,o),
(478,-20,cs),
(570,-20,o),
(641,27,o),
(683,114,cs),
(691,131,o),
(697,151,o),
(697,169,cs),
(697,203,o),
(654,233,o),
(618,233,cs),
(596,233,o),
(578,224,o),
(566,205,cs),
(535,153,o),
(520,132,o),
(467,132,cs),
(410,132,o),
(343,167,o),
(303,212,c),
(310,167,l),
(332,207,o),
(338,248,o),
(338,294,cs),
(338,397,o),
(291,479,o),
(291,535,cs),
(291,592,o),
(323,618,o),
(371,618,cs),
(426,618,o),
(462,603,o),
(516,556,cs),
(524,549,o),
(540,535,o),
(560,535,cs),
(595,535,o),
(645,580,o),
(645,619,cs),
(645,631,o),
(642,645,o),
(634,656,cs),
(585,725,o),
(479,771,o),
(385,771,cs),
(242,771,o),
(121,679,o),
(121,535,cs),
(121,428,o),
(176,343,o),
(173,256,cs),
(172,236,o),
(173,215,o),
(172,193,c),
(97,176,o),
(22,99,o),
(22,38,cs),
(22,-8,o),
(56,-28,o),
(98,-28,cs)
);
},
{
closed = 1;
nodes = (
(528,311,o),
(548,329,o),
(548,371,cs),
(547,413,o),
(530,436,o),
(501,434,cs),
(402,425,o),
(144,423,o),
(83,426,cs),
(51,428,o),
(38,404,o),
(38,364,cs),
(38,323,o),
(51,303,o),
(83,302,cs),
(184,298,o),
(400,300,o),
(501,309,cs)
);
}
);
userData = {
com.hugojourdan.ColorFlow = {
"0" = 0;
"1" = 0;
"10" = 0;
"11" = 0;
"2" = 0;
"3" = 0;
"4" = 0;
"5" = 0;
"6" = 0;
"7" = 0;
"8" = 0;
"9" = 0;
};
};
width = 726;
},
{
layerId = "5FC9277C-B92C-4C3C-88AB-70E16AEC7C11";
shapes = (
{
attr = {
strokePos = 0.95;
};
closed = 1;
nodes = (
(117,-35,o),
(163,9,o),
(196,60,c),
(240,55,o),
(320,-15,o),
(433,-15,cs),
(502,-15,o),
(577,22,o),
(624,100,cs),
(633,116,o),
(640,130,o),
(640,149,cs),
(640,171,o),
(618,189,o),
(595,189,cs),
(583,189,o),
(571,184,o),
(560,165,cs),
(528,106,o),
(505,71,o),
(426,71,cs),
(350,71,o),
(289,128,o),
(223,133,c),
(211,73,l),
(265,124,o),
(281,195,o),
(281,258,cs),
(281,366,o),
(234,505,o),
(234,567,cs),
(234,651,o),
(287,686,o),
(360,686,cs),
(406,686,o),
(459,673,o),
(507,633,cs),
(516,626,o),
(526,620,o),
(536,620,cs),
(559,620,o),
(582,642,o),
(582,666,cs),
(582,675,o),
(580,686,o),
(570,694,cs),
(505,748,o),
(432,772,o),
(364,772,cs),
(244,772,o),
(145,693,o),
(145,567,cs),
(145,478,o),
(194,342,o),
(194,248,cs),
(194,194,o),
(188,156,o),
(164,114,c),
(89,100,o),
(39,43,o),
(39,4,cs),
(39,-20,o),
(53,-35,o),
(83,-35,cs)
);
},
{
closed = 1;
nodes = (
(473,327,o),
(506,342,o),
(516,361,cs),
(519,379,o),
(509,397,o),
(486,401,cs),
(361,400,o),
(227,407,o),
(133,414,cs),
(100,415,o),
(62,395,o),
(56,377,cs),
(53,360,o),
(63,346,o),
(87,338,cs),
(142,327,o),
(308,322,o),
(439,326,cs)
);
}
);
userData = {
com.hugojourdan.ColorFlow = {
"0" = 0;
"1" = 0;
"10" = 0;
"11" = 0;
"2" = 0;
"3" = 0;
"4" = 0;
"5" = 0;
"6" = 0;
"7" = 0;
"8" = 0;
"9" = 0;
};
};
width = 690;
}
);
unicode = 163;
}
{
glyphname = yen;
kernLeft = yen;
kernRight = yen;
layers = (
{
guides = (
{
angle = 270;
pos = (522,297);
}
);
layerId = m01;
shapes = (
{
closed = 1;
nodes = (
(161,606,o),
(263,434,o),
(273,414,cs),
(283,394,o),
(290,363,o),
(293,335,cs),
(302,259,o),
(291,96,o),
(288,8,cs),
(288,-4,o),
(294,-11,o),
(305,-11,cs),
(314,-11,o),
(320,-4,o),
(320,8,cs),
(326,88,o),
(335,289,o),
(324,360,cs),
(317,406,o),
(298,434,o),
(263,496,cs),
(213,582,o),
(165,663,o),
(117,748,cs),
(111,759,o),
(103,763,o),
(97,763,cs),
(90,763,o),
(82,758,o),
(82,750,cs),
(82,747,o),
(84,742,o),
(86,738,cs)
);
},
{
closed = 1;
nodes = (
(368,437,o),
(503,622,o),
(578,728,cs),
(581,733,o),
(584,737,o),
(584,741,cs),
(584,750,o),
(575,756,o),
(568,756,cs),
(563,756,o),
(558,753,o),
(553,746,cs),
(491,660,o),
(389,519,o),
(309,403,cs),
(300,390,o),
(296,380,o),
(296,372,cs),
(296,364,o),
(300,359,o),
(305,359,cs),
(310,359,o),
(314,362,o),
(318,368,cs)
);
},
{
closed = 1;
nodes = (
(214,358,o),
(410,352,o),
(498,356,cs),
(514,357,o),
(522,359,o),
(522,371,cs),
(522,381,o),
(514,385,o),
(498,384,cs),
(407,380,o),
(216,386,o),
(129,394,cs),
(118,395,o),
(107,392,o),
(107,382,cs),
(107,368,o),
(115,367,o),
(129,366,cs)
);
},
{
closed = 1;
nodes = (
(420,230,o),
(229,229,o),
(141,235,cs),
(125,236,o),
(117,235,o),
(117,220,cs),
(117,210,o),
(125,208,o),
(141,207,cs),
(232,201,o),
(418,202,o),
(505,206,cs),
(516,207,o),
(527,208,o),
(527,218,cs),
(527,233,o),
(519,235,o),
(505,234,cs)
);
}
);
userData = {
com.hugojourdan.ColorFlow = {
"0" = 0;
"1" = 0;
"10" = 0;
"11" = 0;
"2" = 0;
"3" = 0;
"4" = 0;
"5" = 0;
"6" = 0;
"7" = 0;
"8" = 0;
"9" = 0;
};
};
width = 632;
},
{
layerId = m003;
shapes = (
{
closed = 1;
nodes = (
(72,606,o),
(182,417,o),
(184,414,cs),
(199,387,o),
(225,337,o),
(226,295,cs),
(227,258,o),
(222,96,o),
(220,48,cs),
(219,2,o),
(257,-11,o),
(302,-11,cs),
(346,-11,o),
(383,2,o),
(386,48,cs),
(391,128,o),
(390,207,o),
(388,287,cs),
(387,329,o),
(380,385,o),
(337,474,cs),
(320,509,o),
(241,636,o),
(186,732,cs),
(166,769,o),
(148,773,o),
(123,773,cs),
(73,773,o),
(32,739,o),
(30,699,cs),
(29,681,o),
(44,654,o),
(57,632,cs)
);
},
{
closed = 1;
nodes = (
(427,411,o),
(589,616,o),
(613,649,cs),
(620,659,o),
(623,671,o),
(623,683,cs),
(623,724,o),
(583,771,o),
(530,771,cs),
(512,771,o),
(495,766,o),
(471,733,cs),
(436,684,o),
(349,568,o),
(292,489,cs),
(274,464,o),
(237,418,o),
(237,394,cs),
(237,340,o),
(284,311,o),
(323,311,cs),
(338,311,o),
(366,322,o),
(376,337,cs)
);
},
{
closed = 1;
nodes = (
(210,309,o),
(406,311,o),
(518,320,cs),
(539,322,o),
(559,337,o),
(559,374,cs),
(558,411,o),
(541,431,o),
(518,429,cs),
(408,420,o),
(168,418,o),
(98,422,cs),
(72,423,o),
(59,402,o),
(59,367,cs),
(59,331,o),
(72,314,o),
(98,313,cs)
);
},
{
closed = 1;
nodes = (
(404,252,o),
(233,251,o),
(130,258,cs),
(100,260,o),
(80,244,o),
(80,207,cs),
(81,170,o),
(98,152,o),
(121,150,cs),
(231,142,o),
(446,143,o),
(516,149,cs),
(542,151,o),
(555,169,o),
(555,204,cs),
(555,240,o),
(542,259,o),
(516,258,cs)
);
}
);
userData = {
com.hugojourdan.ColorFlow = {
"0" = 0;
"1" = 0;
"10" = 0;
"11" = 0;
"2" = 0;
"3" = 0;
"4" = 0;
"5" = 0;
"6" = 0;
"7" = 0;
"8" = 0;
"9" = 0;
};
};
width = 624;
},
{
layerId = "5FC9277C-B92C-4C3C-88AB-70E16AEC7C11";
shapes = (
{
closed = 1;
nodes = (
(121,606,o),
(233,412,o),
(233,414,cs),
(243,390,o),
(253,359,o),
(255,331,cs),
(259,258,o),
(253,96,o),
(251,30,cs),
(250,2,o),
(272,-11,o),
(295,-11,cs),
(317,-11,o),
(338,2,o),
(340,30,cs),
(344,92,o),
(350,280,o),
(343,341,cs),
(335,398,o),
(316,445,o),
(289,494,cs),
(243,575,o),
(192,660,o),
(143,746,cs),
(134,763,o),
(123,769,o),
(106,769,cs),
(82,769,o),
(59,749,o),
(59,724,cs),
(59,717,o),
(62,708,o),
(67,700,cs)
);
},
{
closed = 1;
nodes = (
(391,440,o),
(526,623,o),
(569,683,cs),
(580,699,o),
(585,709,o),
(585,728,cs),
(585,751,o),
(561,767,o),
(539,767,cs),
(526,767,o),
(513,760,o),
(503,745,cs),
(444,664,o),
(345,528,o),
(286,444,cs),
(275,428,o),
(260,412,o),
(260,393,cs),
(260,371,o),
(280,352,o),
(305,352,cs),
(318,352,o),
(334,358,o),
(342,371,cs)
);
},
{
closed = 1;
nodes = (
(184,334,o),
(359,332,o),
(492,337,cs),
(517,338,o),
(531,355,o),
(531,377,cs),
(531,398,o),
(518,417,o),
(492,416,cs),
(362,410,o),
(213,414,o),
(120,422,cs),
(94,424,o),
(81,402,o),
(81,381,cs),
(81,359,o),
(94,346,o),
(120,342,cs)
);
},
{
closed = 1;
nodes = (
(399,252,o),
(198,253,o),
(135,256,cs),
(108,258,o),
(94,240,o),
(94,219,cs),
(95,197,o),
(99,180,o),
(134,178,cs),
(205,174,o),
(410,171,o),
(494,175,cs),
(520,176,o),
(533,196,o),
(533,218,cs),
(533,239,o),
(520,256,o),
(494,255,cs)
);
}
);
userData = {
com.hugojourdan.ColorFlow = {
"0" = 0;
"1" = 0;
"10" = 0;
"11" = 0;
"2" = 0;
"3" = 0;
"4" = 0;
"5" = 0;
"6" = 0;
"7" = 0;
"8" = 0;
"9" = 0;
};
};
width = 615;
}
);
unicode = 165;
}
{
glyphname = section;
kernLeft = section;
kernRight = section;
layers = (
{
layerId = m01;
shapes = (
{
closed = 1;
nodes = (
(366,-97,o),
(417,-30,o),
(417,41,cs),
(417,69,o),
(408,95,o),
(386,134,c),
(445,136,o),
(490,191,o),
(490,267,cs),
(490,350,o),
(431,394,o),
(372,439,cs),
(298,496,o),
(219,568,o),
(219,635,cs),
(219,684,o),
(250,741,o),
(310,741,cs),
(346,741,o),
(374,720,o),
(387,708,cs),
(391,704,o),
(395,702,o),
(398,702,cs),
(404,702,o),
(412,709,o),
(412,717,cs),
(412,720,o),
(410,725,o),
(403,732,cs),
(385,749,o),
(356,771,o),
(308,771,cs),
(246,771,o),
(187,712,o),
(187,632,cs),
(187,600,o),
(198,562,o),
(238,517,c),
(182,508,o),
(138,463,o),
(138,402,cs),
(138,322,o),
(187,284,o),
(236,240,cs),
(308,178,o),
(384,114,o),
(384,41,cs),
(384,-29,o),
(336,-68,o),
(293,-68,cs),
(262,-68,o),
(237,-59,o),
(211,-37,cs),
(206,-33,o),
(201,-28,o),
(196,-28,cs),
(186,-28,o),
(180,-37,o),
(180,-44,cs),
(180,-48,o),
(183,-51,o),
(187,-55,cs),
(204,-74,o),
(241,-97,o),
(293,-97,cs)
);
},
{
closed = 1;
nodes = (
(341,192,o),
(299,230,o),
(260,263,cs),
(198,317,o),
(170,347,o),
(170,402,cs),
(170,459,o),
(208,490,o),
(257,494,c),
(282,467,o),
(317,441,o),
(350,415,cs),
(428,353,o),
(458,328,o),
(458,254,cs),
(458,203,o),
(420,154,o),
(370,157,c)
);
}
);
userData = {
com.hugojourdan.ColorFlow = {
"0" = 0;
"1" = 0;
"10" = 0;
"11" = 0;
"2" = 0;
"3" = 0;
"4" = 0;
"5" = 0;
"6" = 0;
"7" = 0;
"8" = 0;
"9" = 0;
};
};
width = 606;
},
{
layerId = m003;
shapes = (
{
closed = 1;
nodes = (
(401,-122,o),
(497,-45,o),
(497,41,cs),
(497,63,o),
(492,85,o),
(481,108,c),
(548,139,o),
(580,203,o),
(580,267,cs),
(580,382,o),
(504,453,o),
(434,507,cs),
(375,553,o),
(304,580,o),
(304,619,cs),
(304,630,o),
(310,637,o),
(321,637,cs),
(326,637,o),
(339,633,o),
(346,629,cs),
(369,615,o),
(377,601,o),
(397,601,cs),
(435,601,o),
(480,649,o),
(480,694,cs),
(480,713,o),
(472,727,o),
(456,744,cs),
(424,775,o),
(385,796,o),
(323,796,cs),
(222,796,o),
(138,712,o),
(138,615,cs),
(138,593,o),
(143,569,o),
(155,545,c),
(102,510,o),
(78,454,o),
(78,402,cs),
(78,293,o),
(140,231,o),
(209,171,cs),
(260,126,o),
(326,96,o),
(326,61,cs),
(326,45,o),
(315,38,o),
(304,38,cs),
(296,38,o),
(285,42,o),
(274,50,cs),
(256,62,o),
(240,67,o),
(224,67,cs),
(189,67,o),
(143,12,o),
(143,-24,cs),
(143,-45,o),
(152,-57,o),
(169,-74,cs),
(200,-103,o),
(251,-122,o),
(308,-122,cs)
);
},
{
closed = 1;
nodes = (
(378,261,o),
(336,290,o),
(303,314,cs),
(269,339,o),
(242,375,o),
(247,414,cs),
(248,419,o),
(249,422,o),
(252,425,c),
(284,403,o),
(317,381,o),
(345,363,cs),
(388,335,o),
(418,295,o),
(409,244,cs),
(408,237,o),
(406,231,o),
(402,227,c)
);
}
);
userData = {
com.hugojourdan.ColorFlow = {
"0" = 0;
"1" = 0;
"10" = 0;
"11" = 0;
"2" = 0;
"3" = 0;
"4" = 0;
"5" = 0;
"6" = 0;
"7" = 0;
"8" = 0;
"9" = 0;
};
};
width = 626;
},
{
layerId = "5FC9277C-B92C-4C3C-88AB-70E16AEC7C11";
shapes = (
{
closed = 1;
nodes = (
(377,-101,o),
(447,-33,o),
(447,41,cs),
(447,68,o),
(439,95,o),
(422,128,c),
(488,139,o),
(521,200,o),
(521,267,cs),
(521,363,o),
(458,415,o),
(390,468,cs),
(332,513,o),
(268,566,o),
(268,629,cs),
(268,657,o),
(287,689,o),
(322,689,cs),
(343,689,o),
(360,680,o),
(367,672,cs),
(375,664,o),
(385,658,o),
(394,658,cs),
(417,658,o),
(438,681,o),
(438,707,cs),
(438,716,o),
(435,725,o),
(426,734,cs),
(400,760,o),
(371,775,o),
(320,775,cs),
(247,775,o),
(183,702,o),
(183,615,cs),
(183,589,o),
(190,561,o),
(209,530,c),
(156,508,o),
(132,455,o),
(132,402,cs),
(132,310,o),
(181,260,o),
(244,204,cs),
(297,158,o),
(358,102,o),
(358,43,cs),
(358,4,o),
(323,-17,o),
(305,-17,cs),
(291,-17,o),
(268,-12,o),
(250,0,cs),
(239,7,o),
(231,10,o),
(221,10,cs),
(199,10,o),
(179,-10,o),
(179,-33,cs),
(179,-43,o),
(182,-54,o),
(192,-64,cs),
(214,-85,o),
(261,-101,o),
(305,-101,cs)
);
},
{
closed = 1;
nodes = (
(337,239,o),
(298,276,o),
(277,292,cs),
(238,325,o),
(217,367,o),
(217,403,cs),
(217,433,o),
(234,456,o),
(261,466,c),
(288,441,o),
(320,419,o),
(349,395,cs),
(396,358,o),
(437,316,o),
(436,253,cs),
(436,222,o),
(410,191,o),
(376,194,c)
);
}
);
userData = {
com.hugojourdan.ColorFlow = {
"0" = 0;
"1" = 0;
"10" = 0;
"11" = 0;
"2" = 0;
"3" = 0;
"4" = 0;
"5" = 0;
"6" = 0;
"7" = 0;
"8" = 0;
"9" = 0;
};
};
width = 608;
}
);
unicode = 167;
}
{
glyphname = ordfeminine;
kernLeft = ordinal;
kernRight = superior;
layers = (
{
anchors = (
{
name = bottom;
pos = (268,474);
},
{
name = ogonek;
pos = (445,481);
},
{
name = top;
pos = (281,865);
}
);
background = {
shapes = (
{
closed = 1;
nodes = (
(63,543,o),
(122,469,o),
(220,469,cs),
(269,469,o),
(313,500,o),
(343,545,c),
(351,497,o),
(384,463,o),
(433,463,cs),
(490,463,o),
(523,506,o),
(523,534,cs),
(523,558,o),
(507,574,o),
(487,574,cs),
(476,574,o),
(466,570,o),
(461,559,cs),
(453,541,o),
(445,533,o),
(433,533,cs),
(411,533,o),
(403,586,o),
(403,616,cs),
(403,638,o),
(411,693,o),
(415,715,cs),
(421,760,o),
(428,809,o),
(429,840,cs),
(430,863,o),
(415,875,o),
(391,875,cs),
(371,875,o),
(362,866,o),
(357,839,c),
(327,868,o),
(286,876,o),
(257,876,cs),
(148,876,o),
(63,763,o),
(63,645,cs)
);
},
{
closed = 1;
nodes = (
(137,734,o),
(184,806,o),
(258,806,cs),
(281,806,o),
(322,795,o),
(348,774,c),
(344,721,o),
(335,663,o),
(315,613,cs),
(296,568,o),
(263,539,o),
(220,539,cs),
(164,539,o),
(137,579,o),
(137,647,cs)
);
}
);
};
layerId = m01;
shapes = (
{
closed = 1;
nodes = (
(78,538,o),
(128,469,o),
(223,469,cs),
(282,469,o),
(330,513,o),
(355,575,c),
(360,517,o),
(381,462,o),
(425,462,cs),
(458,462,o),
(483,491,o),
(495,520,cs),
(498,528,o),
(499,537,o),
(489,541,cs),
(480,544,o),
(477,540,o),
(471,529,cs),
(455,498,o),
(443,491,o),
(427,491,cs),
(406,491,o),
(383,530,o),
(381,615,cs),
(380,637,o),
(386,698,o),
(390,720,cs),
(396,766,o),
(403,824,o),
(409,857,cs),
(411,873,o),
(402,877,o),
(396,877,cs),
(392,877,o),
(383,874,o),
(378,851,c),
(342,875,o),
(301,880,o),
(279,880,cs),
(166,880,o),
(78,764,o),
(78,643,cs)
);
},
{
closed = 1;
nodes = (
(111,734,o),
(179,850,o),
(274,850,cs),
(298,850,o),
(337,845,o),
(370,818,c),
(365,762,o),
(351,648,o),
(334,596,cs),
(319,551,o),
(284,499,o),
(223,499,cs),
(159,499,o),
(111,551,o),
(111,644,cs)
);
}
);
userData = {
com.hugojourdan.ColorFlow = {
"0" = 0;
"1" = 0;
"10" = 0;
"11" = 0;
"2" = 0;
"3" = 0;
"4" = 0;
"5" = 0;
"6" = 0;
"7" = 0;
"8" = 0;
"9" = 0;
};
};
width = 505;
},
{
anchors = (
{
name = bottom;
pos = (257,471);
},
{
name = ogonek;
pos = (446,478);
},
{
name = top;
pos = (275,862);
}
);
background = {
shapes = (
{
closed = 1;
nodes = (
(49,543,o),
(108,469,o),
(206,469,cs),
(255,469,o),
(299,500,o),
(329,545,c),
(337,497,o),
(370,463,o),
(419,463,cs),
(476,463,o),
(509,506,o),
(509,534,cs),
(509,558,o),
(493,574,o),
(473,574,cs),
(462,574,o),
(452,570,o),
(447,559,cs),
(439,541,o),
(431,533,o),
(419,533,cs),
(397,533,o),
(389,586,o),
(389,616,cs),
(389,638,o),
(397,693,o),
(401,715,cs),
(407,760,o),
(414,809,o),
(415,840,cs),
(416,863,o),
(401,875,o),
(377,875,cs),
(357,875,o),
(348,866,o),
(343,839,c),
(313,868,o),
(272,876,o),
(243,876,cs),
(134,876,o),
(49,763,o),
(49,645,cs)
);
},
{
closed = 1;
nodes = (
(123,734,o),
(170,806,o),
(244,806,cs),
(267,806,o),
(308,795,o),
(334,774,c),
(330,721,o),
(321,663,o),
(301,613,cs),
(282,568,o),
(249,539,o),
(206,539,cs),
(150,539,o),
(123,579,o),
(123,647,cs)
);
}
);
};
layerId = m003;
shapes = (
{
closed = 1;
nodes = (
(38,542,o),
(100,460,o),
(203,460,cs),
(258,460,o),
(306,490,o),
(331,530,c),
(341,487,o),
(378,456,o),
(422,456,cs),
(466,456,o),
(523,491,o),
(532,520,cs),
(542,553,o),
(518,580,o),
(497,580,cs),
(484,580,o),
(480,576,o),
(468,569,cs),
(462,565,o),
(458,561,o),
(451,561,cs),
(428,561,o),
(431,605,o),
(434,628,cs),
(436,650,o),
(441,691,o),
(445,714,cs),
(451,760,o),
(464,813,o),
(464,840,cs),
(465,869,o),
(428,891,o),
(386,891,cs),
(350,891,o),
(341,872,o),
(336,850,c),
(313,873,o),
(286,889,o),
(243,889,cs),
(112,889,o),
(38,771,o),
(38,646,cs)
);
},
{
closed = 1;
nodes = (
(177,727,o),
(210,785,o),
(263,785,cs),
(286,785,o),
(303,777,o),
(315,767,c),
(312,719,o),
(305,670,o),
(290,622,cs),
(280,592,o),
(257,571,o),
(228,571,cs),
(191,571,o),
(177,607,o),
(177,648,cs)
);
}
);
userData = {
com.hugojourdan.ColorFlow = {
"0" = 0;
"1" = 0;
"10" = 0;
"11" = 0;
"2" = 0;
"3" = 0;
"4" = 0;
"5" = 0;
"6" = 0;
"7" = 0;
"8" = 0;
"9" = 0;
};
};
width = 528;
},
{
anchors = (
{
name = bottom;
pos = (291,47);
},
{
name = ogonek;
pos = (529,57);
},
{
name = top;
pos = (309,569);
}
);
layerId = "5FC9277C-B92C-4C3C-88AB-70E16AEC7C11";
shapes = (
{
closed = 1;
nodes = (
(61,543,o),
(120,468,o),
(218,468,cs),
(268,468,o),
(312,499,o),
(342,544,c),
(350,496,o),
(383,462,o),
(432,462,cs),
(488,462,o),
(523,505,o),
(524,533,cs),
(525,558,o),
(508,575,o),
(488,575,cs),
(477,575,o),
(467,571,o),
(462,560,cs),
(454,543,o),
(446,536,o),
(435,536,cs),
(413,536,o),
(406,588,o),
(406,617,cs),
(406,639,o),
(414,693,o),
(418,715,cs),
(424,760,o),
(432,809,o),
(433,840,cs),
(434,864,o),
(416,877,o),
(391,877,cs),
(369,877,o),
(360,867,o),
(355,840,c),
(326,869,o),
(286,877,o),
(256,877,cs),
(144,877,o),
(61,764,o),
(61,645,cs)
);
},
{
closed = 1;
nodes = (
(141,733,o),
(187,804,o),
(259,804,cs),
(282,804,o),
(320,793,o),
(345,773,c),
(341,721,o),
(332,664,o),
(313,614,cs),
(294,570,o),
(262,542,o),
(221,542,cs),
(167,542,o),
(141,582,o),
(141,647,cs)
);
}
);
userData = {
com.hugojourdan.ColorFlow = {
"0" = 0;
"1" = 0;
"10" = 0;
"11" = 0;
"2" = 0;
"3" = 0;
"4" = 0;
"5" = 0;
"6" = 0;
"7" = 0;
"8" = 0;
"9" = 0;
};
};
width = 528;
}
);
unicode = 170;
}
{
glyphname = registered;
kernLeft = superior;
kernRight = superior;
layers = (
{
background = {
shapes = (
{
closed = 1;
nodes = (
(230,676,o),
(234,721,o),
(238,766,c),
(269,767,o),
(300,768,o),
(309,768,cs),
(359,768,o),
(431,766,o),
(431,704,cs),
(431,652,o),
(346,618,o),
(272,618,cs),
(260,618,o),
(237,618,o),
(229,618,c)
);
}
);
};
layerId = m01;
shapes = (
{
closed = 1;
nodes = (
(7,444,o),
(136,325,o),
(313,325,cs),
(522,325,o),
(615,461,o),
(615,597,cs),
(615,783,o),
(512,910,o),
(319,910,cs),
(131,910,o),
(7,774,o),
(7,623,cs)
);
},
{
closed = 1;
nodes = (
(37,768,o),
(159,881,o),
(321,881,cs),
(493,881,o),
(584,766,o),
(585,601,cs),
(586,448,o),
(477,355,o),
(314,355,cs),
(152,355,o),
(37,458,o),
(37,623,cs)
);
},
{
closed = 1;
nodes = (
(213,445,o),
(219,451,o),
(219,459,cs),
(219,521,o),
(219,553,o),
(221,591,c),
(296,561,o),
(394,486,o),
(428,454,cs),
(432,451,o),
(437,448,o),
(442,448,cs),
(449,448,o),
(458,452,o),
(458,461,cs),
(458,465,o),
(456,468,o),
(452,472,cs),
(404,515,o),
(338,565,o),
(277,596,c),
(371,601,o),
(446,641,o),
(446,703,cs),
(446,766,o),
(387,793,o),
(304,793,cs),
(274,793,o),
(237,791,o),
(224,790,cs),
(215,789,o),
(203,786,o),
(202,776,cs),
(193,676,o),
(189,585,o),
(189,459,cs),
(189,451,o),
(195,445,o),
(204,445,cs)
);
},
{
closed = 1;
nodes = (
(224,685,o),
(226,714,o),
(231,762,c),
(253,763,o),
(286,764,o),
(317,764,cs),
(371,764,o),
(416,750,o),
(416,704,cs),
(416,655,o),
(335,622,o),
(261,622,cs),
(241,622,o),
(230,622,o),
(223,622,c)
);
}
);
userData = {
com.hugojourdan.ColorFlow = {
"0" = 0;
"1" = 0;
"10" = 0;
"11" = 0;
"2" = 0;
"3" = 0;
"4" = 0;
"5" = 0;
"6" = 0;
"7" = 0;
"8" = 0;
"9" = 0;
};
};
width = 600;
},
{
layerId = m003;
shapes = (
{
closed = 1;
nodes = (
(52,389,o),
(218,273,o),
(415,273,cs),
(643,273,o),
(777,406,o),
(777,597,cs),
(777,821,o),
(634,963,o),
(421,963,cs),
(213,963,o),
(52,812,o),
(52,623,cs)
);
},
{
closed = 1;
nodes = (
(135,770,o),
(259,885,o),
(423,885,cs),
(597,885,o),
(693,767,o),
(691,601,cs),
(693,446,o),
(580,351,o),
(416,351,cs),
(257,351,o),
(135,461,o),
(135,623,cs)
);
},
{
closed = 1;
nodes = (
(337,449,o),
(357,461,o),
(357,494,cs),
(357,519,o),
(357,547,o),
(359,564,c),
(410,538,o),
(450,503,o),
(473,482,cs),
(495,462,o),
(520,452,o),
(529,452,cs),
(576,452,o),
(610,478,o),
(610,509,cs),
(610,518,o),
(608,524,o),
(597,533,cs),
(574,550,o),
(543,570,o),
(501,592,c),
(558,610,o),
(585,652,o),
(585,690,cs),
(585,764,o),
(507,789,o),
(409,789,cs),
(373,789,o),
(331,787,o),
(307,786,cs),
(290,784,o),
(257,779,o),
(253,743,cs),
(246,677,o),
(241,586,o),
(241,494,cs),
(241,461,o),
(262,449,o),
(298,449,cs)
);
},
{
closed = 1;
nodes = (
(362,653,o),
(364,680,o),
(367,704,c),
(373,705,o),
(402,705,o),
(408,705,cs),
(438,705,o),
(467,700,o),
(467,674,cs),
(467,654,o),
(443,631,o),
(409,631,cs),
(401,631,o),
(370,631,o),
(361,631,c)
);
}
);
userData = {
com.hugojourdan.ColorFlow = {
"0" = 0;
"1" = 0;
"10" = 0;
"11" = 0;
"2" = 0;
"3" = 0;
"4" = 0;
"5" = 0;
"6" = 0;
"7" = 0;
"8" = 0;
"9" = 0;
};
};
width = 806;
},
{
layerId = "5FC9277C-B92C-4C3C-88AB-70E16AEC7C11";
shapes = (
{
closed = 1;
nodes = (
(80,407,o),
(246,291,o),
(425,291,cs),
(635,291,o),
(769,424,o),
(769,597,cs),
(769,803,o),
(626,945,o),
(431,945,cs),
(241,945,o),
(80,794,o),
(80,623,cs)
);
},
{
closed = 1;
nodes = (
(145,770,o),
(269,885,o),
(433,885,cs),
(607,885,o),
(703,767,o),
(701,601,cs),
(703,446,o),
(590,351,o),
(426,351,cs),
(267,351,o),
(145,461,o),
(145,623,cs)
);
},
{
closed = 1;
nodes = (
(337,449,o),
(351,456,o),
(351,481,cs),
(351,524,o),
(352,554,o),
(352,578,c),
(398,557,o),
(470,499,o),
(502,469,cs),
(514,458,o),
(527,452,o),
(539,452,cs),
(557,452,o),
(578,469,o),
(578,486,cs),
(578,496,o),
(571,504,o),
(564,511,cs),
(526,544,o),
(498,562,o),
(449,590,c),
(520,592,o),
(573,635,o),
(573,693,cs),
(573,762,o),
(505,787,o),
(408,789,cs),
(379,790,o),
(347,789,o),
(316,787,cs),
(307,787,o),
(294,777,o),
(293,765,cs),
(285,676,o),
(281,585,o),
(281,481,cs),
(281,456,o),
(294,449,o),
(315,449,cs)
);
},
{
closed = 1;
nodes = (
(355,672,o),
(359,694,o),
(363,728,c),
(378,729,o),
(401,731,o),
(423,730,cs),
(463,728,o),
(498,720,o),
(498,687,cs),
(498,649,o),
(439,627,o),
(408,627,cs),
(370,627,o),
(359,627,o),
(354,627,c)
);
}
);
userData = {
com.hugojourdan.ColorFlow = {
"0" = 0;
"1" = 0;
"10" = 0;
"11" = 0;
"2" = 0;
"3" = 0;
"4" = 0;
"5" = 0;
"6" = 0;
"7" = 0;
"8" = 0;
"9" = 0;
};
};
width = 824.9;
}
);
unicode = 174;
}
{
glyphname = plusminus;
kernLeft = plusminus;
kernRight = plusminus;
layers = (
{
layerId = m01;
shapes = (
{
closed = 1;
nodes = (
(337,274,o),
(341,468,o),
(336,547,cs),
(335,560,o),
(331,566,o),
(323,566,cs),
(312,566,o),
(307,560,o),
(307,547,cs),
(311,460,o),
(307,266,o),
(306,180,cs),
(306,167,o),
(311,161,o),
(322,161,cs),
(331,161,o),
(335,167,o),
(335,180,cs)
);
},
{
closed = 1;
nodes = (
(224,349,o),
(498,347,o),
(517,347,cs),
(528,347,o),
(533,351,o),
(533,360,cs),
(533,368,o),
(528,372,o),
(517,372,cs),
(490,373,o),
(216,377,o),
(130,376,cs),
(119,376,o),
(114,371,o),
(114,361,cs),
(114,353,o),
(119,349,o),
(130,349,cs)
);
},
{
closed = 1;
nodes = (
(224,19,o),
(418,20,o),
(517,26,cs),
(527,27,o),
(532,32,o),
(532,41,cs),
(532,48,o),
(527,52,o),
(517,52,cs),
(420,46,o),
(216,47,o),
(130,46,cs),
(120,46,o),
(114,41,o),
(114,31,cs),
(114,23,o),
(120,19,o),
(130,19,cs)
);
}
);
userData = {
com.hugojourdan.ColorFlow = {
"0" = 0;
"1" = 0;
"10" = 0;
"11" = 0;
"2" = 0;
"3" = 0;
"4" = 0;
"5" = 0;
"6" = 0;
"7" = 0;
"8" = 0;
"9" = 0;
};
};
width = 650;
},
{
layerId = m003;
shapes = (
{
closed = 1;
nodes = (
(397,283,o),
(401,489,o),
(398,539,cs),
(396,575,o),
(372,591,o),
(322,591,cs),
(270,591,o),
(245,575,o),
(247,539,cs),
(249,480,o),
(245,274,o),
(244,216,cs),
(244,181,o),
(269,164,o),
(321,164,cs),
(371,164,o),
(395,181,o),
(396,216,cs)
);
},
{
closed = 1;
nodes = (
(223,303,o),
(500,301,o),
(519,301,cs),
(554,301,o),
(572,325,o),
(572,374,cs),
(572,423,o),
(554,446,o),
(519,446,cs),
(492,446,o),
(215,450,o),
(126,450,cs),
(91,450,o),
(73,426,o),
(73,375,cs),
(73,326,o),
(91,303,o),
(126,303,cs)
);
},
{
closed = 1;
nodes = (
(223,-11,o),
(417,-10,o),
(521,-3,cs),
(556,-1,o),
(575,23,o),
(575,66,cs),
(575,118,o),
(556,144,o),
(521,142,cs),
(419,136,o),
(215,137,o),
(124,136,cs),
(89,136,o),
(70,108,o),
(70,56,cs),
(70,12,o),
(89,-11,o),
(124,-11,cs)
);
}
);
userData = {
com.hugojourdan.ColorFlow = {
"0" = 0;
"1" = 0;
"10" = 0;
"11" = 0;
"2" = 0;
"3" = 0;
"4" = 0;
"5" = 0;
"6" = 0;
"7" = 0;
"8" = 0;
"9" = 0;
};
};
width = 650;
},
{
layerId = "5FC9277C-B92C-4C3C-88AB-70E16AEC7C11";
shapes = (
{
closed = 1;
nodes = (
(368,275,o),
(372,470,o),
(369,528,cs),
(367,555,o),
(348,569,o),
(325,569,cs),
(302,569,o),
(279,555,o),
(280,528,cs),
(283,462,o),
(279,267,o),
(278,202,cs),
(278,175,o),
(301,161,o),
(324,161,cs),
(347,161,o),
(366,175,o),
(367,202,cs)
);
},
{
closed = 1;
nodes = (
(226,322,o),
(500,320,o),
(519,320,cs),
(546,320,o),
(559,339,o),
(559,361,cs),
(559,384,o),
(546,402,o),
(519,402,cs),
(492,403,o),
(218,407,o),
(131,406,cs),
(105,406,o),
(91,386,o),
(91,362,cs),
(91,340,o),
(105,322,o),
(131,322,cs)
);
},
{
closed = 1;
nodes = (
(226,-6,o),
(420,-5,o),
(519,1,cs),
(546,3,o),
(560,21,o),
(560,44,cs),
(560,67,o),
(546,85,o),
(519,84,cs),
(422,78,o),
(218,79,o),
(131,78,cs),
(104,78,o),
(91,57,o),
(91,34,cs),
(91,11,o),
(104,-6,o),
(131,-6,cs)
);
}
);
userData = {
com.hugojourdan.ColorFlow = {
"0" = 0;
"1" = 0;
"10" = 0;
"11" = 0;
"2" = 0;
"3" = 0;
"4" = 0;
"5" = 0;
"6" = 0;
"7" = 0;
"8" = 0;
"9" = 0;
};
};
width = 650;
}
);
unicode = 177;
}
{
glyphname = threesuperior;
kernLeft = superior;
kernRight = superior;
layers = (
{
layerId = m01;
shapes = (
{
closed = 1;
nodes = (
(356,381,o),
(409,456,o),
(409,531,cs),
(409,584,o),
(378,630,o),
(313,650,c),
(362,679,o),
(376,716,o),
(376,763,cs),
(376,825,o),
(330,909,o),
(221,909,cs),
(168,909,o),
(113,876,o),
(83,846,cs),
(77,840,o),
(75,837,o),
(75,833,cs),
(75,823,o),
(83,815,o),
(91,815,cs),
(94,815,o),
(97,816,o),
(103,822,cs),
(126,847,o),
(173,879,o),
(220,879,cs),
(306,879,o),
(344,818,o),
(344,761,cs),
(344,704,o),
(320,676,o),
(276,661,c),
(240,667,o),
(193,667,o),
(162,659,cs),
(156,656,o),
(151,649,o),
(150,644,cs),
(150,638,o),
(152,628,o),
(166,626,cs),
(189,621,o),
(250,623,o),
(278,632,c),
(340,622,o),
(377,587,o),
(377,532,cs),
(377,474,o),
(341,411,o),
(246,411,cs),
(189,411,o),
(125,444,o),
(97,475,cs),
(94,478,o),
(90,482,o),
(86,482,cs),
(77,482,o),
(69,473,o),
(69,465,cs),
(69,461,o),
(70,459,o),
(76,453,cs),
(120,410,o),
(189,381,o),
(246,381,cs)
);
}
);
userData = {
com.hugojourdan.ColorFlow = {
"0" = 0;
"1" = 0;
"10" = 0;
"11" = 0;
"2" = 0;
"3" = 0;
"4" = 0;
"5" = 0;
"6" = 0;
"7" = 0;
"8" = 0;
"9" = 0;
};
};
width = 460;
},
{
layerId = m003;
shapes = (
{
closed = 1;
nodes = (
(441,381,o),
(497,486,o),
(497,541,cs),
(497,605,o),
(465,633,o),
(409,658,c),
(442,685,o),
(464,725,o),
(464,764,cs),
(464,853,o),
(394,908,o),
(259,908,cs),
(175,908,o),
(107,870,o),
(66,835,cs),
(53,824,o),
(46,809,o),
(46,798,cs),
(46,764,o),
(78,735,o),
(107,735,cs),
(119,735,o),
(129,738,o),
(139,750,cs),
(161,776,o),
(202,788,o),
(241,788,cs),
(293,788,o),
(325,778,o),
(325,740,cs),
(325,720,o),
(317,704,o),
(274,685,c),
(238,699,o),
(206,703,o),
(175,692,cs),
(148,682,o),
(135,660,o),
(135,636,cs),
(135,617,o),
(149,592,o),
(175,587,cs),
(214,580,o),
(259,590,o),
(289,607,c),
(346,597,o),
(357,581,o),
(357,557,cs),
(357,516,o),
(323,500,o),
(255,500,cs),
(186,500,o),
(138,530,o),
(117,549,cs),
(102,563,o),
(90,563,o),
(81,563,cs),
(54,563,o),
(28,526,o),
(28,492,cs),
(28,483,o),
(32,473,o),
(39,466,cs),
(88,418,o),
(172,381,o),
(254,381,cs)
);
}
);
userData = {
com.hugojourdan.ColorFlow = {
"0" = 0;
"1" = 0;
"10" = 0;
"11" = 0;
"2" = 0;
"3" = 0;
"4" = 0;
"5" = 0;
"6" = 0;
"7" = 0;
"8" = 0;
"9" = 0;
};
};
width = 523;
},
{
layerId = "5FC9277C-B92C-4C3C-88AB-70E16AEC7C11";
shapes = (
{
closed = 1;
nodes = (
(379,381,o),
(435,459,o),
(435,528,cs),
(435,586,o),
(403,633,o),
(347,658,c),
(380,685,o),
(402,725,o),
(402,769,cs),
(402,853,o),
(332,908,o),
(233,908,cs),
(170,908,o),
(123,888,o),
(82,853,cs),
(69,842,o),
(62,827,o),
(62,816,cs),
(62,789,o),
(82,776,o),
(102,776,cs),
(114,776,o),
(121,780,o),
(134,795,cs),
(156,821,o),
(186,833,o),
(225,833,cs),
(277,833,o),
(320,800,o),
(320,762,cs),
(320,733,o),
(303,703,o),
(269,676,c),
(233,690,o),
(203,690,o),
(174,682,cs),
(153,676,o),
(139,660,o),
(139,636,cs),
(139,617,o),
(153,601,o),
(171,598,cs),
(218,589,o),
(254,599,o),
(284,616,c),
(334,598,o),
(352,559,o),
(352,535,cs),
(352,494,o),
(318,455,o),
(250,455,cs),
(174,455,o),
(133,485,o),
(112,504,cs),
(97,518,o),
(85,519,o),
(73,519,cs),
(58,519,o),
(41,504,o),
(41,481,cs),
(41,472,o),
(45,462,o),
(52,455,cs),
(101,407,o),
(167,381,o),
(249,381,cs)
);
}
);
userData = {
com.hugojourdan.ColorFlow = {
"0" = 0;
"1" = 0;
"10" = 0;
"11" = 0;
"2" = 0;
"3" = 0;
"4" = 0;
"5" = 0;
"6" = 0;
"7" = 0;
"8" = 0;
"9" = 0;
};
};
width = 485.2;
}
);
unicode = 179;
}
{
glyphname = paragraph;
kernLeft = paragraph;
kernRight = paragraph;
layers = (
{
background = {
shapes = (
{
closed = 1;
nodes = (
(598,188,o),
(607,296,o),
(607,721,cs),
(607,734,o),
(604,736,o),
(590,736,cs),
(577,736,o),
(573,734,o),
(574,723,cs),
(584,609,o),
(559,299,o),
(575,13,cs),
(575,8,o),
(577,7,o),
(588,7,cs),
(602,7,o),
(607,10,o),
(607,20,cs)
);
},
{
closed = 1;
nodes = (
(409,735,o),
(380,740,o),
(350,740,cs),
(183,740,o),
(128,621,o),
(128,514,cs),
(128,421,o),
(182,367,o),
(277,367,cs),
(312,367,o),
(346,374,o),
(391,393,c),
(398,325,o),
(393,121,o),
(392,25,cs),
(392,12,o),
(395,10,o),
(408,10,cs),
(422,10,o),
(425,12,o),
(425,26,cs),
(430,136,o),
(426,234,o),
(426,345,cs),
(426,414,o),
(434,616,o),
(457,706,cs),
(459,715,o),
(451,724,o),
(437,727,cs)
);
},
{
closed = 1;
nodes = (
(162,669,o),
(281,710,o),
(341,710,cs),
(371,710,o),
(404,705,o),
(430,697,c),
(404,613,o),
(394,514,o),
(393,425,c),
(358,406,o),
(323,397,o),
(282,397,cs),
(219,397,o),
(162,430,o),
(162,518,cs)
);
}
);
};
layerId = m01;
shapes = (
{
closed = 1;
nodes = (
(400,-14,o),
(405,-8,o),
(406,5,cs),
(410,134,o),
(406,234,o),
(406,395,cs),
(406,508,o),
(413,634,o),
(437,728,cs),
(439,737,o),
(431,746,o),
(417,749,cs),
(389,757,o),
(360,760,o),
(340,760,cs),
(158,760,o),
(98,636,o),
(98,520,cs),
(98,427,o),
(159,367,o),
(267,367,cs),
(299,367,o),
(332,374,o),
(373,393,c),
(377,325,o),
(373,119,o),
(372,4,cs),
(372,-9,o),
(377,-14,o),
(388,-14,cs)
);
},
{
closed = 1;
nodes = (
(199,397,o),
(132,429,o),
(132,524,cs),
(132,691,o),
(256,730,o),
(331,730,cs),
(356,730,o),
(379,727,o),
(403,719,c),
(381,628,o),
(376,521,o),
(375,425,c),
(343,406,o),
(310,397,o),
(272,397,cs)
);
},
{
closed = 1;
nodes = (
(581,-17,o),
(587,-13,o),
(587,-3,cs),
(578,195,o),
(583,306,o),
(587,741,cs),
(587,754,o),
(582,760,o),
(570,760,cs),
(558,760,o),
(552,755,o),
(553,743,cs),
(563,629,o),
(543,309,o),
(554,-1,cs),
(554,-12,o),
(559,-17,o),
(568,-17,cs)
);
}
);
userData = {
com.hugojourdan.ColorFlow = {
"0" = 0;
"1" = 0;
"10" = 0;
"11" = 0;
"2" = 0;
"3" = 0;
"4" = 0;
"5" = 0;
"6" = 0;
"7" = 0;
"8" = 0;
"9" = 0;
};
};
width = 745;
},
{
layerId = m003;
shapes = (
{
closed = 1;
nodes = (
(507,-17,o),
(538,3,o),
(540,44,cs),
(543,136,o),
(539,236,o),
(539,345,cs),
(539,407,o),
(543,593,o),
(558,668,cs),
(567,714,o),
(552,742,o),
(478,758,cs),
(450,764,o),
(417,767,o),
(386,767,cs),
(143,767,o),
(57,615,o),
(57,504,cs),
(57,365,o),
(131,282,o),
(274,282,cs),
(293,282,o),
(332,284,o),
(353,293,c),
(355,213,o),
(352,100,o),
(351,45,cs),
(351,3,o),
(375,-17,o),
(444,-17,cs)
);
},
{
closed = 1;
nodes = (
(272,434,o),
(248,457,o),
(248,518,cs),
(248,573,o),
(285,613,o),
(359,613,cs),
(365,613,o),
(372,613,o),
(378,612,c),
(366,554,o),
(365,497,o),
(363,442,c),
(346,436,o),
(336,434,o),
(318,434,cs)
);
},
{
closed = 1;
nodes = (
(784,-20,o),
(812,-1,o),
(809,43,cs),
(800,203,o),
(809,300,o),
(809,711,cs),
(809,744,o),
(774,763,o),
(715,763,cs),
(653,763,o),
(618,743,o),
(622,698,cs),
(631,588,o),
(609,305,o),
(623,30,cs),
(625,-5,o),
(653,-20,o),
(713,-20,cs)
);
}
);
userData = {
com.hugojourdan.ColorFlow = {
"0" = 0;
"1" = 0;
"10" = 0;
"11" = 0;
"2" = 0;
"3" = 0;
"4" = 0;
"5" = 0;
"6" = 0;
"7" = 0;
"8" = 0;
"9" = 0;
};
};
width = 910;
},
{
layerId = "5FC9277C-B92C-4C3C-88AB-70E16AEC7C11";
shapes = (
{
closed = 1;
nodes = (
(432,-14,o),
(453,-1,o),
(454,27,cs),
(458,136,o),
(454,235,o),
(454,345,cs),
(454,413,o),
(462,611,o),
(483,697,cs),
(489,720,o),
(469,745,o),
(442,751,cs),
(413,760,o),
(381,764,o),
(349,764,cs),
(161,764,o),
(95,625,o),
(95,513,cs),
(95,406,o),
(163,337,o),
(272,337,cs),
(300,337,o),
(331,342,o),
(363,352,c),
(367,268,o),
(363,108,o),
(362,27,cs),
(362,-1,o),
(382,-14,o),
(407,-14,cs)
);
},
{
closed = 1;
nodes = (
(229,422,o),
(188,448,o),
(188,518,cs),
(188,642,o),
(282,679,o),
(338,679,cs),
(357,679,o),
(376,677,o),
(393,673,c),
(374,599,o),
(366,516,o),
(364,440,c),
(337,428,o),
(313,422,o),
(281,422,cs)
);
},
{
closed = 1;
nodes = (
(622,-17,o),
(646,-3,o),
(644,23,cs),
(635,190,o),
(644,296,o),
(644,720,cs),
(644,747,o),
(623,760,o),
(598,760,cs),
(574,760,o),
(551,747,o),
(553,719,cs),
(563,607,o),
(538,300,o),
(554,14,cs),
(555,-9,o),
(576,-17,o),
(596,-17,cs)
);
}
);
userData = {
com.hugojourdan.ColorFlow = {
"0" = 0;
"1" = 0;
"10" = 0;
"11" = 0;
"2" = 0;
"3" = 0;
"4" = 0;
"5" = 0;
"6" = 0;
"7" = 0;
"8" = 0;
"9" = 0;
};
};
width = 770.5;
}
);
unicode = 182;
}
{
glyphname = periodcentered;
kernLeft = hyphen;
kernRight = hyphen;
layers = (
{
anchors = (
{
name = _CATdot;
pos = (123,316);
}
);
layerId = m01;
shapes = (
{
closed = 1;
nodes = (
(120,279,o),
(135,298,o),
(135,318,cs),
(135,336,o),
(127,351,o),
(104,351,cs),
(85,351,o),
(73,329,o),
(73,313,cs),
(73,290,o),
(87,279,o),
(102,279,cs)
);
}
);
userData = {
com.hugojourdan.ColorFlow = {
"0" = 0;
"1" = 0;
"10" = 0;
"11" = 0;
"2" = 0;
"3" = 0;
"4" = 0;
"5" = 0;
"6" = 0;
"7" = 0;
"8" = 0;
"9" = 0;
};
};
width = 269;
},
{
anchors = (
{
name = _CATdot;
pos = (138,357);
}
);
layerId = m003;
shapes = (
{
closed = 1;
nodes = (
(200,260,o),
(250,309,o),
(250,369,cs),
(250,423,o),
(215,463,o),
(146,463,cs),
(69,463,o),
(30,408,o),
(30,344,cs),
(30,293,o),
(77,260,o),
(137,260,cs)
);
}
);
userData = {
com.hugojourdan.ColorFlow = {
"0" = 0;
"1" = 0;
"10" = 0;
"11" = 0;
"2" = 0;
"3" = 0;
"4" = 0;
"5" = 0;
"6" = 0;
"7" = 0;
"8" = 0;
"9" = 0;
};
};
width = 282;
},
{
anchors = (
{
name = _CATdot;
pos = (131,324);
}
);
layerId = "5FC9277C-B92C-4C3C-88AB-70E16AEC7C11";
shapes = (
{
closed = 1;
nodes = (
(163,260,o),
(190,290,o),
(190,325,cs),
(190,349,o),
(177,383,o),
(139,383,cs),
(92,383,o),
(72,341,o),
(72,316,cs),
(72,281,o),
(100,261,o),
(130,260,cs)
);
}
);
userData = {
com.hugojourdan.ColorFlow = {
"0" = 0;
"1" = 0;
"10" = 0;
"11" = 0;
"2" = 0;
"3" = 0;
"4" = 0;
"5" = 0;
"6" = 0;
"7" = 0;
"8" = 0;
"9" = 0;
};
};
width = 287.4;
}
);
unicode = 183;
}
{
glyphname = onesuperior;
kernLeft = superior;
kernRight = superior;
layers = (
{
background = {
shapes = (
{
closed = 1;
nodes = (
(118,703,o),
(166,753,o),
(205,792,c),
(189,823,l),
(164,698,o),
(159,597,o),
(159,437,cs),
(159,415,o),
(163,389,o),
(197,389,cs),
(217,389,o),
(237,400,o),
(235,427,cs),
(228,526,o),
(234,698,o),
(268,844,cs),
(272,861,o),
(275,872,o),
(275,884,cs),
(275,896,o),
(252,908,o),
(233,908,cs),
(221,908,o),
(214,904,o),
(209,897,cs),
(169,843,o),
(102,775,o),
(41,744,cs),
(20,733,o),
(18,723,o),
(18,708,cs),
(18,693,o),
(31,674,o),
(48,674,cs),
(59,674,o),
(64,675,o),
(68,677,cs)
);
}
);
};
guides = (
{
pos = (300,508);
}
);
layerId = m01;
shapes = (
{
closed = 1;
nodes = (
(136,770,o),
(185,802,o),
(243,869,c),
(226,876,l),
(190,699,o),
(181,588,o),
(181,435,cs),
(181,402,o),
(189,389,o),
(200,389,cs),
(207,389,o),
(216,393,o),
(215,404,cs),
(206,555,o),
(220,713,o),
(260,884,cs),
(262,891,o),
(263,895,o),
(263,899,cs),
(263,904,o),
(253,908,o),
(247,908,cs),
(242,908,o),
(238,907,o),
(234,900,cs),
(193,844,o),
(121,796,o),
(79,772,cs),
(72,768,o),
(67,764,o),
(67,758,cs),
(67,752,o),
(71,741,o),
(79,741,cs),
(80,741,o),
(83,741,o),
(87,743,cs)
);
}
);
userData = {
com.hugojourdan.ColorFlow = {
"0" = 0;
"1" = 0;
"10" = 0;
"11" = 0;
"2" = 0;
"3" = 0;
"4" = 0;
"5" = 0;
"6" = 0;
"7" = 0;
"8" = 0;
"9" = 0;
};
};
width = 341;
},
{
layerId = m003;
shapes = (
{
closed = 1;
nodes = (
(145,654,o),
(223,715,o),
(262,754,c),
(192,823,l),
(167,698,o),
(162,597,o),
(162,447,cs),
(162,405,o),
(179,389,o),
(224,389,cs),
(278,389,o),
(298,402,o),
(295,437,cs),
(289,526,o),
(295,698,o),
(329,834,cs),
(334,856,o),
(336,867,o),
(336,874,cs),
(336,899,o),
(323,908,o),
(288,908,cs),
(256,908,o),
(242,901,o),
(226,883,cs),
(193,846,o),
(99,775,o),
(38,744,cs),
(17,733,o),
(15,723,o),
(15,708,cs),
(15,671,o),
(44,625,o),
(75,625,cs),
(86,625,o),
(91,626,o),
(95,628,cs)
);
}
);
userData = {
com.hugojourdan.ColorFlow = {
"0" = 0;
"1" = 0;
"10" = 0;
"11" = 0;
"2" = 0;
"3" = 0;
"4" = 0;
"5" = 0;
"6" = 0;
"7" = 0;
"8" = 0;
"9" = 0;
};
};
width = 340;
},
{
layerId = "5FC9277C-B92C-4C3C-88AB-70E16AEC7C11";
shapes = (
{
closed = 1;
nodes = (
(136,698,o),
(187,749,o),
(226,788,c),
(205,823,l),
(180,698,o),
(175,597,o),
(175,438,cs),
(175,414,o),
(180,389,o),
(215,389,cs),
(238,389,o),
(258,400,o),
(256,428,cs),
(249,526,o),
(255,698,o),
(289,843,cs),
(294,861,o),
(296,872,o),
(296,883,cs),
(296,896,o),
(274,908,o),
(254,908,cs),
(240,908,o),
(232,904,o),
(226,896,cs),
(187,843,o),
(117,775,o),
(56,744,cs),
(35,733,o),
(33,723,o),
(33,708,cs),
(33,691,o),
(48,669,o),
(66,669,cs),
(77,669,o),
(82,670,o),
(86,672,cs)
);
}
);
userData = {
com.hugojourdan.ColorFlow = {
"0" = 0;
"1" = 0;
"10" = 0;
"11" = 0;
"2" = 0;
"3" = 0;
"4" = 0;
"5" = 0;
"6" = 0;
"7" = 0;
"8" = 0;
"9" = 0;
};
};
width = 354.4;
}
);
unicode = 185;
}
{
glyphname = ordmasculine;
kernLeft = ordinal;
kernRight = superior;
layers = (
{
anchors = (
{
name = bottom;
pos = (283,1);
},
{
name = center;
pos = (277,268);
},
{
name = ogonek;
pos = (483,10);
},
{
name = top;
pos = (285,536);
},
{
name = topright;
pos = (535,536);
}
);
background = {
shapes = (
{
closed = 1;
nodes = (
(370,880,o),
(256,880,cs),
(140,880,o),
(79,777,o),
(79,674,cs),
(79,560,o),
(152,469,o),
(257,469,cs),
(368,469,o),
(425,574,o),
(425,683,cs),
(425,783,o)
);
},
{
closed = 1;
nodes = (
(111,776,o),
(165,850,o),
(255,850,cs),
(350,850,o),
(393,780,o),
(393,679,cs),
(393,589,o),
(353,499,o),
(256,499,cs),
(161,499,o),
(111,576,o),
(111,679,cs)
);
}
);
};
layerId = m01;
shapes = (
{
closed = 1;
nodes = (
(79,555,o),
(154,469,o),
(257,469,cs),
(354,469,o),
(425,559,o),
(425,683,cs),
(425,797,o),
(354,880,o),
(256,880,cs),
(153,880,o),
(79,793,o),
(79,674,cs)
);
},
{
closed = 1;
nodes = (
(111,778,o),
(175,850,o),
(255,850,cs),
(339,850,o),
(393,778,o),
(393,679,cs),
(393,575,o),
(335,499,o),
(256,499,cs),
(172,499,o),
(111,575,o),
(111,679,cs)
);
}
);
userData = {
com.hugojourdan.ColorFlow = {
"0" = 0;
"1" = 0;
"10" = 0;
"11" = 0;
"2" = 0;
"3" = 0;
"4" = 0;
"5" = 0;
"6" = 0;
"7" = 0;
"8" = 0;
"9" = 0;
};
};
width = 492;
},
{
anchors = (
{
name = bottom;
pos = (273,1);
},
{
name = center;
pos = (267,268);
},
{
name = ogonek;
pos = (473,10);
},
{
name = top;
pos = (275,536);
},
{
name = topright;
pos = (525,536);
}
);
layerId = m003;
shapes = (
{
closed = 1;
nodes = (
(39,544,o),
(126,459,o),
(247,459,cs),
(373,459,o),
(455,552,o),
(455,683,cs),
(455,808,o),
(367,890,o),
(246,890,cs),
(121,890,o),
(39,800,o),
(39,674,cs)
);
},
{
closed = 1;
nodes = (
(178,732,o),
(203,770,o),
(245,770,cs),
(290,770,o),
(316,736,o),
(316,679,cs),
(316,616,o),
(287,579,o),
(246,579,cs),
(203,579,o),
(178,616,o),
(178,679,cs)
);
}
);
userData = {
com.hugojourdan.ColorFlow = {
"0" = 0;
"1" = 0;
"10" = 0;
"11" = 0;
"2" = 0;
"3" = 0;
"4" = 0;
"5" = 0;
"6" = 0;
"7" = 0;
"8" = 0;
"9" = 0;
};
};
width = 471;
},
{
anchors = (
{
name = bottom;
pos = (278,1);
},
{
name = center;
pos = (272,268);
},
{
name = ogonek;
pos = (478,10);
},
{
name = top;
pos = (280,536);
},
{
name = topright;
pos = (530,536);
}
);
layerId = "5FC9277C-B92C-4C3C-88AB-70E16AEC7C11";
shapes = (
{
closed = 1;
nodes = (
(62,558,o),
(140,468,o),
(252,468,cs),
(370,468,o),
(433,572,o),
(433,683,cs),
(433,786,o),
(372,881,o),
(251,881,cs),
(127,881,o),
(62,779,o),
(62,674,cs)
);
},
{
closed = 1;
nodes = (
(142,751,o),
(182,806,o),
(250,806,cs),
(320,806,o),
(352,754,o),
(352,679,cs),
(352,609,o),
(321,541,o),
(251,541,cs),
(180,541,o),
(142,600,o),
(142,679,cs)
);
}
);
userData = {
com.hugojourdan.ColorFlow = {
"0" = 0;
"1" = 0;
"10" = 0;
"11" = 0;
"2" = 0;
"3" = 0;
"4" = 0;
"5" = 0;
"6" = 0;
"7" = 0;
"8" = 0;
"9" = 0;
};
};
width = 480;
}
);
unicode = 186;
}
{
glyphname = threequarters;
kernLeft = threequarters;
kernRight = threequarters;
layers = (
{
layerId = m01;
shapes = (
{
pos = (21,-122);
ref = threesuperior;
},
{
closed = 1;
nodes = (
(734,616,o),
(465,199,o),
(338,-6,cs),
(327,-23,o),
(324,-32,o),
(332,-37,cs),
(341,-42,o),
(350,-41,o),
(362,-23,cs),
(488,181,o),
(756,599,o),
(902,794,cs),
(914,810,o),
(913,817,o),
(906,822,cs),
(896,829,o),
(890,827,o),
(879,812,cs)
);
},
{
pos = (630,-381);
ref = foursuperior;
}
);
userData = {
com.hugojourdan.ColorFlow = {
"0" = 0;
"1" = 0;
"10" = 0;
"11" = 0;
"2" = 0;
"3" = 0;
"4" = 0;
"5" = 0;
"6" = 0;
"7" = 0;
"8" = 0;
"9" = 0;
};
};
width = 1162;
},
{
layerId = m003;
shapes = (
{
pos = (-5,-122);
ref = threesuperior;
},
{
closed = 1;
nodes = (
(784,705,o),
(623,453,o),
(370,48,cs),
(345,9,o),
(348,-19,o),
(379,-37,cs),
(417,-60,o),
(448,-52,o),
(471,-14,cs),
(675,325,o),
(834,575,o),
(951,739,cs),
(978,775,o),
(977,804,o),
(948,825,cs),
(913,852,o),
(882,846,o),
(855,807,cs)
);
},
{
pos = (739,-391);
ref = foursuperior;
}
);
userData = {
com.hugojourdan.ColorFlow = {
"0" = 0;
"1" = 0;
"10" = 0;
"11" = 0;
"2" = 0;
"3" = 0;
"4" = 0;
"5" = 0;
"6" = 0;
"7" = 0;
"8" = 0;
"9" = 0;
};
};
width = 1300;
},
{
layerId = "5FC9277C-B92C-4C3C-88AB-70E16AEC7C11";
shapes = (
{
alignment = -1;
pos = (10,-122);
ref = threesuperior;
},
{
closed = 1;
nodes = (
(714,623,o),
(452,239,o),
(317,16,cs),
(303,-8,o),
(307,-24,o),
(327,-37,cs),
(346,-47,o),
(366,-45,o),
(380,-20,cs),
(510,195,o),
(772,580,o),
(909,769,cs),
(925,793,o),
(920,810,o),
(900,822,cs),
(883,833,o),
(861,829,o),
(846,804,cs)
);
},
{
pos = (652,-392);
ref = foursuperior;
}
);
userData = {
com.hugojourdan.ColorFlow = {
"0" = 0;
"1" = 0;
"10" = 0;
"11" = 0;
"2" = 0;
"3" = 0;
"4" = 0;
"5" = 0;
"6" = 0;
"7" = 0;
"8" = 0;
"9" = 0;
};
};
width = 1164;
}
);
unicode = 190;
}
{
color = 4;
glyphname = questiondown;
kernLeft = questiondown;
kernRight = questiondown;
layers = (
{
layerId = m01;
shapes = (
{
closed = 1;
nodes = (
(348,-276,o),
(419,-242,o),
(473,-180,cs),
(475,-177,o),
(477,-173,o),
(477,-170,cs),
(477,-162,o),
(470,-156,o),
(463,-156,cs),
(459,-156,o),
(456,-158,o),
(452,-162,cs),
(406,-214,o),
(351,-247,o),
(268,-247,cs),
(164,-247,o),
(86,-166,o),
(86,-53,cs),
(86,72,o),
(176,163,o),
(301,168,cs),
(317,169,o),
(331,171,o),
(332,188,cs),
(340,306,ls),
(341,320,o),
(332,325,o),
(323,325,cs),
(315,325,o),
(310,320,o),
(309,306,cs),
(301,197,l),
(158,191,o),
(54,89,o),
(54,-53,cs),
(54,-182,o),
(147,-276,o),
(271,-276,cs)
);
},
{
closed = 1;
nodes = (
(347,468,o),
(362,494,o),
(362,513,cs),
(362,530,o),
(349,545,o),
(336,545,cs),
(315,545,o),
(298,525,o),
(298,497,cs),
(298,480,o),
(310,468,o),
(325,468,cs)
);
}
);
userData = {
com.hugojourdan.ColorFlow = {
"0" = 0;
"1" = 0;
"10" = 0;
"11" = 0;
"2" = 0;
"3" = 0;
"4" = 0;
"5" = 0;
"6" = 0;
"7" = 0;
"8" = 0;
"9" = 0;
};
};
width = 554;
},
{
layerId = m003;
shapes = (
{
closed = 1;
nodes = (
(322,-270,o),
(402,-249,o),
(447,-197,cs),
(460,-181,o),
(465,-164,o),
(465,-147,cs),
(465,-109,o),
(438,-83,o),
(407,-83,cs),
(395,-83,o),
(384,-89,o),
(372,-99,cs),
(343,-123,o),
(319,-132,o),
(275,-132,cs),
(201,-132,o),
(174,-80,o),
(174,-30,cs),
(174,65,o),
(225,88,o),
(281,94,cs),
(333,100,o),
(360,103,o),
(363,143,cs),
(371,256,ls),
(374,302,o),
(338,315,o),
(303,315,cs),
(268,315,o),
(233,302,o),
(228,256,cs),
(223,212,l),
(110,199,o),
(13,100,o),
(13,-38,cs),
(13,-175,o),
(107,-270,o),
(248,-270,cs)
);
},
{
closed = 1;
nodes = (
(361,358,o),
(409,419,o),
(409,463,cs),
(409,511,o),
(363,555,o),
(319,555,cs),
(235,555,o),
(208,500,o),
(208,457,cs),
(208,398,o),
(264,358,o),
(301,358,cs)
);
}
);
userData = {
com.hugojourdan.ColorFlow = {
"0" = 0;
"1" = 0;
"10" = 0;
"11" = 0;
"2" = 0;
"3" = 0;
"4" = 0;
"5" = 0;
"6" = 0;
"7" = 0;
"8" = 0;
"9" = 0;
};
};
width = 514;
},
{
layerId = "5FC9277C-B92C-4C3C-88AB-70E16AEC7C11";
shapes = (
{
closed = 1;
nodes = (
(335,-278,o),
(413,-247,o),
(465,-187,cs),
(474,-176,o),
(478,-168,o),
(478,-157,cs),
(478,-133,o),
(459,-115,o),
(436,-115,cs),
(426,-115,o),
(416,-120,o),
(408,-128,cs),
(373,-166,o),
(325,-194,o),
(257,-194,cs),
(158,-194,o),
(122,-126,o),
(122,-52,cs),
(122,83,o),
(187,120,o),
(290,125,cs),
(320,126,o),
(343,131,o),
(346,166,cs),
(355,283,ls),
(357,311,o),
(334,324,o),
(312,324,cs),
(291,324,o),
(268,311,o),
(268,283,c),
(262,199,l),
(120,195,o),
(32,87,o),
(32,-51,cs),
(32,-188,o),
(122,-278,o),
(257,-278,cs)
);
},
{
closed = 1;
nodes = (
(350,412,o),
(382,462,o),
(382,499,cs),
(382,524,o),
(352,546,o),
(328,546,cs),
(283,546,o),
(253,501,o),
(253,466,cs),
(253,434,o),
(287,412,o),
(310,412,cs)
);
}
);
userData = {
com.hugojourdan.ColorFlow = {
"0" = 0;
"1" = 0;
"10" = 0;
"11" = 0;
"2" = 0;
"3" = 0;
"4" = 0;
"5" = 0;
"6" = 0;
"7" = 0;
"8" = 0;
"9" = 0;
};
};
width = 532;
}
);
unicode = 191;
}
